Jost-Medium.ufo
<glyph name="numbersign" format="2">
  <advance width="629"/>
  <unicode hex="0023"/>
  <outline>
    <contour>
      <point x="75" y="429" type="line"/>
      <point x="75" y="516" type="line"/>
      <point x="595" y="516" type="line"/>
      <point x="595" y="429" type="line"/>
      <point x="449" y="429" type="line" smooth="yes"/>
      <point x="429" y="431" type="line" smooth="yes"/>
      <point x="232" y="431" type="line" smooth="yes"/>
      <point x="213" y="429" type="line" smooth="yes"/>
    </contour>
    <contour>
      <point x="35" y="189" type="line"/>
      <point x="35" y="276" type="line"/>
      <point x="170" y="276" type="line" smooth="yes"/>
      <point x="192" y="274" type="line" smooth="yes"/>
      <point x="405" y="274" type="line" smooth="yes"/>
      <point x="429" y="276" type="line" smooth="yes"/>
      <point x="555" y="276" type="line"/>
      <point x="555" y="189" type="line"/>
    </contour>
    <contour>
      <point x="463" y="700" type="line"/>
      <point x="560" y="700" type="line"/>
      <point x="390" y="0" type="line"/>
      <point x="293" y="0" type="line"/>
      <point x="348" y="226" type="line" smooth="yes"/>
      <point x="355" y="248" type="line" smooth="yes"/>
      <point x="406" y="460" type="line" smooth="yes"/>
      <point x="409" y="481" type="line" smooth="yes"/>
    </contour>
    <contour>
      <point x="240" y="700" type="line"/>
      <point x="337" y="700" type="line"/>
      <point x="285" y="484" type="line" smooth="yes"/>
      <point x="277" y="462" type="line" smooth="yes"/>
      <point x="225" y="247" type="line" smooth="yes"/>
      <point x="222" y="226" type="line" smooth="yes"/>
      <point x="167" y="0" type="line"/>
      <point x="70" y="0" type="line"/>
    </contour>
  </outline>
</glyph>
<glyph name="ampersand" format="1">
  <advance width="706"/>
  <unicode hex="0026"/>
  <outline>
    <contour>
      <point x="223" y="379" type="line" smooth="yes"/>
      <point x="185" y="423"/>
      <point x="121" y="477"/>
      <point x="121" y="551" type="curve" smooth="yes"/>
      <point x="121" y="643"/>
      <point x="196" y="714"/>
      <point x="310" y="714" type="curve" smooth="yes"/>
      <point x="425" y="714"/>
      <point x="491" y="636"/>
      <point x="491" y="552" type="curve" smooth="yes"/>
      <point x="491" y="475"/>
      <point x="434" y="422"/>
      <point x="334" y="360" type="curve" smooth="yes"/>
      <point x="262" y="316"/>
      <point x="154" y="285"/>
      <point x="154" y="193" type="curve" smooth="yes"/>
      <point x="154" y="128"/>
      <point x="209" y="84"/>
      <point x="284" y="84" type="curve" smooth="yes"/>
      <point x="406" y="84"/>
      <point x="515" y="198"/>
      <point x="604" y="326" type="curve"/>
      <point x="682" y="272" type="line"/>
      <point x="584" y="137"/>
      <point x="458" y="-11"/>
      <point x="272" y="-11" type="curve" smooth="yes"/>
      <point x="149" y="-11"/>
      <point x="40" y="63"/>
      <point x="40" y="185" type="curve" smooth="yes"/>
      <point x="40" y="337"/>
      <point x="200" y="382"/>
      <point x="269" y="418" type="curve" smooth="yes"/>
      <point x="344" y="458"/>
      <point x="388" y="504"/>
      <point x="388" y="546" type="curve" smooth="yes"/>
      <point x="388" y="589"/>
      <point x="358" y="622"/>
      <point x="309" y="622" type="curve" smooth="yes"/>
      <point x="258" y="622"/>
      <point x="230" y="590"/>
      <point x="230" y="547" type="curve" smooth="yes"/>
      <point x="230" y="503"/>
      <point x="273" y="467"/>
      <point x="317" y="415" type="curve" smooth="yes"/>
      <point x="687" y="0" type="line"/>
      <point x="560" y="0" type="line"/>
    </contour>
  </outline>
</glyph>
<glyph name="quotesingle" format="2">
  <advance width="293"/>
  <unicode hex="0027"/>
  <outline>
    <contour>
      <point x="120" y="700" type="line"/>
      <point x="241" y="700" type="line"/>
      <point x="145" y="392" type="line"/>
      <point x="72" y="392" type="line"/>
    </contour>
  </outline>
</glyph>
<glyph name="parenleft" format="2">
  <advance width="322"/>
  <unicode hex="0028"/>
  <outline>
    <contour>
      <point x="199" y="780" type="curve"/>
      <point x="299" y="780" type="line"/>
      <point x="229" y="630"/>
      <point x="195" y="460"/>
      <point x="195" y="290" type="curve" smooth="yes"/>
      <point x="195" y="120"/>
      <point x="229" y="-50"/>
      <point x="299" y="-200" type="curve"/>
      <point x="199" y="-200" type="line"/>
      <point x="119" y="-50"/>
      <point x="81" y="120"/>
      <point x="81" y="290" type="curve" smooth="yes"/>
      <point x="81" y="460"/>
      <point x="119" y="630"/>
    </contour>
  </outline>
</glyph>
<glyph name="parenright" format="1">
  <advance width="322"/>
  <unicode hex="0029"/>
  <outline>
    <contour>
      <point x="124" y="-200" type="curve"/>
      <point x="24" y="-200" type="line"/>
      <point x="94" y="-50"/>
      <point x="128" y="120"/>
      <point x="128" y="290" type="curve" smooth="yes"/>
      <point x="128" y="460"/>
      <point x="94" y="630"/>
      <point x="24" y="780" type="curve"/>
      <point x="124" y="780" type="line"/>
      <point x="204" y="630"/>
      <point x="241" y="460"/>
      <point x="241" y="290" type="curve" smooth="yes"/>
      <point x="241" y="120"/>
      <point x="204" y="-50"/>
    </contour>
  </outline>
</glyph>
<glyph name="asterisk" format="2">
  <advance width="592"/>
  <unicode hex="002A"/>
  <outline>
    <contour>
      <point x="482" y="601" type="line"/>
      <point x="512" y="508" type="line"/>
      <point x="306" y="460" type="line"/>
      <point x="286" y="517" type="line"/>
    </contour>
    <contour>
      <point x="460" y="347" type="line"/>
      <point x="380" y="289" type="line"/>
      <point x="272" y="471" type="line"/>
      <point x="320" y="507" type="line"/>
    </contour>
    <contour>
      <point x="212" y="289" type="line"/>
      <point x="132" y="347" type="line"/>
      <point x="272" y="507" type="line"/>
      <point x="320" y="471" type="line"/>
    </contour>
    <contour>
      <point x="80" y="508" type="line"/>
      <point x="110" y="601" type="line"/>
      <point x="306" y="517" type="line"/>
      <point x="286" y="460" type="line"/>
    </contour>
    <contour>
      <point x="247" y="700" type="line"/>
      <point x="345" y="700" type="line"/>
      <point x="326" y="489" type="line"/>
      <point x="266" y="489" type="line"/>
    </contour>
  </outline>
</glyph>
<glyph name="comma" format="1">
  <advance width="314"/>
  <unicode hex="002C"/>
  <outline>
    <contour>
      <point x="137" y="110" type="line"/>
      <point x="246" y="79" type="line"/>
      <point x="129" y="-171" type="line"/>
      <point x="49" y="-149" type="line"/>
    </contour>
  </outline>
</glyph>
<glyph name="hyphen" format="2">
  <advance width="214"/>
  <unicode hex="002D"/>
  <outline>
    <contour>
      <point x="5" y="189" type="line"/>
      <point x="5" y="286" type="line"/>
      <point x="210" y="286" type="line"/>
      <point x="210" y="189" type="line"/>
    </contour>
  </outline>
</glyph>
<glyph name="period" format="2">
  <advance width="308"/>
  <unicode hex="002E"/>
  <outline>
    <contour>
      <point x="84" y="51" type="curve" smooth="yes"/>
      <point x="84" y="89"/>
      <point x="115" y="121"/>
      <point x="155" y="121" type="curve" smooth="yes"/>
      <point x="195" y="121"/>
      <point x="225" y="89"/>
      <point x="225" y="51" type="curve" smooth="yes"/>
      <point x="225" y="13"/>
      <point x="195" y="-18"/>
      <point x="155" y="-18" type="curve" smooth="yes"/>
      <point x="115" y="-18"/>
      <point x="84" y="13"/>
    </contour>
  </outline>
</glyph>
<glyph name="three" format="2">
  <advance width="575"/>
  <unicode hex="0033"/>
  <outline>
    <contour>
      <point x="262" y="343" type="curve"/>
      <point x="262" y="406" type="line"/>
      <point x="347" y="406"/>
      <point x="398" y="456"/>
      <point x="398" y="516" type="curve" smooth="yes"/>
      <point x="398" y="572"/>
      <point x="366" y="611"/>
      <point x="303" y="611" type="curve" smooth="yes"/>
      <point x="243" y="611"/>
      <point x="196" y="569"/>
      <point x="196" y="513" type="curve"/>
      <point x="85" y="513" type="line"/>
      <point x="85" y="628"/>
      <point x="173" y="711"/>
      <point x="302" y="711" type="curve" smooth="yes"/>
      <point x="437" y="711"/>
      <point x="518" y="624"/>
      <point x="518" y="522" type="curve" smooth="yes"/>
      <point x="518" y="414"/>
      <point x="410" y="343"/>
    </contour>
    <contour>
      <point x="297" y="-12" type="curve" smooth="yes"/>
      <point x="148" y="-12"/>
      <point x="55" y="85"/>
      <point x="55" y="200" type="curve"/>
      <point x="174" y="200" type="line"/>
      <point x="174" y="133"/>
      <point x="228" y="90"/>
      <point x="299" y="90" type="curve" smooth="yes"/>
      <point x="370" y="90"/>
      <point x="418" y="130"/>
      <point x="418" y="200" type="curve" smooth="yes"/>
      <point x="418" y="275"/>
      <point x="357" y="317"/>
      <point x="262" y="317" type="curve"/>
      <point x="262" y="385" type="line"/>
      <point x="417" y="385"/>
      <point x="538" y="327"/>
      <point x="538" y="187" type="curve" smooth="yes"/>
      <point x="538" y="67"/>
      <point x="441" y="-12"/>
    </contour>
  </outline>
</glyph>
<glyph name="four" format="1">
  <advance width="629"/>
  <unicode hex="0034"/>
  <outline>
    <contour>
      <point x="18" y="134" type="line"/>
      <point x="413" y="700" type="line"/>
      <point x="484" y="700" type="line"/>
      <point x="484" y="0" type="line"/>
      <point x="363" y="0" type="line"/>
      <point x="363" y="170" type="line"/>
      <point x="370" y="181" type="line"/>
      <point x="370" y="488" type="line"/>
      <point x="190.958" y="228" type="line"/>
      <point x="420" y="228" type="line"/>
      <point x="438" y="236" type="line"/>
      <point x="594" y="236" type="line"/>
      <point x="594" y="134" type="line"/>
    </contour>
  </outline>
</glyph>
<glyph name="five" format="1">
  <advance width="596"/>
  <unicode hex="0035"/>
  <outline>
    <contour>
      <point x="556" y="228" type="curve" smooth="yes"/>
      <point x="556" y="66"/>
      <point x="431" y="-11"/>
      <point x="296" y="-11" type="curve" smooth="yes"/>
      <point x="167" y="-11"/>
      <point x="89" y="45"/>
      <point x="35" y="113" type="curve"/>
      <point x="104" y="198" type="line"/>
      <point x="145" y="143"/>
      <point x="215" y="99"/>
      <point x="282" y="99" type="curve" smooth="yes"/>
      <point x="376" y="99"/>
      <point x="430" y="150"/>
      <point x="430" y="235" type="curve" smooth="yes"/>
      <point x="430" y="320"/>
      <point x="363" y="370"/>
      <point x="282" y="370" type="curve" smooth="yes"/>
      <point x="220" y="370"/>
      <point x="166" y="358"/>
      <point x="95" y="314" type="curve"/>
      <point x="190" y="700" type="line"/>
      <point x="550" y="700" type="line"/>
      <point x="550" y="596" type="line"/>
      <point x="279" y="596" type="line"/>
      <point x="233.369" y="435.047" type="line"/>
      <point x="268.321" y="453.116"/>
      <point x="306.785" y="461"/>
      <point x="346" y="461" type="curve" smooth="yes"/>
      <point x="462" y="461"/>
      <point x="556" y="370"/>
    </contour>
  </outline>
</glyph>
<glyph name="seven" format="2">
  <advance width="556"/>
  <unicode hex="0037"/>
  <outline>
    <contour>
      <point x="30" y="589" type="line"/>
      <point x="30" y="700" type="line"/>
      <point x="552" y="700" type="line"/>
      <point x="216" y="0" type="line"/>
      <point x="90" y="0" type="line"/>
      <point x="377" y="589" type="line"/>
    </contour>
  </outline>
</glyph>
<glyph name="semicolon" format="1">
  <advance width="355"/>
  <unicode hex="003B"/>
  <outline>
    <contour>
      <point x="122" y="426" type="curve" smooth="yes"/>
      <point x="122" y="464"/>
      <point x="153" y="496"/>
      <point x="193" y="496" type="curve" smooth="yes"/>
      <point x="233" y="496"/>
      <point x="264" y="464"/>
      <point x="264" y="426" type="curve" smooth="yes"/>
      <point x="264" y="388"/>
      <point x="233" y="356"/>
      <point x="193" y="356" type="curve" smooth="yes"/>
      <point x="153" y="356"/>
      <point x="122" y="388"/>
    </contour>
    <contour>
      <point x="146" y="110" type="line"/>
      <point x="254" y="79" type="line"/>
      <point x="138" y="-171" type="line"/>
      <point x="58" y="-149" type="line"/>
    </contour>
  </outline>
</glyph>
<glyph name="question" format="2">
  <advance width="584"/>
  <unicode hex="003F"/>
  <outline>
    <contour>
      <point x="418" y="500" type="curve" smooth="yes"/>
      <point x="418" y="575"/>
      <point x="367" y="618"/>
      <point x="285" y="618" type="curve" smooth="yes"/>
      <point x="220" y="618"/>
      <point x="168" y="585"/>
      <point x="135" y="533" type="curve"/>
      <point x="55" y="591" type="line"/>
      <point x="111" y="666"/>
      <point x="176" y="713"/>
      <point x="295" y="713" type="curve" smooth="yes"/>
      <point x="422" y="713"/>
      <point x="528" y="627"/>
      <point x="528" y="500" type="curve" smooth="yes"/>
      <point x="528" y="382"/>
      <point x="424" y="299"/>
      <point x="315" y="288" type="curve"/>
      <point x="309" y="183" type="line"/>
      <point x="224" y="183" type="line"/>
      <point x="204" y="359" type="line"/>
      <point x="232" y="359" type="line" smooth="yes"/>
      <point x="352" y="359"/>
      <point x="418" y="434"/>
    </contour>
    <contour>
      <point x="197" y="48" type="curve" smooth="yes"/>
      <point x="197" y="84"/>
      <point x="227" y="114"/>
      <point x="267" y="114" type="curve" smooth="yes"/>
      <point x="307" y="114"/>
      <point x="339" y="84"/>
      <point x="339" y="48" type="curve" smooth="yes"/>
      <point x="339" y="12"/>
      <point x="307" y="-18"/>
      <point x="267" y="-18" type="curve" smooth="yes"/>
      <point x="227" y="-18"/>
      <point x="197" y="12"/>
    </contour>
  </outline>
</glyph>
<glyph name="A" format="2">
  <advance width="689"/>
  <unicode hex="0041"/>
  <outline>
    <contour>
      <point x="162" y="180" type="line"/>
      <point x="185" y="280" type="line"/>
      <point x="510" y="280" type="line"/>
      <point x="532" y="180" type="line"/>
    </contour>
    <contour>
      <point x="345" y="502" type="line"/>
      <point x="235" y="245" type="line"/>
      <point x="234" y="219" type="line"/>
      <point x="137" y="0" type="line"/>
      <point x="3" y="0" type="line"/>
      <point x="345" y="738" type="line"/>
      <point x="687" y="0" type="line"/>
      <point x="554" y="0" type="line"/>
      <point x="459" y="213" type="line"/>
      <point x="456" y="242" type="line"/>
    </contour>
  </outline>
</glyph>
<glyph name="E" format="2">
  <advance width="570"/>
  <unicode hex="0045"/>
  <outline>
    <contour>
      <point x="151" y="0" type="line"/>
      <point x="151" y="104" type="line"/>
      <point x="504" y="104" type="line"/>
      <point x="504" y="0" type="line"/>
    </contour>
    <contour>
      <point x="151" y="596" type="line"/>
      <point x="151" y="700" type="line"/>
      <point x="504" y="700" type="line"/>
      <point x="504" y="596" type="line"/>
    </contour>
    <contour>
      <point x="151" y="324" type="line"/>
      <point x="151" y="426" type="line"/>
      <point x="484" y="426" type="line"/>
      <point x="484" y="324" type="line"/>
    </contour>
    <contour>
      <point x="78" y="700" type="line"/>
      <point x="194" y="700" type="line"/>
      <point x="194" y="0" type="line"/>
      <point x="78" y="0" type="line"/>
    </contour>
  </outline>
</glyph>
<glyph name="G" format="1">
  <advance width="790"/>
  <unicode hex="0047"/>
  <outline>
    <contour>
      <point x="411" y="266" type="line"/>
      <point x="411" y="366" type="line"/>
      <point x="748" y="366" type="line"/>
      <point x="753" y="161"/>
      <point x="628" y="-15"/>
      <point x="404" y="-15" type="curve" smooth="yes"/>
      <point x="192" y="-15"/>
      <point x="38" y="136"/>
      <point x="38" y="350" type="curve" smooth="yes"/>
      <point x="38" y="564"/>
      <point x="194" y="712"/>
      <point x="406" y="712" type="curve" smooth="yes"/>
      <point x="542" y="712"/>
      <point x="645" y="654"/>
      <point x="707" y="557" type="curve"/>
      <point x="611" y="492" type="line"/>
      <point x="572" y="558"/>
      <point x="503" y="602"/>
      <point x="406" y="602" type="curve" smooth="yes"/>
      <point x="270" y="602"/>
      <point x="162" y="503"/>
      <point x="162" y="350" type="curve" smooth="yes"/>
      <point x="162" y="197"/>
      <point x="268" y="95"/>
      <point x="406" y="95" type="curve" smooth="yes"/>
      <point x="530.872" y="95"/>
      <point x="599.99" y="169.535"/>
      <point x="625.492" y="266" type="curve"/>
    </contour>
  </outline>
</glyph>
<glyph name="L" format="2">
  <advance width="481"/>
  <unicode hex="004C"/>
  <outline>
    <contour>
      <point x="78" y="700" type="line"/>
      <point x="196" y="700" type="line"/>
      <point x="196" y="106" type="line"/>
      <point x="474" y="106" type="line"/>
      <point x="474" y="0" type="line"/>
      <point x="78" y="0" type="line"/>
    </contour>
  </outline>
</glyph>
<glyph name="M" format="2">
  <advance width="842"/>
  <unicode hex="004D"/>
  <outline>
    <contour>
      <point x="208" y="426" type="line"/>
      <point x="160" y="0" type="line"/>
      <point x="38" y="0" type="line"/>
      <point x="134" y="735" type="line"/>
      <point x="421" y="260" type="line"/>
      <point x="709" y="735" type="line"/>
      <point x="805" y="0" type="line"/>
      <point x="683" y="0" type="line"/>
      <point x="635" y="426" type="line"/>
      <point x="421" y="65" type="line"/>
    </contour>
  </outline>
</glyph>
<glyph name="N" format="2">
  <advance width="781"/>
  <unicode hex="004E"/>
  <outline>
    <contour>
      <point x="589" y="700" type="line"/>
      <point x="705" y="700" type="line"/>
      <point x="705" y="-35" type="line"/>
      <point x="194" y="469" type="line"/>
      <point x="194" y="0" type="line"/>
      <point x="78" y="0" type="line"/>
      <point x="78" y="735" type="line"/>
      <point x="589" y="231" type="line"/>
    </contour>
  </outline>
</glyph>
<glyph name="R" format="2">
  <advance width="594"/>
  <unicode hex="0052"/>
  <outline>
    <contour>
      <point x="222" y="334" type="line"/>
      <point x="350" y="334" type="line"/>
      <point x="588" y="0" type="line"/>
      <point x="445" y="0" type="line"/>
    </contour>
    <contour>
      <point x="78" y="700" type="line"/>
      <point x="196" y="700" type="line"/>
      <point x="196" y="0" type="line"/>
      <point x="78" y="0" type="line"/>
    </contour>
    <contour>
      <point x="148" y="597" type="line"/>
      <point x="148" y="700" type="line"/>
      <point x="294" y="700" type="line" smooth="yes"/>
      <point x="446" y="700"/>
      <point x="546" y="613"/>
      <point x="546" y="482" type="curve" smooth="yes"/>
      <point x="546" y="351"/>
      <point x="446" y="265"/>
      <point x="294" y="265" type="curve" smooth="yes"/>
      <point x="148" y="265" type="line"/>
      <point x="148" y="363" type="line"/>
      <point x="289" y="363" type="line" smooth="yes"/>
      <point x="370" y="363"/>
      <point x="424" y="405"/>
      <point x="424" y="480" type="curve" smooth="yes"/>
      <point x="424" y="555"/>
      <point x="370" y="597"/>
      <point x="289" y="597" type="curve" smooth="yes"/>
    </contour>
  </outline>
</glyph>
<glyph name="S" format="2">
  <advance width="578"/>
  <unicode hex="0053"/>
  <outline>
    <contour>
      <point x="129" y="236" type="line"/>
      <point x="173" y="145"/>
      <point x="224" y="92"/>
      <point x="306" y="92" type="curve" smooth="yes"/>
      <point x="376" y="92"/>
      <point x="412" y="127"/>
      <point x="412" y="187" type="curve" smooth="yes"/>
      <point x="412" y="264"/>
      <point x="336" y="294"/>
      <point x="256" y="324" type="curve" smooth="yes"/>
      <point x="187" y="350"/>
      <point x="75" y="391"/>
      <point x="75" y="525" type="curve" smooth="yes"/>
      <point x="75" y="636"/>
      <point x="164" y="712"/>
      <point x="298" y="712" type="curve" smooth="yes"/>
      <point x="421" y="712"/>
      <point x="491" y="640"/>
      <point x="528" y="561" type="curve"/>
      <point x="435" y="504" type="line"/>
      <point x="405" y="560"/>
      <point x="360" y="606"/>
      <point x="292" y="606" type="curve" smooth="yes"/>
      <point x="231" y="606"/>
      <point x="198" y="574"/>
      <point x="198" y="523" type="curve" smooth="yes"/>
      <point x="198" y="463"/>
      <point x="275" y="434"/>
      <point x="359" y="403" type="curve" smooth="yes"/>
      <point x="442" y="373"/>
      <point x="537" y="317"/>
      <point x="537" y="192" type="curve" smooth="yes"/>
      <point x="537" y="64"/>
      <point x="441" y="-15"/>
      <point x="304" y="-15" type="curve" smooth="yes"/>
      <point x="184" y="-15"/>
      <point x="82" y="64"/>
      <point x="38" y="177" type="curve"/>
    </contour>
  </outline>
</glyph>
<glyph name="X" format="1">
  <advance width="607"/>
  <unicode hex="0058"/>
  <outline>
    <contour>
      <point x="441" y="700" type="line"/>
      <point x="585" y="700" type="line"/>
      <point x="373" y="364" type="line"/>
      <point x="600" y="0" type="line"/>
      <point x="456" y="0" type="line"/>
      <point x="306" y="269" type="line"/>
      <point x="151" y="0" type="line"/>
      <point x="8" y="0" type="line"/>
      <point x="240" y="364" type="line"/>
      <point x="32" y="700" type="line"/>
      <point x="176" y="700" type="line"/>
      <point x="307" y="464" type="line"/>
    </contour>
  </outline>
</glyph>
<glyph name="bracketleft" format="1">
  <advance width="325"/>
  <unicode hex="005B"/>
  <outline>
    <contour>
      <point x="204" y="682" type="line"/>
      <point x="204" y="-122" type="line"/>
      <point x="305" y="-122" type="line"/>
      <point x="305" y="-220" type="line"/>
      <point x="96" y="-220" type="line"/>
      <point x="96" y="780" type="line"/>
      <point x="305" y="780" type="line"/>
      <point x="305" y="682" type="line"/>
    </contour>
  </outline>
</glyph>
<glyph name="grave" format="2">
  <advance width="375"/>
  <unicode hex="0060"/>
  <outline>
    <contour>
      <point x="66" y="658" type="line"/>
      <point x="158" y="702" type="line"/>
      <point x="308" y="542" type="line"/>
      <point x="246" y="508" type="line"/>
    </contour>
  </outline>
</glyph>
<glyph name="a" format="2">
  <advance width="508"/>
  <unicode hex="0061"/>
  <outline>
    <contour>
      <point x="137" y="136" type="curve" smooth="yes"/>
      <point x="137" y="93"/>
      <point x="176" y="72"/>
      <point x="222" y="72" type="curve" smooth="yes"/>
      <point x="292" y="72"/>
      <point x="345" y="101"/>
      <point x="345" y="182" type="curve"/>
      <point x="361" y="130" type="line"/>
      <point x="361" y="41"/>
      <point x="284" y="-10"/>
      <point x="189" y="-10" type="curve" smooth="yes"/>
      <point x="97" y="-10"/>
      <point x="28" y="38"/>
      <point x="28" y="131" type="curve" smooth="yes"/>
      <point x="28" y="226"/>
      <point x="104" y="283"/>
      <point x="225" y="283" type="curve" smooth="yes"/>
      <point x="305" y="283"/>
      <point x="362" y="246"/>
      <point x="378" y="227" type="curve"/>
      <point x="378" y="170" type="line"/>
      <point x="337" y="200"/>
      <point x="297" y="214"/>
      <point x="241" y="214" type="curve" smooth="yes"/>
      <point x="172" y="214"/>
      <point x="137" y="184"/>
    </contour>
    <contour>
      <point x="113" y="339" type="curve"/>
      <point x="70" y="416" type="line"/>
      <point x="112" y="441"/>
      <point x="176" y="471"/>
      <point x="259" y="471" type="curve" smooth="yes"/>
      <point x="372" y="471"/>
      <point x="451" y="419"/>
      <point x="451" y="328" type="curve" smooth="yes"/>
      <point x="451" y="0" type="line"/>
      <point x="345" y="0" type="line"/>
      <point x="345" y="316" type="line" smooth="yes"/>
      <point x="345" y="359"/>
      <point x="304" y="383"/>
      <point x="254" y="383" type="curve" smooth="yes"/>
      <point x="188" y="383"/>
      <point x="135" y="354"/>
    </contour>
  </outline>
</glyph>
<glyph name="f" format="2">
  <advance width="309"/>
  <unicode hex="0066"/>
  <outline>
    <contour>
      <point x="31" y="460" type="line"/>
      <point x="295" y="460" type="line"/>
      <point x="295" y="365" type="line"/>
      <point x="31" y="365" type="line"/>
    </contour>
    <contour>
      <point x="283" y="664" type="line"/>
      <point x="269" y="685"/>
      <point x="253" y="690"/>
      <point x="236" y="690" type="curve" smooth="yes"/>
      <point x="206" y="690"/>
      <point x="188" y="667"/>
      <point x="188" y="609" type="curve" smooth="yes"/>
      <point x="188" y="0" type="line"/>
      <point x="82" y="0" type="line"/>
      <point x="82" y="630" type="line" smooth="yes"/>
      <point x="82" y="737"/>
      <point x="134" y="792"/>
      <point x="231" y="792" type="curve" smooth="yes"/>
      <point x="284" y="792"/>
      <point x="317" y="768"/>
      <point x="334" y="748" type="curve"/>
    </contour>
  </outline>
</glyph>
<glyph name="m" format="2">
  <advance width="796"/>
  <unicode hex="006D"/>
  <outline>
    <contour>
      <point x="342" y="280" type="line" smooth="yes"/>
      <point x="342" y="347"/>
      <point x="322" y="383"/>
      <point x="266" y="383" type="curve" smooth="yes"/>
      <point x="207" y="383"/>
      <point x="175" y="341"/>
      <point x="175" y="280" type="curve"/>
      <point x="149" y="278" type="line"/>
      <point x="149" y="387"/>
      <point x="205" y="470"/>
      <point x="305" y="470" type="curve" smooth="yes"/>
      <point x="405" y="470"/>
      <point x="451" y="412"/>
      <point x="451" y="295" type="curve" smooth="yes"/>
      <point x="451" y="0" type="line"/>
      <point x="342" y="0" type="line"/>
    </contour>
    <contour>
      <point x="175" y="460" type="line"/>
      <point x="175" y="0" type="line"/>
      <point x="69" y="0" type="line"/>
      <point x="69" y="460" type="line"/>
    </contour>
    <contour>
      <point x="728" y="292" type="curve" smooth="yes"/>
      <point x="728" y="0" type="line"/>
      <point x="619" y="0" type="line"/>
      <point x="619" y="280" type="line" smooth="yes"/>
      <point x="619" y="347"/>
      <point x="599" y="383"/>
      <point x="543" y="383" type="curve" smooth="yes"/>
      <point x="484" y="383"/>
      <point x="451" y="341"/>
      <point x="451" y="280" type="curve"/>
      <point x="406" y="278" type="line"/>
      <point x="406" y="387"/>
      <point x="481" y="470"/>
      <point x="581" y="470" type="curve" smooth="yes"/>
      <point x="681" y="470"/>
      <point x="728" y="409"/>
    </contour>
  </outline>
</glyph>
<glyph name="o" format="2">
  <advance width="563"/>
  <unicode hex="006F"/>
  <outline>
    <contour>
      <point x="34" y="230" type="curve" smooth="yes"/>
      <point x="34" y="371"/>
      <point x="141" y="470"/>
      <point x="282" y="470" type="curve" smooth="yes"/>
      <point x="423" y="470"/>
      <point x="530" y="371"/>
      <point x="530" y="230" type="curve" smooth="yes"/>
      <point x="530" y="89"/>
      <point x="423" y="-10"/>
      <point x="282" y="-10" type="curve" smooth="yes"/>
      <point x="141" y="-10"/>
      <point x="34" y="89"/>
    </contour>
    <contour>
      <point x="145" y="230" type="curve" smooth="yes"/>
      <point x="145" y="144"/>
      <point x="205" y="85"/>
      <point x="282" y="85" type="curve" smooth="yes"/>
      <point x="359" y="85"/>
      <point x="419" y="144"/>
      <point x="419" y="230" type="curve" smooth="yes"/>
      <point x="419" y="316"/>
      <point x="359" y="375"/>
      <point x="282" y="375" type="curve" smooth="yes"/>
      <point x="205" y="375"/>
      <point x="145" y="316"/>
    </contour>
  </outline>
</glyph>
<glyph name="q" format="2">
  <advance width="588"/>
  <unicode hex="0071"/>
  <outline>
    <contour>
      <point x="415" y="-220" type="line"/>
      <point x="415" y="460" type="line"/>
      <point x="524" y="460" type="line"/>
      <point x="524" y="-220" type="line"/>
    </contour>
    <contour>
      <point x="34" y="230" type="curve" smooth="yes"/>
      <point x="34" y="384"/>
      <point x="138" y="472"/>
      <point x="258" y="472" type="curve" smooth="yes"/>
      <point x="375" y="472"/>
      <point x="451" y="379"/>
      <point x="451" y="230" type="curve" smooth="yes"/>
      <point x="451" y="81"/>
      <point x="375" y="-12"/>
      <point x="258" y="-12" type="curve" smooth="yes"/>
      <point x="138" y="-12"/>
      <point x="34" y="76"/>
    </contour>
    <contour>
      <point x="146" y="230" type="curve" smooth="yes"/>
      <point x="146" y="138"/>
      <point x="209" y="86"/>
      <point x="284" y="86" type="curve" smooth="yes"/>
      <point x="346" y="86"/>
      <point x="415" y="137"/>
      <point x="415" y="230" type="curve" smooth="yes"/>
      <point x="415" y="323"/>
      <point x="346" y="374"/>
      <point x="284" y="374" type="curve" smooth="yes"/>
      <point x="209" y="374"/>
      <point x="146" y="322"/>
    </contour>
  </outline>
</glyph>
<glyph name="s" format="2">
  <advance width="423"/>
  <unicode hex="0073"/>
  <outline>
    <contour>
      <point x="86" y="167" type="line"/>
      <point x="135" y="107"/>
      <point x="187" y="76"/>
      <point x="224" y="76" type="curve" smooth="yes"/>
      <point x="260" y="76"/>
      <point x="287" y="91"/>
      <point x="287" y="124" type="curve" smooth="yes"/>
      <point x="287" y="167"/>
      <point x="237" y="185"/>
      <point x="185" y="205" type="curve" smooth="yes"/>
      <point x="121" y="229"/>
      <point x="53" y="255"/>
      <point x="53" y="343" type="curve" smooth="yes"/>
      <point x="53" y="429"/>
      <point x="128" y="470"/>
      <point x="212" y="470" type="curve" smooth="yes"/>
      <point x="287" y="470"/>
      <point x="352" y="435"/>
      <point x="390" y="389" type="curve"/>
      <point x="331" y="324" type="line"/>
      <point x="303" y="357"/>
      <point x="256" y="384"/>
      <point x="219" y="384" type="curve" smooth="yes"/>
      <point x="182" y="384"/>
      <point x="156" y="372"/>
      <point x="156" y="343" type="curve" smooth="yes"/>
      <point x="156" y="302"/>
      <point x="216" y="292"/>
      <point x="270" y="270" type="curve" smooth="yes"/>
      <point x="335" y="244"/>
      <point x="397" y="209"/>
      <point x="397" y="130" type="curve" smooth="yes"/>
      <point x="397" y="29"/>
      <point x="329" y="-13"/>
      <point x="232" y="-13" type="curve" smooth="yes"/>
      <point x="142" y="-13"/>
      <point x="70" y="37"/>
      <point x="23" y="104" type="curve"/>
    </contour>
  </outline>
</glyph>
<glyph name="t" format="2">
  <advance width="271"/>
  <unicode hex="0074"/>
  <outline>
    <contour>
      <point x="5" y="460" type="line"/>
      <point x="266" y="460" type="line"/>
      <point x="266" y="365" type="line"/>
      <point x="5" y="365" type="line"/>
    </contour>
    <contour>
      <point x="82" y="620" type="line"/>
      <point x="189" y="620" type="line"/>
      <point x="189" y="0" type="line"/>
      <point x="82" y="0" type="line"/>
    </contour>
  </outline>
</glyph>
<glyph name="w" format="1">
  <advance width="712"/>
  <unicode hex="0077"/>
  <outline>
    <contour>
      <point x="0" y="460" type="line"/>
      <point x="118" y="460" type="line"/>
      <point x="224.868" y="187.076" type="line"/>
      <point x="352" y="495" type="line"/>
      <point x="487.39" y="185.181" type="line"/>
      <point x="595" y="460" type="line"/>
      <point x="712" y="460" type="line"/>
      <point x="498" y="-32" type="line"/>
      <point x="352.787" y="279.052" type="line"/>
      <point x="215" y="-32" type="line"/>
    </contour>
  </outline>
</glyph>
<glyph name="y" format="2">
  <advance width="472"/>
  <unicode hex="0079"/>
  <outline>
    <contour>
      <point x="477" y="460" type="line"/>
      <point x="177" y="-220" type="line"/>
      <point x="61" y="-220" type="line"/>
      <point x="182" y="54" type="line"/>
      <point x="-3" y="460" type="line"/>
      <point x="120" y="460" type="line"/>
      <point x="267" y="97" type="line"/>
      <point x="216" y="99" type="line"/>
      <point x="360" y="460" type="line"/>
    </contour>
  </outline>
</glyph>
<glyph name="z" format="2">
  <advance width="484"/>
  <unicode hex="007A"/>
  <outline>
    <contour>
      <point x="283" y="360" type="line"/>
      <point x="50" y="360" type="line"/>
      <point x="50" y="460" type="line"/>
      <point x="470" y="460" type="line"/>
      <point x="208" y="100" type="line"/>
      <point x="445" y="100" type="line"/>
      <point x="445" y="0" type="line"/>
      <point x="15" y="0" type="line"/>
    </contour>
  </outline>
</glyph>
<glyph name="sterling" format="2">
  <advance width="592"/>
  <unicode hex="00A3"/>
  <outline>
    <contour>
      <point x="67" y="370" type="line"/>
      <point x="435" y="370" type="line"/>
      <point x="435" y="285" type="line"/>
      <point x="67" y="285" type="line"/>
    </contour>
    <contour>
      <point x="444" y="474" type="line"/>
      <point x="440" y="539"/>
      <point x="407" y="606"/>
      <point x="326" y="606" type="curve" smooth="yes"/>
      <point x="271" y="606"/>
      <point x="219" y="578"/>
      <point x="219" y="510" type="curve" smooth="yes"/>
      <point x="219" y="407"/>
      <point x="313" y="378"/>
      <point x="313" y="266" type="curve" smooth="yes"/>
      <point x="313" y="160"/>
      <point x="221" y="70"/>
      <point x="147" y="50" type="curve"/>
      <point x="169" y="104" type="line"/>
      <point x="526" y="104" type="line"/>
      <point x="526" y="0" type="line"/>
      <point x="59" y="0" type="line"/>
      <point x="157" y="102"/>
      <point x="206" y="171"/>
      <point x="206" y="264" type="curve" smooth="yes"/>
      <point x="206" y="358"/>
      <point x="103" y="391"/>
      <point x="103" y="519" type="curve" smooth="yes"/>
      <point x="103" y="638"/>
      <point x="199" y="710"/>
      <point x="323" y="710" type="curve" smooth="yes"/>
      <point x="464" y="710"/>
      <point x="536" y="593"/>
      <point x="541" y="511" type="curve"/>
    </contour>
  </outline>
</glyph>
<glyph name="currency" format="2">
  <advance width="578"/>
  <unicode hex="00A4"/>
  <outline>
    <contour>
      <point x="31" y="503" type="line"/>
      <point x="86" y="558" type="line"/>
      <point x="182" y="461" type="line"/>
      <point x="128" y="408" type="line"/>
    </contour>
    <contour>
      <point x="86" y="42" type="line"/>
      <point x="31" y="97" type="line"/>
      <point x="128" y="192" type="line"/>
      <point x="182" y="139" type="line"/>
    </contour>
    <contour>
      <point x="451" y="408" type="line"/>
      <point x="396" y="461" type="line"/>
      <point x="492" y="558" type="line"/>
      <point x="547" y="503" type="line"/>
    </contour>
    <contour>
      <point x="396" y="139" type="line"/>
      <point x="451" y="192" type="line"/>
      <point x="547" y="97" type="line"/>
      <point x="492" y="42" type="line"/>
    </contour>
    <contour>
      <point x="51" y="300" type="curve" smooth="yes"/>
      <point x="51" y="439"/>
      <point x="154" y="540"/>
      <point x="289" y="540" type="curve" smooth="yes"/>
      <point x="424" y="540"/>
      <point x="527" y="439"/>
      <point x="527" y="300" type="curve" smooth="yes"/>
      <point x="527" y="161"/>
      <point x="424" y="60"/>
      <point x="289" y="60" type="curve" smooth="yes"/>
      <point x="154" y="60"/>
      <point x="51" y="161"/>
    </contour>
    <contour>
      <point x="155" y="300" type="curve" smooth="yes"/>
      <point x="155" y="218"/>
      <point x="212" y="160"/>
      <point x="289" y="160" type="curve" smooth="yes"/>
      <point x="366" y="160"/>
      <point x="424" y="218"/>
      <point x="424" y="300" type="curve" smooth="yes"/>
      <point x="424" y="382"/>
      <point x="366" y="440"/>
      <point x="289" y="440" type="curve" smooth="yes"/>
      <point x="212" y="440"/>
      <point x="155" y="382"/>
    </contour>
  </outline>
</glyph>
<glyph name="brokenbar" format="1">
  <advance width="305"/>
  <unicode hex="00A6"/>
  <outline>
    <contour>
      <point x="100" y="695" type="line"/>
      <point x="206" y="695" type="line"/>
      <point x="206" y="445" type="line"/>
      <point x="100" y="445" type="line"/>
    </contour>
    <contour>
      <point x="206" y="255" type="line"/>
      <point x="206" y="5" type="line"/>
      <point x="100" y="5" type="line"/>
      <point x="100" y="255" type="line"/>
    </contour>
  </outline>
</glyph>
<glyph name="dieresis" format="1">
  <advance width="486"/>
  <unicode hex="00A8"/>
  <outline>
    <contour>
      <point x="284" y="649" type="curve" smooth="yes"/>
      <point x="284" y="686"/>
      <point x="314" y="714"/>
      <point x="352" y="714" type="curve" smooth="yes"/>
      <point x="390" y="714"/>
      <point x="420" y="686"/>
      <point x="420" y="649" type="curve" smooth="yes"/>
      <point x="420" y="612"/>
      <point x="390" y="583"/>
      <point x="352" y="583" type="curve" smooth="yes"/>
      <point x="314" y="583"/>
      <point x="284" y="612"/>
    </contour>
    <contour>
      <point x="66" y="649" type="curve" smooth="yes"/>
      <point x="66" y="686"/>
      <point x="96" y="714"/>
      <point x="134" y="714" type="curve" smooth="yes"/>
      <point x="172" y="714"/>
      <point x="203" y="686"/>
      <point x="203" y="649" type="curve" smooth="yes"/>
      <point x="203" y="612"/>
      <point x="172" y="583"/>
      <point x="134" y="583" type="curve" smooth="yes"/>
      <point x="96" y="583"/>
      <point x="66" y="612"/>
    </contour>
  </outline>
</glyph>
<glyph name="ordfeminine" format="1">
  <advance width="251"/>
  <unicode hex="00AA"/>
  <outline>
    <contour>
      <point x="74" y="531" type="curve" smooth="yes"/>
      <point x="74" y="511"/>
      <point x="86" y="496"/>
      <point x="117" y="496" type="curve" smooth="yes"/>
      <point x="148" y="496"/>
      <point x="178" y="511"/>
      <point x="178" y="551" type="curve"/>
      <point x="186" y="525" type="line"/>
      <point x="186" y="481"/>
      <point x="148" y="455"/>
      <point x="100" y="455" type="curve" smooth="yes"/>
      <point x="56" y="455"/>
      <point x="19" y="482"/>
      <point x="19" y="530" type="curve" smooth="yes"/>
      <point x="19" y="577"/>
      <point x="66" y="609"/>
      <point x="118" y="609" type="curve" smooth="yes"/>
      <point x="158" y="609"/>
      <point x="186" y="591"/>
      <point x="194" y="582" type="curve"/>
      <point x="194" y="552" type="line"/>
      <point x="174" y="567"/>
      <point x="154" y="575"/>
      <point x="126" y="575" type="curve" smooth="yes"/>
      <point x="95" y="575"/>
      <point x="74" y="555"/>
    </contour>
    <contour>
      <point x="62" y="638" type="curve"/>
      <point x="40" y="678" type="line"/>
      <point x="61" y="690"/>
      <point x="94" y="705"/>
      <point x="136" y="705" type="curve" smooth="yes"/>
      <point x="192" y="705"/>
      <point x="231" y="679"/>
      <point x="231" y="633" type="curve" smooth="yes"/>
      <point x="231" y="460" type="line"/>
      <point x="178" y="460" type="line"/>
      <point x="178" y="625" type="line" smooth="yes"/>
      <point x="178" y="647"/>
      <point x="158" y="660"/>
      <point x="133" y="660" type="curve" smooth="yes"/>
      <point x="100" y="660"/>
      <point x="73" y="646"/>
    </contour>
  </outline>
</glyph>
<glyph name="guillemotleft" format="1">
  <advance width="522"/>
  <unicode hex="00AB"/>
  <outline>
    <contour>
      <point x="315" y="259" type="line"/>
      <point x="465" y="65" type="line"/>
      <point x="398" y="12" type="line"/>
      <point x="212" y="255" type="line"/>
      <point x="398" y="498" type="line"/>
      <point x="465" y="445" type="line"/>
    </contour>
    <contour>
      <point x="137" y="259" type="line"/>
      <point x="288" y="65" type="line"/>
      <point x="220" y="12" type="line"/>
      <point x="35" y="255" type="line"/>
      <point x="220" y="498" type="line"/>
      <point x="288" y="445" type="line"/>
    </contour>
  </outline>
</glyph>
<glyph name="plusminus" format="2">
  <advance width="621"/>
  <unicode hex="00B1"/>
  <outline>
    <contour>
      <point x="65" y="2" type="line"/>
      <point x="65" y="103" type="line"/>
      <point x="558" y="103" type="line"/>
      <point x="558" y="2" type="line"/>
    </contour>
    <contour>
      <point x="65" y="340" type="line"/>
      <point x="65" y="442" type="line"/>
      <point x="558" y="442" type="line"/>
      <point x="558" y="340" type="line"/>
    </contour>
    <contour>
      <point x="255" y="620" type="line"/>
      <point x="367" y="620" type="line"/>
      <point x="367" y="163" type="line"/>
      <point x="255" y="163" type="line"/>
    </contour>
  </outline>
</glyph>
<glyph name="acute" format="2">
  <advance width="375"/>
  <unicode hex="00B4"/>
  <outline>
    <contour>
      <point x="308" y="658" type="line"/>
      <point x="128" y="508" type="line"/>
      <point x="66" y="542" type="line"/>
      <point x="216" y="702" type="line"/>
    </contour>
  </outline>
</glyph>
<glyph name="periodcentered" format="2">
  <advance width="308"/>
  <unicode hex="00B7"/>
  <outline>
    <contour>
      <point x="84" y="251" type="curve" smooth="yes"/>
      <point x="84" y="289"/>
      <point x="115" y="321"/>
      <point x="155" y="321" type="curve" smooth="yes"/>
      <point x="195" y="321"/>
      <point x="225" y="289"/>
      <point x="225" y="251" type="curve" smooth="yes"/>
      <point x="225" y="213"/>
      <point x="195" y="182"/>
      <point x="155" y="182" type="curve" smooth="yes"/>
      <point x="115" y="182"/>
      <point x="84" y="213"/>
    </contour>
  </outline>
</glyph>
<glyph name="threequarters" format="2">
  <advance width="843"/>
  <unicode hex="00BE"/>
  <outline>
    <contour>
      <point x="688" y="700" type="line"/>
      <point x="766" y="700" type="line"/>
      <point x="246" y="0" type="line"/>
      <point x="168" y="0" type="line"/>
    </contour>
    <contour>
      <point x="152" y="485" type="curve"/>
      <point x="152" y="523" type="line"/>
      <point x="203" y="523"/>
      <point x="234" y="553"/>
      <point x="234" y="590" type="curve" smooth="yes"/>
      <point x="234" y="624"/>
      <point x="215" y="647"/>
      <point x="177" y="647" type="curve" smooth="yes"/>
      <point x="141" y="647"/>
      <point x="113" y="622"/>
      <point x="113" y="588" type="curve"/>
      <point x="46" y="588" type="line"/>
      <point x="46" y="656"/>
      <point x="100" y="707"/>
      <point x="177" y="707" type="curve" smooth="yes"/>
      <point x="258" y="707"/>
      <point x="306" y="654"/>
      <point x="306" y="593" type="curve" smooth="yes"/>
      <point x="306" y="529"/>
      <point x="241" y="485"/>
    </contour>
    <contour>
      <point x="173" y="272" type="curve" smooth="yes"/>
      <point x="84" y="272"/>
      <point x="28" y="332"/>
      <point x="28" y="400" type="curve"/>
      <point x="100" y="400" type="line"/>
      <point x="100" y="359"/>
      <point x="132" y="334"/>
      <point x="175" y="334" type="curve" smooth="yes"/>
      <point x="218" y="334"/>
      <point x="246" y="357"/>
      <point x="246" y="400" type="curve" smooth="yes"/>
      <point x="246" y="445"/>
      <point x="209" y="470"/>
      <point x="152" y="470" type="curve"/>
      <point x="152" y="511" type="line"/>
      <point x="245" y="511"/>
      <point x="318" y="477"/>
      <point x="318" y="393" type="curve" smooth="yes"/>
      <point x="318" y="321"/>
      <point x="259" y="272"/>
    </contour>
    <contour>
      <point x="465" y="81" type="line"/>
      <point x="523" y="137" type="line"/>
      <point x="707" y="137" type="line" smooth="yes"/>
      <point x="717" y="142" type="line" smooth="yes"/>
      <point x="811" y="142" type="line"/>
      <point x="811" y="81" type="line"/>
    </contour>
    <contour>
      <point x="538" y="92" type="line"/>
      <point x="465" y="81" type="line"/>
      <point x="702" y="420" type="line"/>
      <point x="745" y="420" type="line"/>
      <point x="745" y="0" type="line"/>
      <point x="672" y="0" type="line"/>
      <point x="672" y="103" type="line" smooth="yes"/>
      <point x="677" y="109" type="line" smooth="yes"/>
      <point x="677" y="294" type="line"/>
    </contour>
  </outline>
</glyph>
<glyph name="questiondown" format="1">
  <advance width="585"/>
  <unicode hex="00BF"/>
  <outline>
    <contour>
      <point x="167" y="200" type="curve" smooth="yes"/>
      <point x="167" y="125"/>
      <point x="218" y="82"/>
      <point x="300" y="82" type="curve" smooth="yes"/>
      <point x="364" y="82"/>
      <point x="416" y="115"/>
      <point x="450" y="167" type="curve"/>
      <point x="530" y="108" type="line"/>
      <point x="474" y="33"/>
      <point x="409" y="-14"/>
      <point x="290" y="-14" type="curve" smooth="yes"/>
      <point x="162" y="-14"/>
      <point x="58" y="74"/>
      <point x="58" y="200" type="curve" smooth="yes"/>
      <point x="58" y="318"/>
      <point x="161" y="401"/>
      <point x="270" y="412" type="curve"/>
      <point x="276" y="518" type="line"/>
      <point x="362" y="518" type="line"/>
      <point x="382" y="341" type="line"/>
      <point x="353" y="341" type="line" smooth="yes"/>
      <point x="233" y="341"/>
      <point x="167" y="266"/>
    </contour>
    <contour>
      <point x="388" y="652" type="curve" smooth="yes"/>
      <point x="388" y="616"/>
      <point x="358" y="586"/>
      <point x="318" y="586" type="curve" smooth="yes"/>
      <point x="278" y="586"/>
      <point x="247" y="616"/>
      <point x="247" y="652" type="curve" smooth="yes"/>
      <point x="247" y="688"/>
      <point x="278" y="719"/>
      <point x="318" y="719" type="curve" smooth="yes"/>
      <point x="358" y="719"/>
      <point x="388" y="688"/>
    </contour>
  </outline>
</glyph>
<glyph name="Agrave" format="2">
  <advance width="689"/>
  <unicode hex="00C0"/>
  <outline>
    <contour>
      <point x="162" y="180" type="line"/>
      <point x="185" y="280" type="line"/>
      <point x="510" y="280" type="line"/>
      <point x="532" y="180" type="line"/>
    </contour>
    <contour>
      <point x="345" y="502" type="line"/>
      <point x="235" y="245" type="line"/>
      <point x="234" y="219" type="line"/>
      <point x="137" y="0" type="line"/>
      <point x="3" y="0" type="line"/>
      <point x="345" y="738" type="line"/>
      <point x="687" y="0" type="line"/>
      <point x="554" y="0" type="line"/>
      <point x="459" y="213" type="line"/>
      <point x="456" y="242" type="line"/>
    </contour>
    <contour>
      <point x="202" y="948" type="line"/>
      <point x="294" y="994" type="line"/>
      <point x="444" y="834" type="line"/>
      <point x="382" y="798" type="line"/>
    </contour>
  </outline>
</glyph>
<glyph name="Atilde" format="1">
  <advance width="690"/>
  <unicode hex="00C3"/>
  <outline>
    <contour>
      <point x="162" y="180" type="line"/>
      <point x="184" y="280" type="line"/>
      <point x="510" y="280" type="line"/>
      <point x="532" y="180" type="line"/>
    </contour>
    <contour>
      <point x="345" y="502" type="line"/>
      <point x="235" y="245" type="line"/>
      <point x="233" y="219" type="line"/>
      <point x="136" y="0" type="line"/>
      <point x="2" y="0" type="line"/>
      <point x="345" y="739" type="line"/>
      <point x="688" y="0" type="line"/>
      <point x="554" y="0" type="line"/>
      <point x="459" y="213" type="line"/>
      <point x="456" y="242" type="line"/>
    </contour>
    <contour>
      <point x="168" y="832" type="line"/>
      <point x="178" y="881"/>
      <point x="226" y="919"/>
      <point x="278" y="919" type="curve" smooth="yes"/>
      <point x="344" y="919"/>
      <point x="352" y="870"/>
      <point x="407" y="870" type="curve" smooth="yes"/>
      <point x="429" y="870"/>
      <point x="446" y="888"/>
      <point x="466" y="920" type="curve"/>
      <point x="522" y="865" type="line"/>
      <point x="506" y="828"/>
      <point x="460" y="787"/>
      <point x="405" y="787" type="curve" smooth="yes"/>
      <point x="350" y="787"/>
      <point x="324" y="836"/>
      <point x="277" y="836" type="curve" smooth="yes"/>
      <point x="237" y="836"/>
      <point x="228" y="800"/>
      <point x="228" y="785" type="curve"/>
    </contour>
  </outline>
</glyph>
<glyph name="Adieresis" format="1">
  <advance width="690"/>
  <unicode hex="00C4"/>
  <outline>
    <contour>
      <point x="162" y="180" type="line"/>
      <point x="184" y="280" type="line"/>
      <point x="510" y="280" type="line"/>
      <point x="532" y="180" type="line"/>
    </contour>
    <contour>
      <point x="345" y="502" type="line"/>
      <point x="235" y="245" type="line"/>
      <point x="233" y="219" type="line"/>
      <point x="136" y="0" type="line"/>
      <point x="2" y="0" type="line"/>
      <point x="345" y="739" type="line"/>
      <point x="688" y="0" type="line"/>
      <point x="554" y="0" type="line"/>
      <point x="459" y="213" type="line"/>
      <point x="456" y="242" type="line"/>
    </contour>
    <contour>
      <point x="393" y="842" type="curve" smooth="yes"/>
      <point x="393" y="879"/>
      <point x="423" y="908"/>
      <point x="461" y="908" type="curve" smooth="yes"/>
      <point x="499" y="908"/>
      <point x="530" y="879"/>
      <point x="530" y="842" type="curve" smooth="yes"/>
      <point x="530" y="805"/>
      <point x="499" y="776"/>
      <point x="461" y="776" type="curve" smooth="yes"/>
      <point x="423" y="776"/>
      <point x="393" y="805"/>
    </contour>
    <contour>
      <point x="158" y="844" type="curve" smooth="yes"/>
      <point x="158" y="881"/>
      <point x="188" y="910"/>
      <point x="226" y="910" type="curve" smooth="yes"/>
      <point x="264" y="910"/>
      <point x="294" y="881"/>
      <point x="294" y="844" type="curve" smooth="yes"/>
      <point x="294" y="807"/>
      <point x="264" y="779"/>
      <point x="226" y="779" type="curve" smooth="yes"/>
      <point x="188" y="779"/>
      <point x="158" y="807"/>
    </contour>
  </outline>
</glyph>
<glyph name="Aring" format="2">
  <advance width="689"/>
  <unicode hex="00C5"/>
  <outline>
    <contour>
      <point x="162" y="180" type="line"/>
      <point x="185" y="280" type="line"/>
      <point x="510" y="280" type="line"/>
      <point x="532" y="180" type="line"/>
    </contour>
    <contour>
      <point x="345" y="502" type="line"/>
      <point x="235" y="245" type="line"/>
      <point x="234" y="219" type="line"/>
      <point x="137" y="0" type="line"/>
      <point x="3" y="0" type="line"/>
      <point x="345" y="738" type="line"/>
      <point x="687" y="0" type="line"/>
      <point x="554" y="0" type="line"/>
      <point x="459" y="213" type="line"/>
      <point x="456" y="242" type="line"/>
    </contour>
    <contour>
      <point x="234" y="799" type="curve" smooth="yes"/>
      <point x="234" y="862"/>
      <point x="286" y="906"/>
      <point x="345" y="906" type="curve" smooth="yes"/>
      <point x="404" y="906"/>
      <point x="456" y="862"/>
      <point x="456" y="799" type="curve" smooth="yes"/>
      <point x="456" y="736"/>
      <point x="404" y="693"/>
      <point x="345" y="693" type="curve" smooth="yes"/>
      <point x="286" y="693"/>
      <point x="234" y="736"/>
    </contour>
    <contour>
      <point x="296" y="799" type="curve" smooth="yes"/>
      <point x="296" y="767"/>
      <point x="320" y="748"/>
      <point x="345" y="748" type="curve" smooth="yes"/>
      <point x="370" y="748"/>
      <point x="394" y="767"/>
      <point x="394" y="799" type="curve" smooth="yes"/>
      <point x="394" y="831"/>
      <point x="370" y="850"/>
      <point x="345" y="850" type="curve" smooth="yes"/>
      <point x="320" y="850"/>
      <point x="296" y="831"/>
    </contour>
  </outline>
</glyph>
<glyph name="AE" format="2">
  <advance width="1009"/>
  <unicode hex="00C6"/>
  <outline>
    <contour>
      <point x="238" y="186" type="line"/>
      <point x="241" y="296" type="line"/>
      <point x="541" y="296" type="line"/>
      <point x="541" y="186" type="line"/>
    </contour>
    <contour>
      <point x="436" y="700" type="line"/>
      <point x="543" y="660" type="line"/>
      <point x="152" y="0" type="line"/>
      <point x="8" y="0" type="line"/>
    </contour>
    <contour>
      <point x="575" y="0" type="line"/>
      <point x="575" y="104" type="line"/>
      <point x="940" y="104" type="line"/>
      <point x="940" y="0" type="line"/>
    </contour>
    <contour>
      <point x="583" y="596" type="line"/>
      <point x="436" y="700" type="line"/>
      <point x="940" y="700" type="line"/>
      <point x="940" y="596" type="line"/>
    </contour>
    <contour>
      <point x="575" y="324" type="line"/>
      <point x="575" y="426" type="line"/>
      <point x="920" y="426" type="line"/>
      <point x="920" y="324" type="line"/>
    </contour>
    <contour>
      <point x="514" y="700" type="line"/>
      <point x="638" y="700" type="line"/>
      <point x="638" y="0" type="line"/>
      <point x="514" y="0" type="line"/>
    </contour>
  </outline>
</glyph>
<glyph name="Ccedilla" format="1">
  <advance width="691"/>
  <unicode hex="00C7"/>
  <outline>
    <contour>
      <point x="166" y="350" type="curve" smooth="yes"/>
      <point x="166" y="201"/>
      <point x="277" y="103"/>
      <point x="405" y="103" type="curve" smooth="yes"/>
      <point x="504" y="103"/>
      <point x="576" y="145"/>
      <point x="624" y="202" type="curve"/>
      <point x="624" y="62" type="line"/>
      <point x="566" y="14"/>
      <point x="503" y="-12"/>
      <point x="401" y="-12" type="curve" smooth="yes"/>
      <point x="195" y="-12"/>
      <point x="38" y="137"/>
      <point x="38" y="350" type="curve" smooth="yes"/>
      <point x="38" y="563"/>
      <point x="195" y="712"/>
      <point x="401" y="712" type="curve" smooth="yes"/>
      <point x="503" y="712"/>
      <point x="566" y="686"/>
      <point x="624" y="638" type="curve"/>
      <point x="624" y="498" type="line"/>
      <point x="576" y="555"/>
      <point x="504" y="597"/>
      <point x="405" y="597" type="curve" smooth="yes"/>
      <point x="277" y="597"/>
      <point x="166" y="499"/>
    </contour>
    <contour>
      <point x="371" y="55" type="line"/>
      <point x="451" y="53" type="line"/>
      <point x="379" y="-63" type="line"/>
      <point x="385" y="-62"/>
      <point x="392" y="-61"/>
      <point x="399" y="-61" type="curve" smooth="yes"/>
      <point x="435" y="-61"/>
      <point x="479" y="-89"/>
      <point x="479" y="-145" type="curve" smooth="yes"/>
      <point x="479" y="-211"/>
      <point x="421" y="-245"/>
      <point x="363" y="-245" type="curve" smooth="yes"/>
      <point x="319" y="-245"/>
      <point x="287" y="-235"/>
      <point x="251" y="-206" type="curve"/>
      <point x="290" y="-155" type="line"/>
      <point x="312" y="-172"/>
      <point x="331" y="-179"/>
      <point x="355" y="-179" type="curve" smooth="yes"/>
      <point x="389" y="-179"/>
      <point x="406" y="-165"/>
      <point x="406" y="-141" type="curve" smooth="yes"/>
      <point x="406" y="-116"/>
      <point x="385" y="-107"/>
      <point x="352" y="-107" type="curve" smooth="yes"/>
      <point x="342" y="-107"/>
      <point x="310" y="-110"/>
      <point x="284" y="-124" type="curve"/>
    </contour>
  </outline>
</glyph>
<glyph name="Edieresis" format="1">
  <advance width="571"/>
  <unicode hex="00CB"/>
  <outline>
    <contour>
      <point x="151" y="0" type="line"/>
      <point x="151" y="104" type="line"/>
      <point x="504" y="104" type="line"/>
      <point x="504" y="0" type="line"/>
    </contour>
    <contour>
      <point x="151" y="596" type="line"/>
      <point x="151" y="700" type="line"/>
      <point x="504" y="700" type="line"/>
      <point x="504" y="596" type="line"/>
    </contour>
    <contour>
      <point x="151" y="324" type="line"/>
      <point x="151" y="426" type="line"/>
      <point x="484" y="426" type="line"/>
      <point x="484" y="324" type="line"/>
    </contour>
    <contour>
      <point x="78" y="700" type="line"/>
      <point x="194" y="700" type="line"/>
      <point x="194" y="0" type="line"/>
      <point x="78" y="0" type="line"/>
    </contour>
    <contour>
      <point x="339" y="853" type="curve" smooth="yes"/>
      <point x="339" y="890"/>
      <point x="369" y="919"/>
      <point x="407" y="919" type="curve" smooth="yes"/>
      <point x="445" y="919"/>
      <point x="475" y="890"/>
      <point x="475" y="853" type="curve" smooth="yes"/>
      <point x="475" y="816"/>
      <point x="445" y="788"/>
      <point x="407" y="788" type="curve" smooth="yes"/>
      <point x="369" y="788"/>
      <point x="339" y="816"/>
    </contour>
    <contour>
      <point x="121" y="853" type="curve" smooth="yes"/>
      <point x="121" y="890"/>
      <point x="152" y="919"/>
      <point x="190" y="919" type="curve" smooth="yes"/>
      <point x="228" y="919"/>
      <point x="258" y="890"/>
      <point x="258" y="853" type="curve" smooth="yes"/>
      <point x="258" y="816"/>
      <point x="228" y="788"/>
      <point x="190" y="788" type="curve" smooth="yes"/>
      <point x="152" y="788"/>
      <point x="121" y="816"/>
    </contour>
  </outline>
</glyph>
<glyph name="Icircumflex" format="1">
  <advance width="275"/>
  <unicode hex="00CE"/>
  <outline>
    <contour>
      <point x="78" y="700" type="line"/>
      <point x="198" y="700" type="line"/>
      <point x="198" y="0" type="line"/>
      <point x="78" y="0" type="line"/>
    </contour>
    <contour>
      <point x="134" y="872" type="line"/>
      <point x="24" y="778" type="line"/>
      <point x="-26" y="818" type="line"/>
      <point x="134" y="958" type="line"/>
      <point x="294" y="818" type="line"/>
      <point x="244" y="778" type="line"/>
    </contour>
  </outline>
</glyph>
<glyph name="Ntilde" format="1">
  <advance width="782"/>
  <unicode hex="00D1"/>
  <outline>
    <contour>
      <point x="589" y="700" type="line"/>
      <point x="705" y="700" type="line"/>
      <point x="705" y="-35" type="line"/>
      <point x="194" y="462.876" type="line"/>
      <point x="194" y="0" type="line"/>
      <point x="78" y="0" type="line"/>
      <point x="78" y="735" type="line"/>
      <point x="589" y="236.323" type="line"/>
    </contour>
    <contour>
      <point x="220.5" y="842" type="line"/>
      <point x="230.5" y="891"/>
      <point x="278.5" y="929"/>
      <point x="330.5" y="929" type="curve" smooth="yes"/>
      <point x="396.5" y="929"/>
      <point x="404.5" y="880"/>
      <point x="459.5" y="880" type="curve" smooth="yes"/>
      <point x="481.5" y="880"/>
      <point x="499.5" y="898"/>
      <point x="519.5" y="930" type="curve"/>
      <point x="575.5" y="874" type="line"/>
      <point x="559.5" y="837"/>
      <point x="513.5" y="796"/>
      <point x="458.5" y="796" type="curve" smooth="yes"/>
      <point x="403.5" y="796"/>
      <point x="376.5" y="846"/>
      <point x="329.5" y="846" type="curve" smooth="yes"/>
      <point x="289.5" y="846"/>
      <point x="280.5" y="810"/>
      <point x="280.5" y="795" type="curve"/>
    </contour>
  </outline>
</glyph>
<glyph name="Oacute" format="2">
  <advance width="802"/>
  <unicode hex="00D3"/>
  <outline>
    <contour>
      <point x="164" y="350" type="curve" smooth="yes"/>
      <point x="164" y="206"/>
      <point x="262" y="101"/>
      <point x="401" y="101" type="curve" smooth="yes"/>
      <point x="540" y="101"/>
      <point x="639" y="206"/>
      <point x="639" y="350" type="curve" smooth="yes"/>
      <point x="639" y="494"/>
      <point x="541" y="599"/>
      <point x="401" y="599" type="curve" smooth="yes"/>
      <point x="262" y="599"/>
      <point x="164" y="494"/>
    </contour>
    <contour>
      <point x="38" y="350" type="curve" smooth="yes"/>
      <point x="38" y="559"/>
      <point x="194" y="712"/>
      <point x="401" y="712" type="curve" smooth="yes"/>
      <point x="610" y="712"/>
      <point x="765" y="559"/>
      <point x="765" y="350" type="curve" smooth="yes"/>
      <point x="765" y="141"/>
      <point x="611" y="-15"/>
      <point x="401" y="-15" type="curve" smooth="yes"/>
      <point x="191" y="-15"/>
      <point x="38" y="141"/>
    </contour>
    <contour>
      <point x="539" y="925" type="line"/>
      <point x="359" y="775" type="line"/>
      <point x="298" y="810" type="line"/>
      <point x="448" y="970" type="line"/>
    </contour>
  </outline>
</glyph>
<glyph name="Odieresis" format="1">
  <advance width="802"/>
  <unicode hex="00D6"/>
  <outline>
    <contour>
      <point x="163" y="350" type="curve" smooth="yes"/>
      <point x="163" y="206"/>
      <point x="262" y="101"/>
      <point x="401" y="101" type="curve" smooth="yes"/>
      <point x="540" y="101"/>
      <point x="639" y="206"/>
      <point x="639" y="350" type="curve" smooth="yes"/>
      <point x="639" y="494"/>
      <point x="541" y="599"/>
      <point x="401" y="599" type="curve" smooth="yes"/>
      <point x="262" y="599"/>
      <point x="163" y="494"/>
    </contour>
    <contour>
      <point x="38" y="350" type="curve" smooth="yes"/>
      <point x="38" y="559"/>
      <point x="193" y="712"/>
      <point x="401" y="712" type="curve" smooth="yes"/>
      <point x="610" y="712"/>
      <point x="765" y="559"/>
      <point x="765" y="350" type="curve" smooth="yes"/>
      <point x="765" y="141"/>
      <point x="611" y="-15"/>
      <point x="401" y="-15" type="curve" smooth="yes"/>
      <point x="191" y="-15"/>
      <point x="38" y="141"/>
    </contour>
    <contour>
      <point x="442" y="838" type="curve" smooth="yes"/>
      <point x="442" y="875"/>
      <point x="472" y="904"/>
      <point x="510" y="904" type="curve" smooth="yes"/>
      <point x="548" y="904"/>
      <point x="578" y="875"/>
      <point x="578" y="838" type="curve" smooth="yes"/>
      <point x="578" y="801"/>
      <point x="548" y="772"/>
      <point x="510" y="772" type="curve" smooth="yes"/>
      <point x="472" y="772"/>
      <point x="442" y="801"/>
    </contour>
    <contour>
      <point x="224" y="838" type="curve" smooth="yes"/>
      <point x="224" y="875"/>
      <point x="254" y="904"/>
      <point x="292" y="904" type="curve" smooth="yes"/>
      <point x="330" y="904"/>
      <point x="361" y="875"/>
      <point x="361" y="838" type="curve" smooth="yes"/>
      <point x="361" y="801"/>
      <point x="330" y="772"/>
      <point x="292" y="772" type="curve" smooth="yes"/>
      <point x="254" y="772"/>
      <point x="224" y="801"/>
    </contour>
  </outline>
</glyph>
<glyph name="multiply" format="2">
  <advance width="596"/>
  <unicode hex="00D7"/>
  <outline>
    <contour>
      <point x="129" y="14" type="line"/>
      <point x="57" y="86" type="line"/>
      <point x="232" y="255" type="line"/>
      <point x="57" y="424" type="line"/>
      <point x="129" y="496" type="line"/>
      <point x="298" y="321" type="line"/>
      <point x="467" y="496" type="line"/>
      <point x="539" y="424" type="line"/>
      <point x="364" y="255" type="line"/>
      <point x="539" y="86" type="line"/>
      <point x="467" y="14" type="line"/>
      <point x="298" y="189" type="line"/>
    </contour>
  </outline>
</glyph>
<glyph name="Oslash" format="2">
  <advance width="790"/>
  <unicode hex="00D8"/>
  <outline>
    <contour>
      <point x="164" y="350" type="curve" smooth="yes"/>
      <point x="164" y="205"/>
      <point x="262" y="101"/>
      <point x="401" y="101" type="curve" smooth="yes"/>
      <point x="540" y="101"/>
      <point x="639" y="205"/>
      <point x="639" y="350" type="curve" smooth="yes"/>
      <point x="639" y="495"/>
      <point x="540" y="599"/>
      <point x="401" y="599" type="curve" smooth="yes"/>
      <point x="262" y="599"/>
      <point x="164" y="495"/>
    </contour>
    <contour>
      <point x="38" y="350" type="curve" smooth="yes"/>
      <point x="38" y="559"/>
      <point x="192" y="712"/>
      <point x="401" y="712" type="curve" smooth="yes"/>
      <point x="610" y="712"/>
      <point x="765" y="559"/>
      <point x="765" y="350" type="curve" smooth="yes"/>
      <point x="765" y="141"/>
      <point x="610" y="-15"/>
      <point x="401" y="-15" type="curve" smooth="yes"/>
      <point x="192" y="-15"/>
      <point x="38" y="141"/>
    </contour>
    <contour>
      <point x="691" y="752" type="line"/>
      <point x="756" y="708" type="line"/>
      <point x="107" y="-52" type="line"/>
      <point x="43" y="-8" type="line"/>
    </contour>
  </outline>
</glyph>
<glyph name="Udieresis" format="1">
  <advance width="656"/>
  <unicode hex="00DC"/>
  <outline>
    <contour>
      <point x="72" y="700" type="line"/>
      <point x="191" y="700" type="line"/>
      <point x="191" y="235" type="line" smooth="yes"/>
      <point x="191" y="149"/>
      <point x="238" y="91"/>
      <point x="328" y="91" type="curve" smooth="yes"/>
      <point x="418" y="91"/>
      <point x="465" y="149"/>
      <point x="465" y="235" type="curve" smooth="yes"/>
      <point x="465" y="700" type="line"/>
      <point x="584" y="700" type="line"/>
      <point x="584" y="230" type="line" smooth="yes"/>
      <point x="584" y="76"/>
      <point x="478" y="-18"/>
      <point x="328" y="-18" type="curve" smooth="yes"/>
      <point x="178" y="-18"/>
      <point x="72" y="76"/>
      <point x="72" y="230" type="curve" smooth="yes"/>
    </contour>
    <contour>
      <point x="376" y="838" type="curve" smooth="yes"/>
      <point x="376" y="875"/>
      <point x="406" y="904"/>
      <point x="444" y="904" type="curve" smooth="yes"/>
      <point x="482" y="904"/>
      <point x="512" y="875"/>
      <point x="512" y="838" type="curve" smooth="yes"/>
      <point x="512" y="801"/>
      <point x="482" y="772"/>
      <point x="444" y="772" type="curve" smooth="yes"/>
      <point x="406" y="772"/>
      <point x="376" y="801"/>
    </contour>
    <contour>
      <point x="144" y="838" type="curve" smooth="yes"/>
      <point x="144" y="875"/>
      <point x="174" y="904"/>
      <point x="212" y="904" type="curve" smooth="yes"/>
      <point x="250" y="904"/>
      <point x="280" y="875"/>
      <point x="280" y="838" type="curve" smooth="yes"/>
      <point x="280" y="801"/>
      <point x="250" y="772"/>
      <point x="212" y="772" type="curve" smooth="yes"/>
      <point x="174" y="772"/>
      <point x="144" y="801"/>
    </contour>
  </outline>
</glyph>
<glyph name="Yacute" format="1">
  <advance width="600"/>
  <unicode hex="00DD"/>
  <outline>
    <contour>
      <point x="442" y="922" type="line"/>
      <point x="262" y="772" type="line"/>
      <point x="202" y="808" type="line"/>
      <point x="352" y="968" type="line"/>
    </contour>
    <contour>
      <point x="463" y="700" type="line"/>
      <point x="598" y="700" type="line"/>
      <point x="360" y="295" type="line"/>
      <point x="360" y="0" type="line"/>
      <point x="240" y="0" type="line"/>
      <point x="240" y="294" type="line"/>
      <point x="2" y="700" type="line"/>
      <point x="138" y="700" type="line"/>
      <point x="300" y="400" type="line"/>
    </contour>
  </outline>
</glyph>
<glyph name="ccedilla" format="2">
  <advance width="483"/>
  <unicode hex="00E7"/>
  <outline>
    <contour>
      <point x="141" y="230" type="curve" smooth="yes"/>
      <point x="141" y="143"/>
      <point x="203" y="84"/>
      <point x="284" y="84" type="curve" smooth="yes"/>
      <point x="350" y="84"/>
      <point x="411" y="117"/>
      <point x="434" y="161" type="curve"/>
      <point x="434" y="42" type="line"/>
      <point x="402" y="9"/>
      <point x="344" y="-10"/>
      <point x="279" y="-10" type="curve" smooth="yes"/>
      <point x="136" y="-10"/>
      <point x="30" y="89"/>
      <point x="30" y="230" type="curve" smooth="yes"/>
      <point x="30" y="371"/>
      <point x="136" y="470"/>
      <point x="279" y="470" type="curve" smooth="yes"/>
      <point x="344" y="470"/>
      <point x="402" y="450"/>
      <point x="434" y="419" type="curve"/>
      <point x="434" y="299" type="line"/>
      <point x="411" y="343"/>
      <point x="348" y="376"/>
      <point x="284" y="376" type="curve" smooth="yes"/>
      <point x="203" y="376"/>
      <point x="141" y="315"/>
    </contour>
    <contour>
      <point x="250" y="60" type="line"/>
      <point x="330" y="58" type="line"/>
      <point x="257" y="-58" type="line"/>
      <point x="263" y="-57"/>
      <point x="270" y="-56"/>
      <point x="277" y="-56" type="curve" smooth="yes"/>
      <point x="313" y="-56"/>
      <point x="357" y="-84"/>
      <point x="357" y="-140" type="curve" smooth="yes"/>
      <point x="357" y="-206"/>
      <point x="299" y="-240"/>
      <point x="241" y="-240" type="curve" smooth="yes"/>
      <point x="196" y="-240"/>
      <point x="166" y="-231"/>
      <point x="130" y="-202" type="curve"/>
      <point x="168" y="-150" type="line"/>
      <point x="189" y="-167"/>
      <point x="209" y="-175"/>
      <point x="233" y="-175" type="curve" smooth="yes"/>
      <point x="267" y="-175"/>
      <point x="285" y="-160"/>
      <point x="285" y="-136" type="curve" smooth="yes"/>
      <point x="285" y="-111"/>
      <point x="264" y="-102"/>
      <point x="231" y="-102" type="curve" smooth="yes"/>
      <point x="221" y="-102"/>
      <point x="190" y="-105"/>
      <point x="163" y="-119" type="curve"/>
    </contour>
  </outline>
</glyph>
<glyph name="edieresis" format="2">
  <advance width="538"/>
  <unicode hex="00EB"/>
  <outline>
    <contour>
      <point x="99" y="205" type="line"/>
      <point x="99" y="280" type="line"/>
      <point x="387" y="280" type="line"/>
      <point x="380" y="345"/>
      <point x="343" y="387"/>
      <point x="273" y="387" type="curve" smooth="yes"/>
      <point x="201" y="387"/>
      <point x="146" y="339"/>
      <point x="146" y="258" type="curve"/>
      <point x="144" y="230" type="line"/>
      <point x="144" y="129"/>
      <point x="197" y="79"/>
      <point x="274" y="79" type="curve" smooth="yes"/>
      <point x="336" y="79"/>
      <point x="378" y="107"/>
      <point x="406" y="152" type="curve"/>
      <point x="500" y="115" type="line"/>
      <point x="454" y="40"/>
      <point x="393" y="-10"/>
      <point x="269" y="-10" type="curve" smooth="yes"/>
      <point x="127" y="-10"/>
      <point x="34" y="91"/>
      <point x="34" y="230" type="curve" smooth="yes"/>
      <point x="34" y="247"/>
      <point x="35" y="263"/>
      <point x="38" y="279" type="curve" smooth="yes"/>
      <point x="57" y="392"/>
      <point x="142" y="470"/>
      <point x="274" y="470" type="curve" smooth="yes"/>
      <point x="417" y="470"/>
      <point x="504" y="380"/>
      <point x="504" y="235" type="curve" smooth="yes"/>
      <point x="504" y="227"/>
      <point x="504" y="216"/>
      <point x="503" y="205" type="curve"/>
    </contour>
    <contour>
      <point x="315" y="596" type="curve" smooth="yes"/>
      <point x="315" y="634"/>
      <point x="345" y="662"/>
      <point x="383" y="662" type="curve" smooth="yes"/>
      <point x="421" y="662"/>
      <point x="452" y="634"/>
      <point x="452" y="596" type="curve" smooth="yes"/>
      <point x="452" y="558"/>
      <point x="421" y="530"/>
      <point x="383" y="530" type="curve" smooth="yes"/>
      <point x="345" y="530"/>
      <point x="315" y="558"/>
    </contour>
    <contour>
      <point x="97" y="596" type="curve" smooth="yes"/>
      <point x="97" y="634"/>
      <point x="127" y="662"/>
      <point x="165" y="662" type="curve" smooth="yes"/>
      <point x="203" y="662"/>
      <point x="234" y="634"/>
      <point x="234" y="596" type="curve" smooth="yes"/>
      <point x="234" y="558"/>
      <point x="203" y="530"/>
      <point x="165" y="530" type="curve" smooth="yes"/>
      <point x="127" y="530"/>
      <point x="97" y="558"/>
    </contour>
  </outline>
</glyph>
<glyph name="idieresis" format="2">
  <advance width="266"/>
  <unicode hex="00EF"/>
  <outline>
    <contour>
      <point x="80" y="460" type="line"/>
      <point x="187" y="460" type="line"/>
      <point x="187" y="0" type="line"/>
      <point x="80" y="0" type="line"/>
    </contour>
    <contour>
      <point x="174" y="618" type="curve" smooth="yes"/>
      <point x="174" y="656"/>
      <point x="204" y="684"/>
      <point x="242" y="684" type="curve" smooth="yes"/>
      <point x="280" y="684"/>
      <point x="311" y="656"/>
      <point x="311" y="618" type="curve" smooth="yes"/>
      <point x="311" y="580"/>
      <point x="280" y="552"/>
      <point x="242" y="552" type="curve" smooth="yes"/>
      <point x="204" y="552"/>
      <point x="174" y="580"/>
    </contour>
    <contour>
      <point x="-44" y="618" type="curve" smooth="yes"/>
      <point x="-44" y="656"/>
      <point x="-14" y="684"/>
      <point x="24" y="684" type="curve" smooth="yes"/>
      <point x="62" y="684"/>
      <point x="93" y="656"/>
      <point x="93" y="618" type="curve" smooth="yes"/>
      <point x="93" y="580"/>
      <point x="62" y="552"/>
      <point x="24" y="552" type="curve" smooth="yes"/>
      <point x="-14" y="552"/>
      <point x="-44" y="580"/>
    </contour>
  </outline>
</glyph>
<glyph name="ntilde" format="2">
  <advance width="544"/>
  <unicode hex="00F1"/>
  <outline>
    <contour>
      <point x="178" y="460" type="line"/>
      <point x="178" y="0" type="line"/>
      <point x="69" y="0" type="line"/>
      <point x="69" y="460" type="line"/>
    </contour>
    <contour>
      <point x="365" y="280" type="line" smooth="yes"/>
      <point x="365" y="347"/>
      <point x="339" y="383"/>
      <point x="280" y="383" type="curve" smooth="yes"/>
      <point x="219" y="383"/>
      <point x="178" y="341"/>
      <point x="178" y="280" type="curve"/>
      <point x="144" y="278" type="line"/>
      <point x="144" y="387"/>
      <point x="213" y="470"/>
      <point x="316" y="470" type="curve" smooth="yes"/>
      <point x="419" y="470"/>
      <point x="476" y="409"/>
      <point x="476" y="292" type="curve" smooth="yes"/>
      <point x="476" y="0" type="line"/>
      <point x="365" y="0" type="line"/>
    </contour>
    <contour>
      <point x="96" y="579" type="line"/>
      <point x="106" y="628"/>
      <point x="152" y="666"/>
      <point x="205" y="666" type="curve" smooth="yes"/>
      <point x="271" y="666"/>
      <point x="280" y="617"/>
      <point x="335" y="617" type="curve" smooth="yes"/>
      <point x="356" y="617"/>
      <point x="375" y="635"/>
      <point x="395" y="667" type="curve"/>
      <point x="451" y="611" type="line"/>
      <point x="435" y="574"/>
      <point x="388" y="533"/>
      <point x="333" y="533" type="curve" smooth="yes"/>
      <point x="278" y="533"/>
      <point x="251" y="583"/>
      <point x="204" y="583" type="curve" smooth="yes"/>
      <point x="164" y="583"/>
      <point x="156" y="547"/>
      <point x="156" y="532" type="curve"/>
    </contour>
  </outline>
</glyph>
<glyph name="oacute" format="2">
  <advance width="563"/>
  <unicode hex="00F3"/>
  <outline>
    <contour>
      <point x="34" y="230" type="curve" smooth="yes"/>
      <point x="34" y="371"/>
      <point x="141" y="470"/>
      <point x="282" y="470" type="curve" smooth="yes"/>
      <point x="423" y="470"/>
      <point x="530" y="371"/>
      <point x="530" y="230" type="curve" smooth="yes"/>
      <point x="530" y="89"/>
      <point x="423" y="-10"/>
      <point x="282" y="-10" type="curve" smooth="yes"/>
      <point x="141" y="-10"/>
      <point x="34" y="89"/>
    </contour>
    <contour>
      <point x="145" y="230" type="curve" smooth="yes"/>
      <point x="145" y="144"/>
      <point x="205" y="85"/>
      <point x="282" y="85" type="curve" smooth="yes"/>
      <point x="359" y="85"/>
      <point x="419" y="144"/>
      <point x="419" y="230" type="curve" smooth="yes"/>
      <point x="419" y="316"/>
      <point x="359" y="375"/>
      <point x="282" y="375" type="curve" smooth="yes"/>
      <point x="205" y="375"/>
      <point x="145" y="316"/>
    </contour>
    <contour>
      <point x="442" y="695" type="line"/>
      <point x="262" y="545" type="line"/>
      <point x="200" y="580" type="line"/>
      <point x="350" y="740" type="line"/>
    </contour>
  </outline>
</glyph>
<glyph name="otilde" format="1">
  <advance width="563"/>
  <unicode hex="00F5"/>
  <outline>
    <contour>
      <point x="34" y="230" type="curve" smooth="yes"/>
      <point x="34" y="372"/>
      <point x="141" y="470"/>
      <point x="282" y="470" type="curve" smooth="yes"/>
      <point x="423" y="470"/>
      <point x="530" y="372"/>
      <point x="530" y="230" type="curve" smooth="yes"/>
      <point x="530" y="88"/>
      <point x="423" y="-10"/>
      <point x="282" y="-10" type="curve" smooth="yes"/>
      <point x="141" y="-10"/>
      <point x="34" y="88"/>
    </contour>
    <contour>
      <point x="145" y="230" type="curve" smooth="yes"/>
      <point x="145" y="144"/>
      <point x="204" y="85"/>
      <point x="282" y="85" type="curve" smooth="yes"/>
      <point x="360" y="85"/>
      <point x="419" y="144"/>
      <point x="419" y="230" type="curve" smooth="yes"/>
      <point x="419" y="316"/>
      <point x="360" y="375"/>
      <point x="282" y="375" type="curve" smooth="yes"/>
      <point x="204" y="375"/>
      <point x="145" y="316"/>
    </contour>
    <contour>
      <point x="104" y="579" type="line"/>
      <point x="114" y="628"/>
      <point x="162" y="666"/>
      <point x="214" y="666" type="curve" smooth="yes"/>
      <point x="280" y="666"/>
      <point x="289" y="617"/>
      <point x="344" y="617" type="curve" smooth="yes"/>
      <point x="366" y="617"/>
      <point x="383" y="635"/>
      <point x="403" y="667" type="curve"/>
      <point x="459" y="611" type="line"/>
      <point x="443" y="574"/>
      <point x="397" y="533"/>
      <point x="342" y="533" type="curve" smooth="yes"/>
      <point x="287" y="533"/>
      <point x="261" y="583"/>
      <point x="214" y="583" type="curve" smooth="yes"/>
      <point x="174" y="583"/>
      <point x="165" y="547"/>
      <point x="165" y="532" type="curve"/>
    </contour>
  </outline>
</glyph>
<glyph name="odieresis" format="1">
  <advance width="563"/>
  <unicode hex="00F6"/>
  <outline>
    <contour>
      <point x="34" y="230" type="curve" smooth="yes"/>
      <point x="34" y="372"/>
      <point x="141" y="470"/>
      <point x="282" y="470" type="curve" smooth="yes"/>
      <point x="423" y="470"/>
      <point x="530" y="372"/>
      <point x="530" y="230" type="curve" smooth="yes"/>
      <point x="530" y="88"/>
      <point x="423" y="-10"/>
      <point x="282" y="-10" type="curve" smooth="yes"/>
      <point x="141" y="-10"/>
      <point x="34" y="88"/>
    </contour>
    <contour>
      <point x="145" y="230" type="curve" smooth="yes"/>
      <point x="145" y="144"/>
      <point x="204" y="85"/>
      <point x="282" y="85" type="curve" smooth="yes"/>
      <point x="360" y="85"/>
      <point x="419" y="144"/>
      <point x="419" y="230" type="curve" smooth="yes"/>
      <point x="419" y="316"/>
      <point x="360" y="375"/>
      <point x="282" y="375" type="curve" smooth="yes"/>
      <point x="204" y="375"/>
      <point x="145" y="316"/>
    </contour>
    <contour>
      <point x="322" y="618" type="curve" smooth="yes"/>
      <point x="322" y="655"/>
      <point x="352" y="684"/>
      <point x="390" y="684" type="curve" smooth="yes"/>
      <point x="428" y="684"/>
      <point x="459" y="655"/>
      <point x="459" y="618" type="curve" smooth="yes"/>
      <point x="459" y="581"/>
      <point x="428" y="553"/>
      <point x="390" y="553" type="curve" smooth="yes"/>
      <point x="352" y="553"/>
      <point x="322" y="581"/>
    </contour>
    <contour>
      <point x="105" y="618" type="curve" smooth="yes"/>
      <point x="105" y="655"/>
      <point x="135" y="684"/>
      <point x="173" y="684" type="curve" smooth="yes"/>
      <point x="211" y="684"/>
      <point x="241" y="655"/>
      <point x="241" y="618" type="curve" smooth="yes"/>
      <point x="241" y="581"/>
      <point x="211" y="553"/>
      <point x="173" y="553" type="curve" smooth="yes"/>
      <point x="135" y="553"/>
      <point x="105" y="581"/>
    </contour>
  </outline>
</glyph>
<glyph name="divide" format="2">
  <advance width="629"/>
  <unicode hex="00F7"/>
  <outline>
    <contour>
      <point x="243" y="491" type="curve" smooth="yes"/>
      <point x="243" y="529"/>
      <point x="273" y="561"/>
      <point x="313" y="561" type="curve" smooth="yes"/>
      <point x="353" y="561"/>
      <point x="385" y="529"/>
      <point x="385" y="491" type="curve" smooth="yes"/>
      <point x="385" y="453"/>
      <point x="353" y="421"/>
      <point x="313" y="421" type="curve" smooth="yes"/>
      <point x="273" y="421"/>
      <point x="243" y="453"/>
    </contour>
    <contour>
      <point x="243" y="81" type="curve" smooth="yes"/>
      <point x="243" y="119"/>
      <point x="273" y="151"/>
      <point x="313" y="151" type="curve" smooth="yes"/>
      <point x="353" y="151"/>
      <point x="385" y="119"/>
      <point x="385" y="81" type="curve" smooth="yes"/>
      <point x="385" y="43"/>
      <point x="353" y="12"/>
      <point x="313" y="12" type="curve" smooth="yes"/>
      <point x="273" y="12"/>
      <point x="243" y="43"/>
    </contour>
    <contour>
      <point x="46" y="239" type="line"/>
      <point x="46" y="342" type="line"/>
      <point x="581" y="342" type="line"/>
      <point x="581" y="239" type="line"/>
    </contour>
  </outline>
</glyph>
<glyph name="oslash" format="2">
  <advance width="546"/>
  <unicode hex="00F8"/>
  <outline>
    <contour>
      <point x="34" y="230" type="curve" smooth="yes"/>
      <point x="34" y="374"/>
      <point x="142" y="470"/>
      <point x="282" y="470" type="curve" smooth="yes"/>
      <point x="422" y="470"/>
      <point x="530" y="374"/>
      <point x="530" y="230" type="curve" smooth="yes"/>
      <point x="530" y="86"/>
      <point x="422" y="-10"/>
      <point x="282" y="-10" type="curve" smooth="yes"/>
      <point x="142" y="-10"/>
      <point x="34" y="86"/>
    </contour>
    <contour>
      <point x="140" y="230" type="curve" smooth="yes"/>
      <point x="140" y="142"/>
      <point x="202" y="82"/>
      <point x="282" y="82" type="curve" smooth="yes"/>
      <point x="362" y="82"/>
      <point x="424" y="142"/>
      <point x="424" y="230" type="curve" smooth="yes"/>
      <point x="424" y="316"/>
      <point x="362" y="378"/>
      <point x="282" y="378" type="curve" smooth="yes"/>
      <point x="202" y="378"/>
      <point x="140" y="316"/>
    </contour>
    <contour>
      <point x="446" y="502" type="line"/>
      <point x="496" y="478" type="line"/>
      <point x="106" y="-46" type="line"/>
      <point x="56" y="-22" type="line"/>
    </contour>
  </outline>
</glyph>
<glyph name="udieresis" format="2">
  <advance width="544"/>
  <unicode hex="00FC"/>
  <outline>
    <contour>
      <point x="368" y="0" type="line"/>
      <point x="368" y="460" type="line"/>
      <point x="476" y="460" type="line"/>
      <point x="476" y="0" type="line"/>
    </contour>
    <contour>
      <point x="180" y="180" type="line" smooth="yes"/>
      <point x="180" y="113"/>
      <point x="207" y="77"/>
      <point x="266" y="77" type="curve" smooth="yes"/>
      <point x="327" y="77"/>
      <point x="368" y="119"/>
      <point x="368" y="180" type="curve"/>
      <point x="401" y="182" type="line"/>
      <point x="401" y="73"/>
      <point x="333" y="-10"/>
      <point x="230" y="-10" type="curve" smooth="yes"/>
      <point x="127" y="-10"/>
      <point x="69" y="51"/>
      <point x="69" y="168" type="curve" smooth="yes"/>
      <point x="69" y="460" type="line"/>
      <point x="180" y="460" type="line"/>
    </contour>
    <contour>
      <point x="314" y="611" type="curve" smooth="yes"/>
      <point x="314" y="649"/>
      <point x="343" y="677"/>
      <point x="381" y="677" type="curve" smooth="yes"/>
      <point x="419" y="677"/>
      <point x="450" y="649"/>
      <point x="450" y="611" type="curve" smooth="yes"/>
      <point x="450" y="573"/>
      <point x="419" y="545"/>
      <point x="381" y="545" type="curve" smooth="yes"/>
      <point x="343" y="545"/>
      <point x="314" y="573"/>
    </contour>
    <contour>
      <point x="96" y="611" type="curve" smooth="yes"/>
      <point x="96" y="649"/>
      <point x="126" y="677"/>
      <point x="164" y="677" type="curve" smooth="yes"/>
      <point x="202" y="677"/>
      <point x="232" y="649"/>
      <point x="232" y="611" type="curve" smooth="yes"/>
      <point x="232" y="573"/>
      <point x="202" y="545"/>
      <point x="164" y="545" type="curve" smooth="yes"/>
      <point x="126" y="545"/>
      <point x="96" y="573"/>
    </contour>
  </outline>
</glyph>
<glyph name="Amacron" format="1">
  <advance width="690"/>
  <unicode hex="0100"/>
  <outline>
    <contour>
      <point x="162" y="180" type="line"/>
      <point x="184" y="280" type="line"/>
      <point x="510" y="280" type="line"/>
      <point x="532" y="180" type="line"/>
    </contour>
    <contour>
      <point x="345" y="502" type="line"/>
      <point x="235" y="245" type="line"/>
      <point x="233" y="219" type="line"/>
      <point x="136" y="0" type="line"/>
      <point x="2" y="0" type="line"/>
      <point x="345" y="739" type="line"/>
      <point x="688" y="0" type="line"/>
      <point x="554" y="0" type="line"/>
      <point x="459" y="213" type="line"/>
      <point x="456" y="242" type="line"/>
    </contour>
    <contour>
      <point x="166" y="799" type="line"/>
      <point x="166" y="896" type="line"/>
      <point x="524" y="896" type="line"/>
      <point x="524" y="799" type="line"/>
    </contour>
  </outline>
</glyph>
<glyph name="Abreve" format="1">
  <advance width="690"/>
  <unicode hex="0102"/>
  <outline>
    <contour>
      <point x="162" y="180" type="line"/>
      <point x="184" y="280" type="line"/>
      <point x="510" y="280" type="line"/>
      <point x="532" y="180" type="line"/>
    </contour>
    <contour>
      <point x="345" y="502" type="line"/>
      <point x="235" y="245" type="line"/>
      <point x="233" y="219" type="line"/>
      <point x="136" y="0" type="line"/>
      <point x="2" y="0" type="line"/>
      <point x="345" y="739" type="line"/>
      <point x="688" y="0" type="line"/>
      <point x="554" y="0" type="line"/>
      <point x="459" y="213" type="line"/>
      <point x="456" y="242" type="line"/>
    </contour>
    <contour>
      <point x="184" y="941" type="curve"/>
      <point x="267" y="941" type="line"/>
      <point x="267" y="911"/>
      <point x="287" y="872"/>
      <point x="345" y="872" type="curve" smooth="yes"/>
      <point x="403" y="872"/>
      <point x="423" y="911"/>
      <point x="423" y="941" type="curve"/>
      <point x="506" y="941" type="line"/>
      <point x="506" y="867"/>
      <point x="450" y="799"/>
      <point x="345" y="799" type="curve" smooth="yes"/>
      <point x="240" y="799"/>
      <point x="184" y="867"/>
    </contour>
  </outline>
</glyph>
<glyph name="Aogonek" format="1">
  <advance width="690"/>
  <unicode hex="0104"/>
  <outline>
    <contour>
      <point x="162" y="180" type="line"/>
      <point x="184" y="280" type="line"/>
      <point x="510" y="280" type="line"/>
      <point x="532" y="180" type="line"/>
    </contour>
    <contour>
      <point x="345" y="502" type="line"/>
      <point x="235" y="245" type="line"/>
      <point x="233" y="219" type="line"/>
      <point x="136" y="0" type="line"/>
      <point x="2" y="0" type="line"/>
      <point x="345" y="739" type="line"/>
      <point x="688" y="0" type="line"/>
      <point x="554" y="0" type="line"/>
      <point x="459" y="213" type="line"/>
      <point x="456" y="242" type="line"/>
    </contour>
    <contour>
      <point x="672" y="-122" type="curve"/>
      <point x="706" y="-180" type="line"/>
      <point x="691" y="-200"/>
      <point x="660" y="-220"/>
      <point x="612" y="-220" type="curve" smooth="yes"/>
      <point x="536" y="-220"/>
      <point x="492" y="-182"/>
      <point x="492" y="-120" type="curve" smooth="yes"/>
      <point x="492" y="-58"/>
      <point x="556" y="-11"/>
      <point x="626" y="25" type="curve"/>
      <point x="668" y="0" type="line"/>
      <point x="616" y="-24"/>
      <point x="580" y="-64"/>
      <point x="580" y="-98" type="curve" smooth="yes"/>
      <point x="580" y="-130"/>
      <point x="594" y="-142"/>
      <point x="622" y="-142" type="curve" smooth="yes"/>
      <point x="646" y="-142"/>
      <point x="658" y="-135"/>
    </contour>
  </outline>
</glyph>
<glyph name="cdotaccent" format="1">
  <advance width="484"/>
  <unicode hex="010B"/>
  <outline>
    <contour>
      <point x="141" y="230" type="curve" smooth="yes"/>
      <point x="141" y="143"/>
      <point x="203" y="83"/>
      <point x="284" y="83" type="curve" smooth="yes"/>
      <point x="350" y="83"/>
      <point x="410" y="117"/>
      <point x="434" y="161" type="curve"/>
      <point x="434" y="42" type="line"/>
      <point x="402" y="9"/>
      <point x="345" y="-10"/>
      <point x="279" y="-10" type="curve" smooth="yes"/>
      <point x="137" y="-10"/>
      <point x="30" y="88"/>
      <point x="30" y="230" type="curve" smooth="yes"/>
      <point x="30" y="372"/>
      <point x="137" y="470"/>
      <point x="279" y="470" type="curve" smooth="yes"/>
      <point x="345" y="470"/>
      <point x="402" y="449"/>
      <point x="434" y="418" type="curve"/>
      <point x="434" y="299" type="line"/>
      <point x="410" y="343"/>
      <point x="348" y="377"/>
      <point x="284" y="377" type="curve" smooth="yes"/>
      <point x="203" y="377"/>
      <point x="141" y="315"/>
    </contour>
    <contour>
      <point x="201" y="598" type="curve" smooth="yes"/>
      <point x="201" y="635"/>
      <point x="231" y="664"/>
      <point x="269" y="664" type="curve" smooth="yes"/>
      <point x="307" y="664"/>
      <point x="338" y="635"/>
      <point x="338" y="598" type="curve" smooth="yes"/>
      <point x="338" y="561"/>
      <point x="307" y="533"/>
      <point x="269" y="533" type="curve" smooth="yes"/>
      <point x="231" y="533"/>
      <point x="201" y="561"/>
    </contour>
  </outline>
</glyph>
<glyph name="Emacron" format="2">
  <advance width="570"/>
  <unicode hex="0112"/>
  <outline>
    <contour>
      <point x="151" y="0" type="line"/>
      <point x="151" y="104" type="line"/>
      <point x="504" y="104" type="line"/>
      <point x="504" y="0" type="line"/>
    </contour>
    <contour>
      <point x="151" y="596" type="line"/>
      <point x="151" y="700" type="line"/>
      <point x="504" y="700" type="line"/>
      <point x="504" y="596" type="line"/>
    </contour>
    <contour>
      <point x="151" y="324" type="line"/>
      <point x="151" y="426" type="line"/>
      <point x="484" y="426" type="line"/>
      <point x="484" y="324" type="line"/>
    </contour>
    <contour>
      <point x="78" y="700" type="line"/>
      <point x="194" y="700" type="line"/>
      <point x="194" y="0" type="line"/>
      <point x="78" y="0" type="line"/>
    </contour>
    <contour>
      <point x="111" y="772" type="line"/>
      <point x="111" y="870" type="line"/>
      <point x="470" y="870" type="line"/>
      <point x="470" y="772" type="line"/>
    </contour>
  </outline>
</glyph>
<glyph name="ebreve" format="2">
  <advance width="538"/>
  <unicode hex="0115"/>
  <outline>
    <contour>
      <point x="99" y="205" type="line"/>
      <point x="99" y="280" type="line"/>
      <point x="387" y="280" type="line"/>
      <point x="380" y="345"/>
      <point x="343" y="387"/>
      <point x="273" y="387" type="curve" smooth="yes"/>
      <point x="201" y="387"/>
      <point x="146" y="339"/>
      <point x="146" y="258" type="curve"/>
      <point x="144" y="230" type="line"/>
      <point x="144" y="129"/>
      <point x="197" y="79"/>
      <point x="274" y="79" type="curve" smooth="yes"/>
      <point x="336" y="79"/>
      <point x="378" y="107"/>
      <point x="406" y="152" type="curve"/>
      <point x="500" y="115" type="line"/>
      <point x="454" y="40"/>
      <point x="393" y="-10"/>
      <point x="269" y="-10" type="curve" smooth="yes"/>
      <point x="127" y="-10"/>
      <point x="34" y="91"/>
      <point x="34" y="230" type="curve" smooth="yes"/>
      <point x="34" y="247"/>
      <point x="35" y="263"/>
      <point x="38" y="279" type="curve" smooth="yes"/>
      <point x="57" y="392"/>
      <point x="142" y="470"/>
      <point x="274" y="470" type="curve" smooth="yes"/>
      <point x="417" y="470"/>
      <point x="504" y="380"/>
      <point x="504" y="235" type="curve" smooth="yes"/>
      <point x="504" y="227"/>
      <point x="504" y="216"/>
      <point x="503" y="205" type="curve"/>
    </contour>
    <contour>
      <point x="114" y="673" type="curve"/>
      <point x="196" y="673" type="line"/>
      <point x="196" y="644"/>
      <point x="217" y="604"/>
      <point x="274" y="604" type="curve" smooth="yes"/>
      <point x="331" y="604"/>
      <point x="352" y="644"/>
      <point x="352" y="673" type="curve"/>
      <point x="435" y="673" type="line"/>
      <point x="435" y="599"/>
      <point x="379" y="530"/>
      <point x="274" y="530" type="curve" smooth="yes"/>
      <point x="169" y="530"/>
      <point x="114" y="599"/>
    </contour>
  </outline>
</glyph>
<glyph name="Edotaccent" format="2">
  <advance width="570"/>
  <unicode hex="0116"/>
  <outline>
    <contour>
      <point x="151" y="0" type="line"/>
      <point x="151" y="104" type="line"/>
      <point x="504" y="104" type="line"/>
      <point x="504" y="0" type="line"/>
    </contour>
    <contour>
      <point x="151" y="596" type="line"/>
      <point x="151" y="700" type="line"/>
      <point x="504" y="700" type="line"/>
      <point x="504" y="596" type="line"/>
    </contour>
    <contour>
      <point x="151" y="324" type="line"/>
      <point x="151" y="426" type="line"/>
      <point x="484" y="426" type="line"/>
      <point x="484" y="324" type="line"/>
    </contour>
    <contour>
      <point x="78" y="700" type="line"/>
      <point x="194" y="700" type="line"/>
      <point x="194" y="0" type="line"/>
      <point x="78" y="0" type="line"/>
    </contour>
    <contour>
      <point x="222" y="838" type="curve" smooth="yes"/>
      <point x="222" y="876"/>
      <point x="252" y="904"/>
      <point x="290" y="904" type="curve" smooth="yes"/>
      <point x="328" y="904"/>
      <point x="359" y="876"/>
      <point x="359" y="838" type="curve" smooth="yes"/>
      <point x="359" y="800"/>
      <point x="328" y="772"/>
      <point x="290" y="772" type="curve" smooth="yes"/>
      <point x="252" y="772"/>
      <point x="222" y="800"/>
    </contour>
  </outline>
</glyph>
<glyph name="Eogonek" format="2">
  <advance width="570"/>
  <unicode hex="0118"/>
  <outline>
    <contour>
      <point x="151" y="0" type="line"/>
      <point x="151" y="104" type="line"/>
      <point x="504" y="104" type="line"/>
      <point x="504" y="0" type="line"/>
    </contour>
    <contour>
      <point x="151" y="596" type="line"/>
      <point x="151" y="700" type="line"/>
      <point x="504" y="700" type="line"/>
      <point x="504" y="596" type="line"/>
    </contour>
    <contour>
      <point x="151" y="324" type="line"/>
      <point x="151" y="426" type="line"/>
      <point x="484" y="426" type="line"/>
      <point x="484" y="324" type="line"/>
    </contour>
    <contour>
      <point x="78" y="700" type="line"/>
      <point x="194" y="700" type="line"/>
      <point x="194" y="0" type="line"/>
      <point x="78" y="0" type="line"/>
    </contour>
    <contour>
      <point x="379" y="-122" type="curve"/>
      <point x="412" y="-180" type="line"/>
      <point x="397" y="-200"/>
      <point x="367" y="-220"/>
      <point x="319" y="-220" type="curve" smooth="yes"/>
      <point x="243" y="-220"/>
      <point x="198" y="-181"/>
      <point x="198" y="-120" type="curve" smooth="yes"/>
      <point x="198" y="-59"/>
      <point x="263" y="-11"/>
      <point x="333" y="25" type="curve"/>
      <point x="374" y="0" type="line"/>
      <point x="322" y="-24"/>
      <point x="286" y="-63"/>
      <point x="286" y="-98" type="curve" smooth="yes"/>
      <point x="286" y="-129"/>
      <point x="301" y="-142"/>
      <point x="329" y="-142" type="curve" smooth="yes"/>
      <point x="353" y="-142"/>
      <point x="365" y="-135"/>
    </contour>
  </outline>
</glyph>
<glyph name="eogonek" format="2">
  <advance width="538"/>
  <unicode hex="0119"/>
  <outline>
    <contour>
      <point x="99" y="205" type="line"/>
      <point x="99" y="280" type="line"/>
      <point x="387" y="280" type="line"/>
      <point x="380" y="345"/>
      <point x="343" y="387"/>
      <point x="273" y="387" type="curve" smooth="yes"/>
      <point x="201" y="387"/>
      <point x="146" y="339"/>
      <point x="146" y="258" type="curve"/>
      <point x="144" y="230" type="line"/>
      <point x="144" y="129"/>
      <point x="197" y="79"/>
      <point x="274" y="79" type="curve" smooth="yes"/>
      <point x="336" y="79"/>
      <point x="378" y="107"/>
      <point x="406" y="152" type="curve"/>
      <point x="500" y="115" type="line"/>
      <point x="454" y="40"/>
      <point x="393" y="-10"/>
      <point x="269" y="-10" type="curve" smooth="yes"/>
      <point x="127" y="-10"/>
      <point x="34" y="91"/>
      <point x="34" y="230" type="curve" smooth="yes"/>
      <point x="34" y="247"/>
      <point x="35" y="263"/>
      <point x="38" y="279" type="curve" smooth="yes"/>
      <point x="57" y="392"/>
      <point x="142" y="470"/>
      <point x="274" y="470" type="curve" smooth="yes"/>
      <point x="417" y="470"/>
      <point x="504" y="380"/>
      <point x="504" y="235" type="curve" smooth="yes"/>
      <point x="504" y="227"/>
      <point x="504" y="216"/>
      <point x="503" y="205" type="curve"/>
    </contour>
    <contour>
      <point x="310" y="-120" type="curve"/>
      <point x="343" y="-178" type="line"/>
      <point x="328" y="-198"/>
      <point x="298" y="-218"/>
      <point x="250" y="-218" type="curve" smooth="yes"/>
      <point x="174" y="-218"/>
      <point x="130" y="-179"/>
      <point x="130" y="-118" type="curve" smooth="yes"/>
      <point x="130" y="-57"/>
      <point x="194" y="-9"/>
      <point x="264" y="27" type="curve"/>
      <point x="305" y="2" type="line"/>
      <point x="253" y="-22"/>
      <point x="217" y="-60"/>
      <point x="217" y="-95" type="curve" smooth="yes"/>
      <point x="217" y="-126"/>
      <point x="232" y="-140"/>
      <point x="260" y="-140" type="curve" smooth="yes"/>
      <point x="284" y="-140"/>
      <point x="296" y="-133"/>
    </contour>
  </outline>
</glyph>
<glyph name="gcircumflex" format="2">
  <advance width="586"/>
  <unicode hex="011D"/>
  <outline>
    <contour>
      <point x="43" y="-31" type="curve"/>
      <point x="151" y="-31" type="line"/>
      <point x="153" y="-94"/>
      <point x="204" y="-140"/>
      <point x="281" y="-140" type="curve" smooth="yes"/>
      <point x="349" y="-140"/>
      <point x="415" y="-93"/>
      <point x="415" y="10" type="curve" smooth="yes"/>
      <point x="415" y="460" type="line"/>
      <point x="521" y="460" type="line"/>
      <point x="521" y="10" type="line" smooth="yes"/>
      <point x="521" y="-157"/>
      <point x="408" y="-233"/>
      <point x="283" y="-233" type="curve" smooth="yes"/>
      <point x="133" y="-233"/>
      <point x="48" y="-151"/>
    </contour>
    <contour>
      <point x="34" y="232" type="curve" smooth="yes"/>
      <point x="34" y="383"/>
      <point x="138" y="470"/>
      <point x="258" y="470" type="curve" smooth="yes"/>
      <point x="373" y="470"/>
      <point x="454" y="381"/>
      <point x="454" y="232" type="curve" smooth="yes"/>
      <point x="454" y="83"/>
      <point x="373" y="-5"/>
      <point x="258" y="-5" type="curve" smooth="yes"/>
      <point x="138" y="-5"/>
      <point x="34" y="81"/>
    </contour>
    <contour>
      <point x="146" y="232" type="curve" smooth="yes"/>
      <point x="146" y="140"/>
      <point x="209" y="89"/>
      <point x="284" y="89" type="curve" smooth="yes"/>
      <point x="346" y="89"/>
      <point x="415" y="139"/>
      <point x="415" y="232" type="curve" smooth="yes"/>
      <point x="415" y="325"/>
      <point x="346" y="376"/>
      <point x="284" y="376" type="curve" smooth="yes"/>
      <point x="209" y="376"/>
      <point x="146" y="324"/>
    </contour>
    <contour>
      <point x="286" y="622" type="line"/>
      <point x="183" y="530" type="line"/>
      <point x="111" y="583" type="line"/>
      <point x="286" y="723" type="line"/>
      <point x="461" y="583" type="line"/>
      <point x="388" y="530" type="line"/>
    </contour>
  </outline>
</glyph>
<glyph name="gdotaccent" format="1">
  <advance width="586"/>
  <unicode hex="0121"/>
  <outline>
    <contour>
      <point x="43" y="-31" type="curve"/>
      <point x="150" y="-31" type="line"/>
      <point x="152" y="-93"/>
      <point x="202" y="-140"/>
      <point x="280" y="-140" type="curve" smooth="yes"/>
      <point x="348" y="-140"/>
      <point x="415" y="-94"/>
      <point x="415" y="10" type="curve" smooth="yes"/>
      <point x="415" y="460" type="line"/>
      <point x="521" y="460" type="line"/>
      <point x="521" y="10" type="line" smooth="yes"/>
      <point x="521" y="-156"/>
      <point x="408" y="-234"/>
      <point x="283" y="-234" type="curve" smooth="yes"/>
      <point x="133" y="-234"/>
      <point x="47" y="-151"/>
    </contour>
    <contour>
      <point x="34" y="232" type="curve" smooth="yes"/>
      <point x="34" y="384"/>
      <point x="138" y="470"/>
      <point x="258" y="470" type="curve" smooth="yes"/>
      <point x="373" y="470"/>
      <point x="454" y="381"/>
      <point x="454" y="232" type="curve" smooth="yes"/>
      <point x="454" y="83"/>
      <point x="373" y="-5"/>
      <point x="258" y="-5" type="curve" smooth="yes"/>
      <point x="138" y="-5"/>
      <point x="34" y="80"/>
    </contour>
    <contour>
      <point x="146" y="232" type="curve" smooth="yes"/>
      <point x="146" y="140"/>
      <point x="209" y="89"/>
      <point x="284" y="89" type="curve" smooth="yes"/>
      <point x="346" y="89"/>
      <point x="415" y="138"/>
      <point x="415" y="232" type="curve" smooth="yes"/>
      <point x="415" y="326"/>
      <point x="346" y="376"/>
      <point x="284" y="376" type="curve" smooth="yes"/>
      <point x="209" y="376"/>
      <point x="146" y="324"/>
    </contour>
    <contour>
      <point x="225" y="626" type="curve" smooth="yes"/>
      <point x="225" y="663"/>
      <point x="255" y="692"/>
      <point x="293" y="692" type="curve" smooth="yes"/>
      <point x="331" y="692"/>
      <point x="361" y="663"/>
      <point x="361" y="626" type="curve" smooth="yes"/>
      <point x="361" y="589"/>
      <point x="331" y="560"/>
      <point x="293" y="560" type="curve" smooth="yes"/>
      <point x="255" y="560"/>
      <point x="225" y="589"/>
    </contour>
  </outline>
</glyph>
<glyph name="uni0123" format="2">
  <advance width="570"/>
  <unicode hex="0123"/>
  <outline>
    <contour>
      <point x="43" y="-31" type="curve"/>
      <point x="151" y="-31" type="line"/>
      <point x="153" y="-94"/>
      <point x="204" y="-140"/>
      <point x="281" y="-140" type="curve" smooth="yes"/>
      <point x="349" y="-140"/>
      <point x="415" y="-93"/>
      <point x="415" y="10" type="curve" smooth="yes"/>
      <point x="415" y="460" type="line"/>
      <point x="521" y="460" type="line"/>
      <point x="521" y="10" type="line" smooth="yes"/>
      <point x="521" y="-157"/>
      <point x="408" y="-233"/>
      <point x="283" y="-233" type="curve" smooth="yes"/>
      <point x="133" y="-233"/>
      <point x="48" y="-151"/>
    </contour>
    <contour>
      <point x="34" y="232" type="curve" smooth="yes"/>
      <point x="34" y="383"/>
      <point x="138" y="470"/>
      <point x="258" y="470" type="curve" smooth="yes"/>
      <point x="373" y="470"/>
      <point x="454" y="381"/>
      <point x="454" y="232" type="curve" smooth="yes"/>
      <point x="454" y="83"/>
      <point x="373" y="-5"/>
      <point x="258" y="-5" type="curve" smooth="yes"/>
      <point x="138" y="-5"/>
      <point x="34" y="81"/>
    </contour>
    <contour>
      <point x="146" y="232" type="curve" smooth="yes"/>
      <point x="146" y="140"/>
      <point x="209" y="89"/>
      <point x="284" y="89" type="curve" smooth="yes"/>
      <point x="346" y="89"/>
      <point x="415" y="139"/>
      <point x="415" y="232" type="curve" smooth="yes"/>
      <point x="415" y="325"/>
      <point x="346" y="376"/>
      <point x="284" y="376" type="curve" smooth="yes"/>
      <point x="209" y="376"/>
      <point x="146" y="324"/>
    </contour>
    <contour>
      <point x="293" y="544" type="line"/>
      <point x="190" y="591" type="line"/>
      <point x="344" y="821" type="line"/>
      <point x="420" y="786" type="line"/>
    </contour>
  </outline>
</glyph>
<glyph name="Hcircumflex" format="2">
  <advance width="743"/>
  <unicode hex="0124"/>
  <outline>
    <contour>
      <point x="125" y="321" type="line"/>
      <point x="125" y="430" type="line"/>
      <point x="624" y="430" type="line"/>
      <point x="624" y="321" type="line"/>
    </contour>
    <contour>
      <point x="548" y="700" type="line"/>
      <point x="666" y="700" type="line"/>
      <point x="666" y="0" type="line"/>
      <point x="548" y="0" type="line"/>
    </contour>
    <contour>
      <point x="78" y="700" type="line"/>
      <point x="196" y="700" type="line"/>
      <point x="196" y="0" type="line"/>
      <point x="78" y="0" type="line"/>
    </contour>
    <contour>
      <point x="372" y="864" type="line"/>
      <point x="270" y="772" type="line"/>
      <point x="197" y="825" type="line"/>
      <point x="372" y="965" type="line"/>
      <point x="548" y="825" type="line"/>
      <point x="475" y="772" type="line"/>
    </contour>
  </outline>
</glyph>
<glyph name="Itilde" format="2">
  <advance width="274"/>
  <unicode hex="0128"/>
  <outline>
    <contour>
      <point x="78" y="700" type="line"/>
      <point x="197" y="700" type="line"/>
      <point x="197" y="0" type="line"/>
      <point x="78" y="0" type="line"/>
    </contour>
    <contour>
      <point x="-40" y="821" type="line"/>
      <point x="-30" y="870"/>
      <point x="18" y="908"/>
      <point x="71" y="908" type="curve" smooth="yes"/>
      <point x="137" y="908"/>
      <point x="144" y="859"/>
      <point x="199" y="859" type="curve" smooth="yes"/>
      <point x="220" y="859"/>
      <point x="239" y="877"/>
      <point x="259" y="909" type="curve"/>
      <point x="316" y="853" type="line"/>
      <point x="300" y="816"/>
      <point x="253" y="776"/>
      <point x="198" y="776" type="curve" smooth="yes"/>
      <point x="143" y="776"/>
      <point x="117" y="825"/>
      <point x="70" y="825" type="curve" smooth="yes"/>
      <point x="30" y="825"/>
      <point x="21" y="789"/>
      <point x="21" y="774" type="curve"/>
    </contour>
  </outline>
</glyph>
<glyph name="itilde" format="2">
  <advance width="266"/>
  <unicode hex="0129"/>
  <outline>
    <contour>
      <point x="80" y="460" type="line"/>
      <point x="187" y="460" type="line"/>
      <point x="187" y="0" type="line"/>
      <point x="80" y="0" type="line"/>
    </contour>
    <contour>
      <point x="-44" y="579" type="line"/>
      <point x="-34" y="628"/>
      <point x="13" y="666"/>
      <point x="66" y="666" type="curve" smooth="yes"/>
      <point x="132" y="666"/>
      <point x="140" y="617"/>
      <point x="195" y="617" type="curve" smooth="yes"/>
      <point x="216" y="617"/>
      <point x="235" y="635"/>
      <point x="255" y="667" type="curve"/>
      <point x="311" y="611" type="line"/>
      <point x="295" y="574"/>
      <point x="248" y="533"/>
      <point x="193" y="533" type="curve" smooth="yes"/>
      <point x="138" y="533"/>
      <point x="112" y="583"/>
      <point x="65" y="583" type="curve" smooth="yes"/>
      <point x="25" y="583"/>
      <point x="16" y="547"/>
      <point x="16" y="532" type="curve"/>
    </contour>
  </outline>
</glyph>
<glyph name="Iogonek" format="1">
  <advance width="275"/>
  <unicode hex="012E"/>
  <outline>
    <contour>
      <point x="78" y="700" type="line"/>
      <point x="198" y="700" type="line"/>
      <point x="198" y="0" type="line"/>
      <point x="78" y="0" type="line"/>
    </contour>
    <contour>
      <point x="192" y="-122" type="curve"/>
      <point x="225" y="-179" type="line"/>
      <point x="210" y="-199"/>
      <point x="180" y="-219"/>
      <point x="132" y="-219" type="curve" smooth="yes"/>
      <point x="56" y="-219"/>
      <point x="12" y="-181"/>
      <point x="12" y="-119" type="curve" smooth="yes"/>
      <point x="12" y="-57"/>
      <point x="76" y="-10"/>
      <point x="146" y="26" type="curve"/>
      <point x="187" y="1" type="line"/>
      <point x="135" y="-23"/>
      <point x="99" y="-63"/>
      <point x="99" y="-97" type="curve" smooth="yes"/>
      <point x="99" y="-129"/>
      <point x="114" y="-142"/>
      <point x="142" y="-142" type="curve" smooth="yes"/>
      <point x="166" y="-142"/>
      <point x="178" y="-135"/>
    </contour>
  </outline>
</glyph>
<glyph name="iogonek" format="1">
  <advance width="266"/>
  <unicode hex="012F"/>
  <outline>
    <contour>
      <point x="65" y="643" type="curve" smooth="yes"/>
      <point x="65" y="680"/>
      <point x="95" y="709"/>
      <point x="133" y="709" type="curve" smooth="yes"/>
      <point x="171" y="709"/>
      <point x="202" y="680"/>
      <point x="202" y="643" type="curve" smooth="yes"/>
      <point x="202" y="606"/>
      <point x="171" y="577"/>
      <point x="133" y="577" type="curve" smooth="yes"/>
      <point x="95" y="577"/>
      <point x="65" y="606"/>
    </contour>
    <contour>
      <point x="80" y="460" type="line"/>
      <point x="186" y="460" type="line"/>
      <point x="186" y="0" type="line"/>
      <point x="80" y="0" type="line"/>
    </contour>
    <contour>
      <point x="181" y="-122" type="curve"/>
      <point x="214" y="-180" type="line"/>
      <point x="199" y="-200"/>
      <point x="169" y="-220"/>
      <point x="121" y="-220" type="curve" smooth="yes"/>
      <point x="45" y="-220"/>
      <point x="1" y="-182"/>
      <point x="1" y="-120" type="curve" smooth="yes"/>
      <point x="1" y="-58"/>
      <point x="65" y="-11"/>
      <point x="135" y="25" type="curve"/>
      <point x="176" y="0" type="line"/>
      <point x="124" y="-24"/>
      <point x="88" y="-64"/>
      <point x="88" y="-98" type="curve" smooth="yes"/>
      <point x="88" y="-130"/>
      <point x="103" y="-142"/>
      <point x="131" y="-142" type="curve" smooth="yes"/>
      <point x="155" y="-142"/>
      <point x="167" y="-135"/>
    </contour>
  </outline>
</glyph>
<glyph name="Jcircumflex" format="2">
  <advance width="275"/>
  <unicode hex="0134"/>
  <outline>
    <contour>
      <point x="-69" y="-88" type="line"/>
      <point x="-53" y="-109"/>
      <point x="-23" y="-123"/>
      <point x="11" y="-123" type="curve" smooth="yes"/>
      <point x="41" y="-123"/>
      <point x="78" y="-100"/>
      <point x="78" y="-36" type="curve" smooth="yes"/>
      <point x="78" y="700" type="line"/>
      <point x="199" y="700" type="line"/>
      <point x="199" y="-58" type="line" smooth="yes"/>
      <point x="199" y="-177"/>
      <point x="122" y="-228"/>
      <point x="15" y="-228" type="curve" smooth="yes"/>
      <point x="-48" y="-228"/>
      <point x="-107" y="-197"/>
      <point x="-132" y="-175" type="curve"/>
    </contour>
    <contour>
      <point x="138" y="864" type="line"/>
      <point x="36" y="772" type="line"/>
      <point x="-37" y="825" type="line"/>
      <point x="138" y="965" type="line"/>
      <point x="313" y="825" type="line"/>
      <point x="240" y="772" type="line"/>
    </contour>
  </outline>
</glyph>
<glyph name="uni0136" format="2">
  <advance width="618"/>
  <unicode hex="0136"/>
  <outline>
    <contour>
      <point x="78" y="700" type="line"/>
      <point x="199" y="700" type="line"/>
      <point x="199" y="0" type="line"/>
      <point x="78" y="0" type="line"/>
    </contour>
    <contour>
      <point x="459" y="700" type="line"/>
      <point x="602" y="700" type="line"/>
      <point x="306" y="372" type="line"/>
      <point x="617" y="0" type="line"/>
      <point x="471" y="0" type="line"/>
      <point x="163" y="369" type="line"/>
    </contour>
    <contour>
      <point x="326" y="-60" type="line"/>
      <point x="436" y="-91" type="line"/>
      <point x="319" y="-341" type="line"/>
      <point x="238" y="-319" type="line"/>
    </contour>
  </outline>
</glyph>
<glyph name="kgreenlandic" format="1">
  <advance width="495"/>
  <unicode hex="0138"/>
  <outline>
    <contour>
      <point x="65" y="460" type="line"/>
      <point x="171" y="460" type="line"/>
      <point x="171" y="0" type="line"/>
      <point x="65" y="0" type="line"/>
    </contour>
    <contour>
      <point x="340" y="460" type="line"/>
      <point x="472" y="460" type="line"/>
      <point x="274" y="270" type="line"/>
      <point x="492" y="0" type="line"/>
      <point x="361" y="0" type="line"/>
      <point x="142" y="270" type="line"/>
    </contour>
  </outline>
</glyph>
<glyph name="Lacute" format="1">
  <advance width="481"/>
  <unicode hex="0139"/>
  <outline>
    <contour>
      <point x="78" y="700" type="line"/>
      <point x="196" y="700" type="line"/>
      <point x="196" y="106" type="line"/>
      <point x="474" y="106" type="line"/>
      <point x="474" y="0" type="line"/>
      <point x="78" y="0" type="line"/>
    </contour>
    <contour>
      <point x="418" y="922" type="line"/>
      <point x="238" y="772" type="line"/>
      <point x="177" y="808" type="line"/>
      <point x="327" y="968" type="line"/>
    </contour>
  </outline>
</glyph>
<glyph name="uni013B" format="1">
  <advance width="481"/>
  <unicode hex="013B"/>
  <outline>
    <contour>
      <point x="78" y="700" type="line"/>
      <point x="196" y="700" type="line"/>
      <point x="196" y="106" type="line"/>
      <point x="474" y="106" type="line"/>
      <point x="474" y="0" type="line"/>
      <point x="78" y="0" type="line"/>
    </contour>
    <contour>
      <point x="265" y="-60" type="line"/>
      <point x="374" y="-91" type="line"/>
      <point x="258" y="-341" type="line"/>
      <point x="177" y="-319" type="line"/>
    </contour>
  </outline>
</glyph>
<glyph name="uni013C" format="2">
  <advance width="246"/>
  <unicode hex="013C"/>
  <outline>
    <contour>
      <point x="69" y="780" type="line"/>
      <point x="178" y="780" type="line"/>
      <point x="178" y="0" type="line"/>
      <point x="69" y="0" type="line"/>
    </contour>
    <contour>
      <point x="113" y="-60" type="line"/>
      <point x="222" y="-91" type="line"/>
      <point x="105" y="-341" type="line"/>
      <point x="25" y="-319" type="line"/>
    </contour>
  </outline>
</glyph>
<glyph name="Lcaron" format="1">
  <advance width="481"/>
  <unicode hex="013D"/>
  <outline>
    <contour>
      <point x="78" y="700" type="line"/>
      <point x="196" y="700" type="line"/>
      <point x="196" y="106" type="line"/>
      <point x="474" y="106" type="line"/>
      <point x="474" y="0" type="line"/>
      <point x="78" y="0" type="line"/>
    </contour>
    <contour>
      <point x="362" y="712" type="line"/>
      <point x="470" y="682" type="line"/>
      <point x="354" y="432" type="line"/>
      <point x="274" y="454" type="line"/>
    </contour>
  </outline>
</glyph>
<glyph name="Ldot" format="1">
  <advance width="481"/>
  <unicode hex="013F"/>
  <outline>
    <contour>
      <point x="78" y="700" type="line"/>
      <point x="196" y="700" type="line"/>
      <point x="196" y="106" type="line"/>
      <point x="474" y="106" type="line"/>
      <point x="474" y="0" type="line"/>
      <point x="78" y="0" type="line"/>
    </contour>
    <contour>
      <point x="282" y="421" type="curve" smooth="yes"/>
      <point x="282" y="459"/>
      <point x="313" y="491"/>
      <point x="353" y="491" type="curve" smooth="yes"/>
      <point x="393" y="491"/>
      <point x="424" y="459"/>
      <point x="424" y="421" type="curve" smooth="yes"/>
      <point x="424" y="383"/>
      <point x="393" y="351"/>
      <point x="353" y="351" type="curve" smooth="yes"/>
      <point x="313" y="351"/>
      <point x="282" y="383"/>
    </contour>
  </outline>
</glyph>
<glyph name="ldot" format="2">
  <advance width="412"/>
  <unicode hex="0140"/>
  <outline>
    <contour>
      <point x="69" y="780" type="line"/>
      <point x="178" y="780" type="line"/>
      <point x="178" y="0" type="line"/>
      <point x="69" y="0" type="line"/>
    </contour>
    <contour>
      <point x="230" y="413" type="curve" smooth="yes"/>
      <point x="230" y="451"/>
      <point x="261" y="483"/>
      <point x="301" y="483" type="curve" smooth="yes"/>
      <point x="341" y="483"/>
      <point x="372" y="451"/>
      <point x="372" y="413" type="curve" smooth="yes"/>
      <point x="372" y="375"/>
      <point x="341" y="343"/>
      <point x="301" y="343" type="curve" smooth="yes"/>
      <point x="261" y="343"/>
      <point x="230" y="375"/>
    </contour>
  </outline>
</glyph>
<glyph name="lslash" format="1">
  <advance width="246"/>
  <unicode hex="0142"/>
  <outline>
    <contour>
      <point x="0" y="328" type="line"/>
      <point x="-28" y="390" type="line"/>
      <point x="255" y="568" type="line"/>
      <point x="282" y="505" type="line"/>
    </contour>
    <contour>
      <point x="69" y="780" type="line"/>
      <point x="178" y="780" type="line"/>
      <point x="178" y="0" type="line"/>
      <point x="69" y="0" type="line"/>
    </contour>
  </outline>
</glyph>
<glyph name="uni0145" format="1">
  <advance width="782"/>
  <unicode hex="0145"/>
  <outline>
    <contour>
      <point x="385" y="-42" type="line"/>
      <point x="493" y="-74" type="line"/>
      <point x="377" y="-324" type="line"/>
      <point x="297" y="-302" type="line"/>
    </contour>
    <contour>
      <point x="589" y="700" type="line"/>
      <point x="705" y="700" type="line"/>
      <point x="705" y="-35" type="line"/>
      <point x="194" y="470" type="line"/>
      <point x="194" y="0" type="line"/>
      <point x="78" y="0" type="line"/>
      <point x="78" y="735" type="line"/>
      <point x="589" y="230" type="line"/>
    </contour>
  </outline>
</glyph>
<glyph name="Ncaron" format="2">
  <advance width="781"/>
  <unicode hex="0147"/>
  <outline>
    <contour>
      <point x="390" y="889" type="line"/>
      <point x="493" y="980" type="line"/>
      <point x="565" y="927" type="line"/>
      <point x="390" y="787" type="line"/>
      <point x="215" y="927" type="line"/>
      <point x="288" y="980" type="line"/>
    </contour>
    <contour>
      <point x="589" y="700" type="line"/>
      <point x="705" y="700" type="line"/>
      <point x="705" y="-35" type="line"/>
      <point x="194" y="469" type="line"/>
      <point x="194" y="0" type="line"/>
      <point x="78" y="0" type="line"/>
      <point x="78" y="735" type="line"/>
      <point x="589" y="231" type="line"/>
    </contour>
  </outline>
</glyph>
<glyph name="napostrophe" format="2">
  <advance width="679"/>
  <unicode hex="0149"/>
  <outline>
    <contour>
      <point x="313" y="460" type="line"/>
      <point x="313" y="0" type="line"/>
      <point x="204" y="0" type="line"/>
      <point x="204" y="460" type="line"/>
    </contour>
    <contour>
      <point x="500" y="280" type="line" smooth="yes"/>
      <point x="500" y="347"/>
      <point x="473" y="383"/>
      <point x="414" y="383" type="curve" smooth="yes"/>
      <point x="353" y="383"/>
      <point x="313" y="341"/>
      <point x="313" y="280" type="curve"/>
      <point x="279" y="278" type="line"/>
      <point x="279" y="387"/>
      <point x="348" y="470"/>
      <point x="451" y="470" type="curve" smooth="yes"/>
      <point x="554" y="470"/>
      <point x="612" y="409"/>
      <point x="612" y="292" type="curve" smooth="yes"/>
      <point x="612" y="0" type="line"/>
      <point x="500" y="0" type="line"/>
    </contour>
    <contour>
      <point x="122" y="700" type="line"/>
      <point x="242" y="700" type="line"/>
      <point x="141" y="460" type="line"/>
      <point x="65" y="460" type="line"/>
    </contour>
  </outline>
</glyph>
<glyph name="Omacron" format="2">
  <advance width="802"/>
  <unicode hex="014C"/>
  <outline>
    <contour>
      <point x="164" y="350" type="curve" smooth="yes"/>
      <point x="164" y="206"/>
      <point x="262" y="101"/>
      <point x="401" y="101" type="curve" smooth="yes"/>
      <point x="540" y="101"/>
      <point x="639" y="206"/>
      <point x="639" y="350" type="curve" smooth="yes"/>
      <point x="639" y="494"/>
      <point x="541" y="599"/>
      <point x="401" y="599" type="curve" smooth="yes"/>
      <point x="262" y="599"/>
      <point x="164" y="494"/>
    </contour>
    <contour>
      <point x="38" y="350" type="curve" smooth="yes"/>
      <point x="38" y="559"/>
      <point x="194" y="712"/>
      <point x="401" y="712" type="curve" smooth="yes"/>
      <point x="610" y="712"/>
      <point x="765" y="559"/>
      <point x="765" y="350" type="curve" smooth="yes"/>
      <point x="765" y="141"/>
      <point x="611" y="-15"/>
      <point x="401" y="-15" type="curve" smooth="yes"/>
      <point x="191" y="-15"/>
      <point x="38" y="141"/>
    </contour>
    <contour>
      <point x="222" y="772" type="line"/>
      <point x="222" y="870" type="line"/>
      <point x="580" y="870" type="line"/>
      <point x="580" y="772" type="line"/>
    </contour>
  </outline>
</glyph>
<glyph name="Obreve" format="1">
  <advance width="802"/>
  <unicode hex="014E"/>
  <outline>
    <contour>
      <point x="163" y="350" type="curve" smooth="yes"/>
      <point x="163" y="206"/>
      <point x="262" y="101"/>
      <point x="401" y="101" type="curve" smooth="yes"/>
      <point x="540" y="101"/>
      <point x="639" y="206"/>
      <point x="639" y="350" type="curve" smooth="yes"/>
      <point x="639" y="494"/>
      <point x="541" y="599"/>
      <point x="401" y="599" type="curve" smooth="yes"/>
      <point x="262" y="599"/>
      <point x="163" y="494"/>
    </contour>
    <contour>
      <point x="38" y="350" type="curve" smooth="yes"/>
      <point x="38" y="559"/>
      <point x="193" y="712"/>
      <point x="401" y="712" type="curve" smooth="yes"/>
      <point x="610" y="712"/>
      <point x="765" y="559"/>
      <point x="765" y="350" type="curve" smooth="yes"/>
      <point x="765" y="141"/>
      <point x="611" y="-15"/>
      <point x="401" y="-15" type="curve" smooth="yes"/>
      <point x="191" y="-15"/>
      <point x="38" y="141"/>
    </contour>
    <contour>
      <point x="241" y="915" type="curve"/>
      <point x="323" y="915" type="line"/>
      <point x="323" y="885"/>
      <point x="343" y="846"/>
      <point x="401" y="846" type="curve" smooth="yes"/>
      <point x="459" y="846"/>
      <point x="480" y="885"/>
      <point x="480" y="915" type="curve"/>
      <point x="562" y="915" type="line"/>
      <point x="562" y="841"/>
      <point x="506" y="772"/>
      <point x="401" y="772" type="curve" smooth="yes"/>
      <point x="296" y="772"/>
      <point x="241" y="841"/>
    </contour>
  </outline>
</glyph>
<glyph name="oe" format="2">
  <advance width="900"/>
  <unicode hex="0153"/>
  <outline>
    <contour>
      <point x="750" y="250" type="line" smooth="yes"/>
      <point x="750" y="331"/>
      <point x="712" y="387"/>
      <point x="635" y="387" type="curve" smooth="yes"/>
      <point x="565" y="387"/>
      <point x="508" y="341"/>
      <point x="508" y="260" type="curve"/>
      <point x="506" y="230" type="line"/>
      <point x="506" y="132"/>
      <point x="556" y="78"/>
      <point x="636" y="78" type="curve" smooth="yes"/>
      <point x="698" y="78"/>
      <point x="739" y="108"/>
      <point x="768" y="153" type="curve"/>
      <point x="860" y="115" type="line"/>
      <point x="816" y="43"/>
      <point x="745" y="-10"/>
      <point x="646" y="-10" type="curve" smooth="yes"/>
      <point x="521" y="-10"/>
      <point x="430" y="91"/>
      <point x="430" y="230" type="curve" smooth="yes"/>
      <point x="430" y="247"/>
      <point x="431" y="263"/>
      <point x="434" y="279" type="curve" smooth="yes"/>
      <point x="453" y="392"/>
      <point x="539" y="470"/>
      <point x="658" y="470" type="curve" smooth="yes"/>
      <point x="768" y="470"/>
      <point x="865" y="379"/>
      <point x="865" y="234" type="curve" smooth="yes"/>
      <point x="865" y="226"/>
      <point x="864" y="213"/>
      <point x="863" y="205" type="curve"/>
      <point x="750" y="230" type="line"/>
    </contour>
    <contour>
      <point x="481" y="205" type="line"/>
      <point x="481" y="279" type="line"/>
      <point x="844" y="279" type="line"/>
      <point x="863" y="205" type="line"/>
    </contour>
    <contour>
      <point x="35" y="230" type="curve" smooth="yes"/>
      <point x="35" y="379"/>
      <point x="138" y="470"/>
      <point x="263" y="470" type="curve" smooth="yes"/>
      <point x="388" y="470"/>
      <point x="466" y="379"/>
      <point x="466" y="230" type="curve" smooth="yes"/>
      <point x="466" y="81"/>
      <point x="388" y="-10"/>
      <point x="263" y="-10" type="curve" smooth="yes"/>
      <point x="138" y="-10"/>
      <point x="35" y="81"/>
    </contour>
    <contour>
      <point x="144" y="230" type="curve" smooth="yes"/>
      <point x="144" y="137"/>
      <point x="206" y="85"/>
      <point x="281" y="85" type="curve" smooth="yes"/>
      <point x="346" y="85"/>
      <point x="402" y="137"/>
      <point x="402" y="230" type="curve" smooth="yes"/>
      <point x="402" y="323"/>
      <point x="346" y="375"/>
      <point x="281" y="375" type="curve" smooth="yes"/>
      <point x="206" y="375"/>
      <point x="144" y="323"/>
    </contour>
  </outline>
</glyph>
<glyph name="Racute" format="1">
  <advance width="595"/>
  <unicode hex="0154"/>
  <outline>
    <contour>
      <point x="222" y="334" type="line"/>
      <point x="350" y="334" type="line"/>
      <point x="588" y="0" type="line"/>
      <point x="445" y="0" type="line"/>
    </contour>
    <contour>
      <point x="78" y="700" type="line"/>
      <point x="196" y="700" type="line"/>
      <point x="196" y="0" type="line"/>
      <point x="78" y="0" type="line"/>
    </contour>
    <contour>
      <point x="148" y="598" type="line"/>
      <point x="148" y="700" type="line"/>
      <point x="294" y="700" type="line" smooth="yes"/>
      <point x="446" y="700"/>
      <point x="546" y="614"/>
      <point x="546" y="482" type="curve" smooth="yes"/>
      <point x="546" y="350"/>
      <point x="446" y="265"/>
      <point x="294" y="265" type="curve" smooth="yes"/>
      <point x="148" y="265" type="line"/>
      <point x="148" y="362" type="line"/>
      <point x="289" y="362" type="line" smooth="yes"/>
      <point x="370" y="362"/>
      <point x="424" y="405"/>
      <point x="424" y="480" type="curve" smooth="yes"/>
      <point x="424" y="555"/>
      <point x="370" y="598"/>
      <point x="289" y="598" type="curve" smooth="yes"/>
    </contour>
    <contour>
      <point x="431" y="922" type="line"/>
      <point x="251" y="772" type="line"/>
      <point x="190" y="808" type="line"/>
      <point x="340" y="968" type="line"/>
    </contour>
  </outline>
</glyph>
<glyph name="uni0156" format="1">
  <advance width="595"/>
  <unicode hex="0156"/>
  <outline>
    <contour>
      <point x="222" y="334" type="line"/>
      <point x="350" y="334" type="line"/>
      <point x="588" y="0" type="line"/>
      <point x="445" y="0" type="line"/>
    </contour>
    <contour>
      <point x="78" y="700" type="line"/>
      <point x="196" y="700" type="line"/>
      <point x="196" y="0" type="line"/>
      <point x="78" y="0" type="line"/>
    </contour>
    <contour>
      <point x="148" y="598" type="line"/>
      <point x="148" y="700" type="line"/>
      <point x="294" y="700" type="line" smooth="yes"/>
      <point x="446" y="700"/>
      <point x="546" y="614"/>
      <point x="546" y="482" type="curve" smooth="yes"/>
      <point x="546" y="350"/>
      <point x="446" y="265"/>
      <point x="294" y="265" type="curve" smooth="yes"/>
      <point x="148" y="265" type="line"/>
      <point x="148" y="362" type="line"/>
      <point x="289" y="362" type="line" smooth="yes"/>
      <point x="370" y="362"/>
      <point x="424" y="405"/>
      <point x="424" y="480" type="curve" smooth="yes"/>
      <point x="424" y="555"/>
      <point x="370" y="598"/>
      <point x="289" y="598" type="curve" smooth="yes"/>
    </contour>
    <contour>
      <point x="322" y="-60" type="line"/>
      <point x="431" y="-91" type="line"/>
      <point x="315" y="-341" type="line"/>
      <point x="234" y="-319" type="line"/>
    </contour>
  </outline>
</glyph>
<glyph name="Rcaron" format="1">
  <advance width="595"/>
  <unicode hex="0158"/>
  <outline>
    <contour>
      <point x="222" y="334" type="line"/>
      <point x="350" y="334" type="line"/>
      <point x="588" y="0" type="line"/>
      <point x="445" y="0" type="line"/>
    </contour>
    <contour>
      <point x="78" y="700" type="line"/>
      <point x="196" y="700" type="line"/>
      <point x="196" y="0" type="line"/>
      <point x="78" y="0" type="line"/>
    </contour>
    <contour>
      <point x="148" y="598" type="line"/>
      <point x="148" y="700" type="line"/>
      <point x="294" y="700" type="line" smooth="yes"/>
      <point x="446" y="700"/>
      <point x="546" y="614"/>
      <point x="546" y="482" type="curve" smooth="yes"/>
      <point x="546" y="350"/>
      <point x="446" y="265"/>
      <point x="294" y="265" type="curve" smooth="yes"/>
      <point x="148" y="265" type="line"/>
      <point x="148" y="362" type="line"/>
      <point x="289" y="362" type="line" smooth="yes"/>
      <point x="370" y="362"/>
      <point x="424" y="405"/>
      <point x="424" y="480" type="curve" smooth="yes"/>
      <point x="424" y="555"/>
      <point x="370" y="598"/>
      <point x="289" y="598" type="curve" smooth="yes"/>
    </contour>
    <contour>
      <point x="278" y="874" type="line"/>
      <point x="381" y="965" type="line"/>
      <point x="453" y="912" type="line"/>
      <point x="278" y="772" type="line"/>
      <point x="103" y="912" type="line"/>
      <point x="176" y="965" type="line"/>
    </contour>
  </outline>
</glyph>
<glyph name="Scedilla" format="2">
  <advance width="578"/>
  <unicode hex="015E"/>
  <outline>
    <contour>
      <point x="129" y="236" type="line"/>
      <point x="173" y="145"/>
      <point x="224" y="92"/>
      <point x="306" y="92" type="curve" smooth="yes"/>
      <point x="376" y="92"/>
      <point x="412" y="127"/>
      <point x="412" y="187" type="curve" smooth="yes"/>
      <point x="412" y="264"/>
      <point x="336" y="294"/>
      <point x="256" y="324" type="curve" smooth="yes"/>
      <point x="187" y="350"/>
      <point x="75" y="391"/>
      <point x="75" y="525" type="curve" smooth="yes"/>
      <point x="75" y="636"/>
      <point x="161" y="712"/>
      <point x="295" y="712" type="curve" smooth="yes"/>
      <point x="423" y="712"/>
      <point x="493" y="640"/>
      <point x="528" y="561" type="curve"/>
      <point x="435" y="504" type="line"/>
      <point x="405" y="560"/>
      <point x="360" y="606"/>
      <point x="292" y="606" type="curve" smooth="yes"/>
      <point x="231" y="606"/>
      <point x="198" y="574"/>
      <point x="198" y="523" type="curve" smooth="yes"/>
      <point x="198" y="463"/>
      <point x="275" y="434"/>
      <point x="359" y="403" type="curve" smooth="yes"/>
      <point x="442" y="373"/>
      <point x="537" y="317"/>
      <point x="537" y="192" type="curve" smooth="yes"/>
      <point x="537" y="64"/>
      <point x="444" y="-15"/>
      <point x="302" y="-15" type="curve" smooth="yes"/>
      <point x="182" y="-15"/>
      <point x="82" y="62"/>
      <point x="38" y="177" type="curve"/>
    </contour>
    <contour>
      <point x="297" y="60" type="line"/>
      <point x="377" y="58" type="line"/>
      <point x="305" y="-58" type="line"/>
      <point x="311" y="-57"/>
      <point x="318" y="-56"/>
      <point x="325" y="-56" type="curve" smooth="yes"/>
      <point x="361" y="-56"/>
      <point x="404" y="-84"/>
      <point x="404" y="-140" type="curve" smooth="yes"/>
      <point x="404" y="-206"/>
      <point x="346" y="-240"/>
      <point x="288" y="-240" type="curve" smooth="yes"/>
      <point x="243" y="-240"/>
      <point x="212" y="-231"/>
      <point x="176" y="-202" type="curve"/>
      <point x="215" y="-150" type="line"/>
      <point x="236" y="-167"/>
      <point x="256" y="-175"/>
      <point x="280" y="-175" type="curve" smooth="yes"/>
      <point x="314" y="-175"/>
      <point x="332" y="-160"/>
      <point x="332" y="-136" type="curve" smooth="yes"/>
      <point x="332" y="-111"/>
      <point x="311" y="-102"/>
      <point x="278" y="-102" type="curve" smooth="yes"/>
      <point x="268" y="-102"/>
      <point x="237" y="-105"/>
      <point x="210" y="-119" type="curve"/>
    </contour>
  </outline>
</glyph>
<glyph name="scedilla" format="1">
  <advance width="422"/>
  <unicode hex="015F"/>
  <outline>
    <contour>
      <point x="86" y="166" type="line"/>
      <point x="130" y="114"/>
      <point x="184" y="78"/>
      <point x="224" y="78" type="curve" smooth="yes"/>
      <point x="262" y="78"/>
      <point x="286" y="93"/>
      <point x="286" y="124" type="curve" smooth="yes"/>
      <point x="286" y="164"/>
      <point x="238" y="183"/>
      <point x="185" y="203" type="curve" smooth="yes"/>
      <point x="121" y="228"/>
      <point x="54" y="257"/>
      <point x="54" y="344" type="curve" smooth="yes"/>
      <point x="54" y="424"/>
      <point x="128" y="470"/>
      <point x="211" y="470" type="curve" smooth="yes"/>
      <point x="286" y="470"/>
      <point x="353" y="435"/>
      <point x="388" y="388" type="curve"/>
      <point x="328" y="326" type="line"/>
      <point x="297" y="359"/>
      <point x="253" y="383"/>
      <point x="216" y="383" type="curve" smooth="yes"/>
      <point x="179" y="383"/>
      <point x="155" y="371"/>
      <point x="155" y="343" type="curve" smooth="yes"/>
      <point x="155" y="305"/>
      <point x="215" y="292"/>
      <point x="268" y="271" type="curve" smooth="yes"/>
      <point x="333" y="245"/>
      <point x="395" y="211"/>
      <point x="395" y="130" type="curve" smooth="yes"/>
      <point x="395" y="33"/>
      <point x="326" y="-14"/>
      <point x="229" y="-14" type="curve" smooth="yes"/>
      <point x="140" y="-14"/>
      <point x="65" y="37"/>
      <point x="23" y="105" type="curve"/>
    </contour>
    <contour>
      <point x="223" y="69" type="line"/>
      <point x="304" y="68" type="line"/>
      <point x="231" y="-48" type="line"/>
      <point x="237" y="-47"/>
      <point x="244" y="-47"/>
      <point x="251" y="-47" type="curve" smooth="yes"/>
      <point x="287" y="-47"/>
      <point x="331" y="-74"/>
      <point x="331" y="-130" type="curve" smooth="yes"/>
      <point x="331" y="-196"/>
      <point x="272" y="-230"/>
      <point x="214" y="-230" type="curve" smooth="yes"/>
      <point x="170" y="-230"/>
      <point x="140" y="-220"/>
      <point x="104" y="-191" type="curve"/>
      <point x="142" y="-140" type="line"/>
      <point x="164" y="-157"/>
      <point x="182" y="-165"/>
      <point x="206" y="-165" type="curve" smooth="yes"/>
      <point x="240" y="-165"/>
      <point x="258" y="-151"/>
      <point x="258" y="-127" type="curve" smooth="yes"/>
      <point x="258" y="-102"/>
      <point x="237" y="-92"/>
      <point x="204" y="-92" type="curve" smooth="yes"/>
      <point x="194" y="-92"/>
      <point x="163" y="-95"/>
      <point x="137" y="-109" type="curve"/>
    </contour>
  </outline>
</glyph>
<glyph name="tcaron" format="2">
  <advance width="403"/>
  <unicode hex="0165"/>
  <outline>
    <contour>
      <point x="5" y="460" type="line"/>
      <point x="266" y="460" type="line"/>
      <point x="266" y="365" type="line"/>
      <point x="5" y="365" type="line"/>
    </contour>
    <contour>
      <point x="82" y="620" type="line"/>
      <point x="189" y="620" type="line"/>
      <point x="189" y="0" type="line"/>
      <point x="82" y="0" type="line"/>
    </contour>
    <contour>
      <point x="329" y="801" type="line"/>
      <point x="438" y="770" type="line"/>
      <point x="322" y="520" type="line"/>
      <point x="241" y="542" type="line"/>
    </contour>
  </outline>
</glyph>
<glyph name="utilde" format="2">
  <advance width="544"/>
  <unicode hex="0169"/>
  <outline>
    <contour>
      <point x="368" y="0" type="line"/>
      <point x="368" y="460" type="line"/>
      <point x="476" y="460" type="line"/>
      <point x="476" y="0" type="line"/>
    </contour>
    <contour>
      <point x="180" y="180" type="line" smooth="yes"/>
      <point x="180" y="113"/>
      <point x="207" y="77"/>
      <point x="266" y="77" type="curve" smooth="yes"/>
      <point x="327" y="77"/>
      <point x="368" y="119"/>
      <point x="368" y="180" type="curve"/>
      <point x="394" y="182" type="line"/>
      <point x="394" y="73"/>
      <point x="333" y="-10"/>
      <point x="230" y="-10" type="curve" smooth="yes"/>
      <point x="127" y="-10"/>
      <point x="69" y="51"/>
      <point x="69" y="168" type="curve" smooth="yes"/>
      <point x="69" y="460" type="line"/>
      <point x="180" y="460" type="line"/>
    </contour>
    <contour>
      <point x="95" y="579" type="line"/>
      <point x="105" y="628"/>
      <point x="152" y="666"/>
      <point x="205" y="666" type="curve" smooth="yes"/>
      <point x="271" y="666"/>
      <point x="279" y="617"/>
      <point x="334" y="617" type="curve" smooth="yes"/>
      <point x="355" y="617"/>
      <point x="374" y="635"/>
      <point x="394" y="667" type="curve"/>
      <point x="450" y="611" type="line"/>
      <point x="434" y="574"/>
      <point x="388" y="533"/>
      <point x="333" y="533" type="curve" smooth="yes"/>
      <point x="278" y="533"/>
      <point x="251" y="583"/>
      <point x="204" y="583" type="curve" smooth="yes"/>
      <point x="164" y="583"/>
      <point x="155" y="547"/>
      <point x="155" y="532" type="curve"/>
    </contour>
  </outline>
</glyph>
<glyph name="ubreve" format="2">
  <advance width="544"/>
  <unicode hex="016D"/>
  <outline>
    <contour>
      <point x="368" y="0" type="line"/>
      <point x="368" y="460" type="line"/>
      <point x="476" y="460" type="line"/>
      <point x="476" y="0" type="line"/>
    </contour>
    <contour>
      <point x="180" y="180" type="line" smooth="yes"/>
      <point x="180" y="113"/>
      <point x="207" y="77"/>
      <point x="266" y="77" type="curve" smooth="yes"/>
      <point x="327" y="77"/>
      <point x="368" y="119"/>
      <point x="368" y="180" type="curve"/>
      <point x="394" y="182" type="line"/>
      <point x="394" y="73"/>
      <point x="333" y="-10"/>
      <point x="230" y="-10" type="curve" smooth="yes"/>
      <point x="127" y="-10"/>
      <point x="69" y="51"/>
      <point x="69" y="168" type="curve" smooth="yes"/>
      <point x="69" y="460" type="line"/>
      <point x="180" y="460" type="line"/>
    </contour>
    <contour>
      <point x="112" y="673" type="curve"/>
      <point x="194" y="673" type="line"/>
      <point x="194" y="644"/>
      <point x="216" y="604"/>
      <point x="273" y="604" type="curve" smooth="yes"/>
      <point x="330" y="604"/>
      <point x="351" y="644"/>
      <point x="351" y="673" type="curve"/>
      <point x="433" y="673" type="line"/>
      <point x="433" y="599"/>
      <point x="378" y="530"/>
      <point x="273" y="530" type="curve" smooth="yes"/>
      <point x="168" y="530"/>
      <point x="112" y="599"/>
    </contour>
  </outline>
</glyph>
<glyph name="uring" format="2">
  <advance width="544"/>
  <unicode hex="016F"/>
  <outline>
    <contour>
      <point x="368" y="0" type="line"/>
      <point x="368" y="460" type="line"/>
      <point x="476" y="460" type="line"/>
      <point x="476" y="0" type="line"/>
    </contour>
    <contour>
      <point x="180" y="180" type="line" smooth="yes"/>
      <point x="180" y="113"/>
      <point x="207" y="77"/>
      <point x="266" y="77" type="curve" smooth="yes"/>
      <point x="327" y="77"/>
      <point x="368" y="119"/>
      <point x="368" y="180" type="curve"/>
      <point x="394" y="182" type="line"/>
      <point x="394" y="73"/>
      <point x="333" y="-10"/>
      <point x="230" y="-10" type="curve" smooth="yes"/>
      <point x="127" y="-10"/>
      <point x="69" y="51"/>
      <point x="69" y="168" type="curve" smooth="yes"/>
      <point x="69" y="460" type="line"/>
      <point x="180" y="460" type="line"/>
    </contour>
    <contour>
      <point x="161" y="636" type="curve" smooth="yes"/>
      <point x="161" y="699"/>
      <point x="213" y="743"/>
      <point x="272" y="743" type="curve" smooth="yes"/>
      <point x="331" y="743"/>
      <point x="384" y="699"/>
      <point x="384" y="636" type="curve" smooth="yes"/>
      <point x="384" y="573"/>
      <point x="331" y="530"/>
      <point x="272" y="530" type="curve" smooth="yes"/>
      <point x="213" y="530"/>
      <point x="161" y="573"/>
    </contour>
    <contour>
      <point x="223" y="636" type="curve" smooth="yes"/>
      <point x="223" y="604"/>
      <point x="247" y="586"/>
      <point x="272" y="586" type="curve" smooth="yes"/>
      <point x="297" y="586"/>
      <point x="321" y="604"/>
      <point x="321" y="636" type="curve" smooth="yes"/>
      <point x="321" y="668"/>
      <point x="297" y="688"/>
      <point x="272" y="688" type="curve" smooth="yes"/>
      <point x="247" y="688"/>
      <point x="223" y="668"/>
    </contour>
  </outline>
</glyph>
<glyph name="Ydieresis" format="1">
  <advance width="600"/>
  <unicode hex="0178"/>
  <outline>
    <contour>
      <point x="116" y="842" type="curve" smooth="yes"/>
      <point x="116" y="879"/>
      <point x="146" y="908"/>
      <point x="184" y="908" type="curve" smooth="yes"/>
      <point x="222" y="908"/>
      <point x="253" y="879"/>
      <point x="253" y="842" type="curve" smooth="yes"/>
      <point x="253" y="805"/>
      <point x="222" y="777"/>
      <point x="184" y="777" type="curve" smooth="yes"/>
      <point x="146" y="777"/>
      <point x="116" y="805"/>
    </contour>
    <contour>
      <point x="349" y="842" type="curve" smooth="yes"/>
      <point x="349" y="879"/>
      <point x="378" y="908"/>
      <point x="416" y="908" type="curve" smooth="yes"/>
      <point x="454" y="908"/>
      <point x="485" y="879"/>
      <point x="485" y="842" type="curve" smooth="yes"/>
      <point x="485" y="805"/>
      <point x="454" y="777"/>
      <point x="416" y="777" type="curve" smooth="yes"/>
      <point x="378" y="777"/>
      <point x="349" y="805"/>
    </contour>
    <contour>
      <point x="463" y="700" type="line"/>
      <point x="598" y="700" type="line"/>
      <point x="360" y="295" type="line"/>
      <point x="360" y="0" type="line"/>
      <point x="240" y="0" type="line"/>
      <point x="240" y="294" type="line"/>
      <point x="2" y="700" type="line"/>
      <point x="138" y="700" type="line"/>
      <point x="300" y="400" type="line"/>
    </contour>
  </outline>
</glyph>
<glyph name="Zacute" format="1">
  <advance width="575"/>
  <unicode hex="0179"/>
  <outline>
    <contour>
      <point x="44" y="591" type="line"/>
      <point x="44" y="700" type="line"/>
      <point x="558" y="700" type="line"/>
      <point x="204" y="106" type="line"/>
      <point x="531" y="106" type="line"/>
      <point x="531" y="0" type="line"/>
      <point x="12" y="0" type="line"/>
      <point x="364" y="591" type="line"/>
    </contour>
    <contour>
      <point x="466" y="922" type="line"/>
      <point x="286" y="772" type="line"/>
      <point x="224" y="808" type="line"/>
      <point x="374" y="968" type="line"/>
    </contour>
  </outline>
</glyph>
<glyph name="zacute" format="2">
  <advance width="484"/>
  <unicode hex="017A"/>
  <outline>
    <contour>
      <point x="283" y="360" type="line"/>
      <point x="50" y="360" type="line"/>
      <point x="50" y="460" type="line"/>
      <point x="470" y="460" type="line"/>
      <point x="208" y="100" type="line"/>
      <point x="445" y="100" type="line"/>
      <point x="445" y="0" type="line"/>
      <point x="15" y="0" type="line"/>
    </contour>
    <contour>
      <point x="425" y="695" type="line"/>
      <point x="245" y="545" type="line"/>
      <point x="183" y="580" type="line"/>
      <point x="333" y="740" type="line"/>
    </contour>
  </outline>
</glyph>
<glyph name="zdotaccent" format="1">
  <advance width="485"/>
  <unicode hex="017C"/>
  <outline>
    <contour>
      <point x="282" y="360" type="line"/>
      <point x="50" y="360" type="line"/>
      <point x="50" y="460" type="line"/>
      <point x="470" y="460" type="line"/>
      <point x="207" y="100" type="line"/>
      <point x="445" y="100" type="line"/>
      <point x="445" y="0" type="line"/>
      <point x="15" y="0" type="line"/>
    </contour>
    <contour>
      <point x="192" y="618" type="curve" smooth="yes"/>
      <point x="192" y="655"/>
      <point x="222" y="684"/>
      <point x="260" y="684" type="curve" smooth="yes"/>
      <point x="298" y="684"/>
      <point x="328" y="655"/>
      <point x="328" y="618" type="curve" smooth="yes"/>
      <point x="328" y="581"/>
      <point x="298" y="553"/>
      <point x="260" y="553" type="curve" smooth="yes"/>
      <point x="222" y="553"/>
      <point x="192" y="581"/>
    </contour>
  </outline>
</glyph>
<glyph name="uni0213" format="2">
  <advance width="370"/>
  <unicode hex="0213"/>
  <outline>
    <contour>
      <point x="176" y="460" type="line"/>
      <point x="176" y="0" type="line"/>
      <point x="69" y="0" type="line"/>
      <point x="69" y="460" type="line"/>
    </contour>
    <contour>
      <point x="313" y="344" type="line"/>
      <point x="293" y="360"/>
      <point x="278" y="369"/>
      <point x="252" y="369" type="curve" smooth="yes"/>
      <point x="198" y="369"/>
      <point x="176" y="325"/>
      <point x="176" y="259" type="curve"/>
      <point x="140" y="280" type="line"/>
      <point x="140" y="389"/>
      <point x="211" y="471"/>
      <point x="281" y="471" type="curve" smooth="yes"/>
      <point x="314" y="471"/>
      <point x="345" y="460"/>
      <point x="366" y="436" type="curve"/>
    </contour>
    <contour>
      <point x="57" y="531" type="curve"/>
      <point x="139" y="531" type="line"/>
      <point x="139" y="560"/>
      <point x="160" y="599"/>
      <point x="217" y="599" type="curve" smooth="yes"/>
      <point x="274" y="599"/>
      <point x="296" y="560"/>
      <point x="296" y="531" type="curve"/>
      <point x="378" y="531" type="line"/>
      <point x="378" y="605"/>
      <point x="322" y="673"/>
      <point x="217" y="673" type="curve" smooth="yes"/>
      <point x="112" y="673"/>
      <point x="57" y="605"/>
    </contour>
  </outline>
</glyph>
<glyph name="uni0218" format="2">
  <advance width="578"/>
  <unicode hex="0218"/>
  <outline>
    <contour>
      <point x="129" y="236" type="line"/>
      <point x="173" y="145"/>
      <point x="224" y="92"/>
      <point x="306" y="92" type="curve" smooth="yes"/>
      <point x="376" y="92"/>
      <point x="412" y="127"/>
      <point x="412" y="187" type="curve" smooth="yes"/>
      <point x="412" y="264"/>
      <point x="336" y="294"/>
      <point x="256" y="324" type="curve" smooth="yes"/>
      <point x="187" y="350"/>
      <point x="75" y="403"/>
      <point x="75" y="529" type="curve" smooth="yes"/>
      <point x="75" y="640"/>
      <point x="168" y="712"/>
      <point x="295" y="712" type="curve" smooth="yes"/>
      <point x="423" y="712"/>
      <point x="500" y="632"/>
      <point x="528" y="561" type="curve"/>
      <point x="435" y="504" type="line"/>
      <point x="405" y="560"/>
      <point x="367" y="606"/>
      <point x="299" y="606" type="curve" smooth="yes"/>
      <point x="238" y="606"/>
      <point x="198" y="574"/>
      <point x="198" y="523" type="curve" smooth="yes"/>
      <point x="198" y="463"/>
      <point x="275" y="434"/>
      <point x="359" y="403" type="curve" smooth="yes"/>
      <point x="442" y="373"/>
      <point x="537" y="317"/>
      <point x="537" y="192" type="curve" smooth="yes"/>
      <point x="537" y="64"/>
      <point x="451" y="-15"/>
      <point x="302" y="-15" type="curve" smooth="yes"/>
      <point x="182" y="-15"/>
      <point x="82" y="62"/>
      <point x="38" y="177" type="curve"/>
    </contour>
    <contour>
      <point x="281" y="-70" type="line"/>
      <point x="390" y="-101" type="line"/>
      <point x="273" y="-351" type="line"/>
      <point x="193" y="-329" type="line"/>
    </contour>
  </outline>
</glyph>
<glyph name="uni0219" format="1">
  <advance width="424"/>
  <unicode hex="0219"/>
  <outline>
    <contour>
      <point x="88" y="166" type="line"/>
      <point x="122" y="108"/>
      <point x="173" y="78"/>
      <point x="220" y="78" type="curve" smooth="yes"/>
      <point x="261" y="78"/>
      <point x="286" y="92"/>
      <point x="286" y="125" type="curve" smooth="yes"/>
      <point x="286" y="169"/>
      <point x="228" y="186"/>
      <point x="175" y="208" type="curve" smooth="yes"/>
      <point x="113" y="234"/>
      <point x="49" y="266"/>
      <point x="49" y="344" type="curve" smooth="yes"/>
      <point x="49" y="425"/>
      <point x="128" y="470"/>
      <point x="212" y="470" type="curve" smooth="yes"/>
      <point x="288" y="470"/>
      <point x="360" y="435"/>
      <point x="390" y="389" type="curve"/>
      <point x="330" y="325" type="line"/>
      <point x="302" y="358"/>
      <point x="253" y="380"/>
      <point x="216" y="380" type="curve" smooth="yes"/>
      <point x="179" y="380"/>
      <point x="155" y="369"/>
      <point x="155" y="339" type="curve" smooth="yes"/>
      <point x="155" y="307"/>
      <point x="216" y="289"/>
      <point x="270" y="267" type="curve" smooth="yes"/>
      <point x="335" y="241"/>
      <point x="397" y="202"/>
      <point x="397" y="130" type="curve" smooth="yes"/>
      <point x="397" y="28"/>
      <point x="329" y="-14"/>
      <point x="225" y="-14" type="curve" smooth="yes"/>
      <point x="135" y="-14"/>
      <point x="54" y="36"/>
      <point x="22" y="104" type="curve"/>
    </contour>
    <contour>
      <point x="205" y="-69" type="line"/>
      <point x="313" y="-100" type="line"/>
      <point x="197" y="-350" type="line"/>
      <point x="117" y="-328" type="line"/>
    </contour>
  </outline>
</glyph>
<glyph name="uni021A" format="2">
  <advance width="503"/>
  <unicode hex="021A"/>
  <outline>
    <contour>
      <point x="8" y="591" type="line"/>
      <point x="8" y="700" type="line"/>
      <point x="496" y="700" type="line"/>
      <point x="496" y="591" type="line"/>
      <point x="312" y="591" type="line"/>
      <point x="312" y="0" type="line"/>
      <point x="192" y="0" type="line"/>
      <point x="192" y="591" type="line"/>
    </contour>
    <contour>
      <point x="242" y="-60" type="line"/>
      <point x="350" y="-91" type="line"/>
      <point x="234" y="-341" type="line"/>
      <point x="154" y="-319" type="line"/>
    </contour>
  </outline>
</glyph>
<glyph name="circumflex" format="2">
  <advance width="480"/>
  <unicode hex="02C6"/>
  <outline>
    <contour>
      <point x="240" y="639" type="line"/>
      <point x="138" y="548" type="line"/>
      <point x="65" y="600" type="line"/>
      <point x="240" y="740" type="line"/>
      <point x="415" y="600" type="line"/>
      <point x="342" y="548" type="line"/>
    </contour>
  </outline>
</glyph>
<glyph name="caron" format="2">
  <advance width="480"/>
  <unicode hex="02C7"/>
  <outline>
    <contour>
      <point x="240" y="664" type="line"/>
      <point x="342" y="755" type="line"/>
      <point x="415" y="702" type="line"/>
      <point x="240" y="562" type="line"/>
      <point x="65" y="702" type="line"/>
      <point x="138" y="755" type="line"/>
    </contour>
  </outline>
</glyph>
<glyph name="breve" format="1">
  <advance width="546"/>
  <unicode hex="02D8"/>
  <outline>
    <contour>
      <point x="112" y="850" type="curve"/>
      <point x="195" y="850" type="line"/>
      <point x="195" y="820"/>
      <point x="215" y="781"/>
      <point x="273" y="781" type="curve" smooth="yes"/>
      <point x="331" y="781"/>
      <point x="351" y="820"/>
      <point x="351" y="850" type="curve"/>
      <point x="434" y="850" type="line"/>
      <point x="434" y="776"/>
      <point x="378" y="708"/>
      <point x="273" y="708" type="curve" smooth="yes"/>
      <point x="168" y="708"/>
      <point x="112" y="776"/>
    </contour>
  </outline>
</glyph>
<glyph name="dotaccent" format="2">
  <advance width="300"/>
  <unicode hex="02D9"/>
  <outline>
    <contour>
      <point x="82" y="799" type="curve" smooth="yes"/>
      <point x="82" y="837"/>
      <point x="112" y="865"/>
      <point x="150" y="865" type="curve" smooth="yes"/>
      <point x="188" y="865"/>
      <point x="218" y="837"/>
      <point x="218" y="799" type="curve" smooth="yes"/>
      <point x="218" y="761"/>
      <point x="188" y="733"/>
      <point x="150" y="733" type="curve" smooth="yes"/>
      <point x="112" y="733"/>
      <point x="82" y="761"/>
    </contour>
  </outline>
</glyph>
<glyph name="uni040C" format="2">
  <advance width="565"/>
  <unicode hex="040C"/>
  <outline>
    <contour>
      <point x="78" y="700" type="line"/>
      <point x="199" y="700" type="line"/>
      <point x="199" y="0" type="line"/>
      <point x="78" y="0" type="line"/>
    </contour>
    <contour>
      <point x="459" y="700" type="line"/>
      <point x="602" y="700" type="line"/>
      <point x="306" y="372" type="line"/>
      <point x="617" y="0" type="line"/>
      <point x="471" y="0" type="line"/>
      <point x="163" y="369" type="line"/>
    </contour>
    <contour>
      <point x="500" y="918" type="line"/>
      <point x="320" y="768" type="line"/>
      <point x="259" y="802" type="line"/>
      <point x="409" y="962" type="line"/>
    </contour>
  </outline>
</glyph>
<glyph name="uni0411" format="2">
  <advance width="597"/>
  <unicode hex="0411"/>
  <outline>
    <contour>
      <point x="127" y="324" type="line"/>
      <point x="127" y="426" type="line"/>
      <point x="320" y="426" type="line" smooth="yes"/>
      <point x="455" y="426"/>
      <point x="558" y="342"/>
      <point x="558" y="213" type="curve" smooth="yes"/>
      <point x="558" y="84"/>
      <point x="455" y="0"/>
      <point x="320" y="0" type="curve" smooth="yes"/>
      <point x="127" y="0" type="line"/>
      <point x="127" y="104" type="line"/>
      <point x="305" y="104" type="line" smooth="yes"/>
      <point x="385" y="104"/>
      <point x="438" y="140"/>
      <point x="438" y="213" type="curve" smooth="yes"/>
      <point x="438" y="286"/>
      <point x="385" y="324"/>
      <point x="305" y="324" type="curve" smooth="yes"/>
    </contour>
    <contour>
      <point x="80" y="700" type="line"/>
      <point x="505" y="700" type="line"/>
      <point x="505" y="596" type="line"/>
      <point x="200" y="596" type="line"/>
      <point x="200" y="0" type="line"/>
      <point x="80" y="0" type="line"/>
    </contour>
  </outline>
</glyph>
<glyph name="uni041B" format="2">
  <advance width="702"/>
  <unicode hex="041B"/>
  <outline>
    <contour>
      <point x="623" y="700" type="line"/>
      <point x="623" y="0" type="line"/>
      <point x="503" y="0" type="line"/>
      <point x="503" y="591" type="line"/>
      <point x="224" y="591" type="line"/>
      <point x="224" y="263" type="line" smooth="yes"/>
      <point x="224" y="106"/>
      <point x="156" y="0"/>
      <point x="10" y="0" type="curve"/>
      <point x="10" y="101" type="line"/>
      <point x="72" y="101"/>
      <point x="108" y="172"/>
      <point x="108" y="270" type="curve" smooth="yes"/>
      <point x="108" y="700" type="line"/>
    </contour>
  </outline>
</glyph>
<glyph name="uni041F" format="2">
  <advance width="737"/>
  <unicode hex="041F"/>
  <outline>
    <contour>
      <point x="537" y="591" type="line"/>
      <point x="200" y="591" type="line"/>
      <point x="200" y="0" type="line"/>
      <point x="80" y="0" type="line"/>
      <point x="80" y="700" type="line"/>
      <point x="658" y="700" type="line"/>
      <point x="658" y="0" type="line"/>
      <point x="537" y="0" type="line"/>
    </contour>
  </outline>
</glyph>
<glyph name="uni0423" format="2">
  <advance width="585"/>
  <unicode hex="0423"/>
  <outline>
    <contour>
      <point x="590" y="700" type="line"/>
      <point x="261" y="0" type="line"/>
      <point x="135" y="0" type="line"/>
      <point x="226" y="209" type="line"/>
      <point x="-3" y="700" type="line"/>
      <point x="135" y="700" type="line"/>
      <point x="322" y="251" type="line"/>
      <point x="261" y="254" type="line"/>
      <point x="462" y="700" type="line"/>
    </contour>
  </outline>
</glyph>
<glyph name="uni0429" format="2">
  <advance width="1078"/>
  <unicode hex="0429"/>
  <outline>
    <contour>
      <point x="825" y="109" type="line"/>
      <point x="825" y="700" type="line"/>
      <point x="944" y="700" type="line"/>
      <point x="944" y="109" type="line"/>
      <point x="1039" y="109" type="line"/>
      <point x="1039" y="-120" type="line"/>
      <point x="929" y="-120" type="line"/>
      <point x="929" y="0" type="line"/>
      <point x="80" y="0" type="line"/>
      <point x="80" y="700" type="line"/>
      <point x="199" y="700" type="line"/>
      <point x="199" y="109" type="line"/>
      <point x="453" y="109" type="line"/>
      <point x="453" y="700" type="line"/>
      <point x="570" y="700" type="line"/>
      <point x="570" y="109" type="line"/>
    </contour>
  </outline>
</glyph>
<glyph name="uni042A" format="2">
  <advance width="689"/>
  <unicode hex="042A"/>
  <outline>
    <contour>
      <point x="260" y="331" type="line"/>
      <point x="260" y="435" type="line"/>
      <point x="400" y="435" type="line" smooth="yes"/>
      <point x="552" y="435"/>
      <point x="652" y="352"/>
      <point x="652" y="218" type="curve" smooth="yes"/>
      <point x="652" y="84"/>
      <point x="552" y="0"/>
      <point x="400" y="0" type="curve" smooth="yes"/>
      <point x="260" y="0" type="line"/>
      <point x="260" y="104" type="line"/>
      <point x="400" y="104" type="line" smooth="yes"/>
      <point x="481" y="104"/>
      <point x="535" y="143"/>
      <point x="535" y="218" type="curve" smooth="yes"/>
      <point x="535" y="293"/>
      <point x="481" y="331"/>
      <point x="400" y="331" type="curve" smooth="yes"/>
    </contour>
    <contour>
      <point x="190" y="592" type="line"/>
      <point x="10" y="592" type="line"/>
      <point x="10" y="700" type="line"/>
      <point x="309" y="700" type="line"/>
      <point x="309" y="0" type="line"/>
      <point x="190" y="0" type="line"/>
    </contour>
  </outline>
</glyph>
<glyph name="uni042D" format="2">
  <advance width="690"/>
  <unicode hex="042D"/>
  <outline>
    <contour>
      <point x="134" y="299" type="line"/>
      <point x="134" y="401" type="line"/>
      <point x="537" y="401" type="line"/>
      <point x="537" y="299" type="line"/>
    </contour>
    <contour>
      <point x="533" y="350" type="curve" smooth="yes"/>
      <point x="533" y="499"/>
      <point x="414" y="599"/>
      <point x="286" y="599" type="curve" smooth="yes"/>
      <point x="187" y="599"/>
      <point x="114" y="557"/>
      <point x="68" y="505" type="curve"/>
      <point x="68" y="638" type="line"/>
      <point x="126" y="687"/>
      <point x="188" y="712"/>
      <point x="290" y="712" type="curve" smooth="yes"/>
      <point x="497" y="712"/>
      <point x="654" y="562"/>
      <point x="654" y="350" type="curve" smooth="yes"/>
      <point x="654" y="138"/>
      <point x="497" y="-12"/>
      <point x="290" y="-12" type="curve" smooth="yes"/>
      <point x="188" y="-12"/>
      <point x="126" y="13"/>
      <point x="68" y="62" type="curve"/>
      <point x="68" y="195" type="line"/>
      <point x="114" y="143"/>
      <point x="187" y="101"/>
      <point x="286" y="101" type="curve" smooth="yes"/>
      <point x="414" y="101"/>
      <point x="533" y="201"/>
    </contour>
  </outline>
</glyph>
<glyph name="uni042F" format="2">
  <advance width="594"/>
  <unicode hex="042F"/>
  <outline>
    <contour>
      <point x="372" y="334" type="line"/>
      <point x="150" y="0" type="line"/>
      <point x="8" y="0" type="line"/>
      <point x="245" y="334" type="line"/>
    </contour>
    <contour>
      <point x="518" y="700" type="line"/>
      <point x="518" y="0" type="line"/>
      <point x="398" y="0" type="line"/>
      <point x="398" y="700" type="line"/>
    </contour>
    <contour>
      <point x="447" y="597" type="line"/>
      <point x="306" y="597" type="line" smooth="yes"/>
      <point x="225" y="597"/>
      <point x="171" y="555"/>
      <point x="171" y="480" type="curve" smooth="yes"/>
      <point x="171" y="405"/>
      <point x="225" y="363"/>
      <point x="306" y="363" type="curve" smooth="yes"/>
      <point x="447" y="363" type="line"/>
      <point x="447" y="265" type="line"/>
      <point x="301" y="265" type="line" smooth="yes"/>
      <point x="149" y="265"/>
      <point x="50" y="351"/>
      <point x="50" y="482" type="curve" smooth="yes"/>
      <point x="50" y="613"/>
      <point x="149" y="700"/>
      <point x="301" y="700" type="curve" smooth="yes"/>
      <point x="447" y="700" type="line"/>
    </contour>
  </outline>
</glyph>
<glyph name="uni0431" format="2">
  <advance width="570"/>
  <unicode hex="0431"/>
  <outline>
    <contour>
      <point x="288" y="375" type="curve"/>
      <point x="293" y="470" type="line"/>
      <point x="433" y="470"/>
      <point x="536" y="369"/>
      <point x="536" y="230" type="curve" smooth="yes"/>
      <point x="536" y="91"/>
      <point x="433" y="-10"/>
      <point x="288" y="-10" type="curve" smooth="yes"/>
      <point x="143" y="-10"/>
      <point x="35" y="91"/>
      <point x="35" y="290" type="curve"/>
      <point x="150" y="230" type="line"/>
      <point x="150" y="144"/>
      <point x="211" y="85"/>
      <point x="288" y="85" type="curve" smooth="yes"/>
      <point x="365" y="85"/>
      <point x="425" y="144"/>
      <point x="425" y="230" type="curve" smooth="yes"/>
      <point x="425" y="316"/>
      <point x="365" y="375"/>
    </contour>
    <contour>
      <point x="102" y="230" type="line"/>
      <point x="102" y="379"/>
      <point x="178" y="470"/>
      <point x="293" y="470" type="curve"/>
      <point x="288" y="375" type="line"/>
      <point x="224" y="375"/>
      <point x="150" y="323"/>
      <point x="150" y="230" type="curve"/>
    </contour>
    <contour>
      <point x="35" y="290" type="line"/>
      <point x="35" y="477"/>
      <point x="79" y="599"/>
      <point x="238" y="658" type="curve" smooth="yes"/>
      <point x="329" y="691"/>
      <point x="372" y="732"/>
      <point x="382" y="780" type="curve"/>
      <point x="488" y="780" type="line"/>
      <point x="478" y="691"/>
      <point x="396" y="621"/>
      <point x="287" y="583" type="curve" smooth="yes"/>
      <point x="163" y="540"/>
      <point x="130" y="440"/>
      <point x="130" y="340" type="curve" smooth="yes"/>
      <point x="140" y="235" type="line"/>
    </contour>
  </outline>
</glyph>
<glyph name="uni0433" format="2">
  <advance width="341"/>
  <unicode hex="0433"/>
  <outline>
    <contour>
      <point x="72" y="460" type="line"/>
      <point x="338" y="460" type="line"/>
      <point x="338" y="365" type="line"/>
      <point x="180" y="365" type="line"/>
      <point x="180" y="0" type="line"/>
      <point x="72" y="0" type="line"/>
    </contour>
  </outline>
</glyph>
<glyph name="uni0434" format="2">
  <advance width="674"/>
  <unicode hex="0434"/>
  <outline>
    <contour>
      <point x="335" y="305" type="line"/>
      <point x="210" y="30" type="line"/>
      <point x="98" y="43" type="line"/>
      <point x="335" y="495" type="line"/>
      <point x="573" y="43" type="line"/>
      <point x="460" y="30" type="line"/>
    </contour>
    <contour>
      <point x="525" y="0" type="line"/>
      <point x="150" y="0" type="line"/>
      <point x="150" y="-90" type="line"/>
      <point x="40" y="-90" type="line"/>
      <point x="40" y="92" type="line"/>
      <point x="630" y="92" type="line"/>
      <point x="630" y="-90" type="line"/>
      <point x="525" y="-90" type="line"/>
    </contour>
  </outline>
</glyph>
<glyph name="uni0436" format="2">
  <advance width="757"/>
  <unicode hex="0436"/>
  <outline>
    <contour>
      <point x="608" y="460" type="line"/>
      <point x="738" y="460" type="line"/>
      <point x="533" y="262" type="line"/>
      <point x="758" y="0" type="line"/>
      <point x="628" y="0" type="line"/>
      <point x="408" y="270" type="line"/>
    </contour>
    <contour>
      <point x="430" y="460" type="line"/>
      <point x="430" y="0" type="line"/>
      <point x="328" y="0" type="line"/>
      <point x="328" y="460" type="line"/>
    </contour>
    <contour>
      <point x="150" y="460" type="line"/>
      <point x="350" y="270" type="line"/>
      <point x="130" y="0" type="line"/>
      <point x="0" y="0" type="line"/>
      <point x="225" y="262" type="line"/>
      <point x="20" y="460" type="line"/>
    </contour>
  </outline>
</glyph>
<glyph name="uni043C" format="2">
  <advance width="626"/>
  <unicode hex="043C"/>
  <outline>
    <contour>
      <point x="507" y="0" type="line"/>
      <point x="437" y="345" type="line"/>
      <point x="495" y="495" type="line"/>
      <point x="622" y="0" type="line"/>
    </contour>
    <contour>
      <point x="282" y="94" type="line"/>
      <point x="495" y="495" type="line"/>
      <point x="505" y="318" type="line"/>
      <point x="312" y="-31" type="line"/>
    </contour>
    <contour>
      <point x="312" y="-31" type="line"/>
      <point x="123" y="318" type="line"/>
      <point x="133" y="495" type="line"/>
      <point x="342" y="94" type="line"/>
    </contour>
    <contour>
      <point x="5" y="0" type="line"/>
      <point x="133" y="495" type="line"/>
      <point x="190" y="345" type="line"/>
      <point x="120" y="0" type="line"/>
    </contour>
  </outline>
</glyph>
<glyph name="uni0440" format="2">
  <advance width="588"/>
  <unicode hex="0440"/>
  <outline>
    <contour>
      <point x="174" y="-220" type="line"/>
      <point x="65" y="-220" type="line"/>
      <point x="65" y="460" type="line"/>
      <point x="174" y="460" type="line"/>
    </contour>
    <contour>
      <point x="555" y="230" type="curve" smooth="yes"/>
      <point x="555" y="76"/>
      <point x="451" y="-12"/>
      <point x="331" y="-12" type="curve" smooth="yes"/>
      <point x="214" y="-12"/>
      <point x="138" y="81"/>
      <point x="138" y="230" type="curve" smooth="yes"/>
      <point x="138" y="379"/>
      <point x="214" y="472"/>
      <point x="331" y="472" type="curve" smooth="yes"/>
      <point x="451" y="472"/>
      <point x="555" y="384"/>
    </contour>
    <contour>
      <point x="443" y="230" type="curve" smooth="yes"/>
      <point x="443" y="322"/>
      <point x="380" y="374"/>
      <point x="305" y="374" type="curve" smooth="yes"/>
      <point x="243" y="374"/>
      <point x="174" y="323"/>
      <point x="174" y="230" type="curve" smooth="yes"/>
      <point x="174" y="137"/>
      <point x="243" y="86"/>
      <point x="305" y="86" type="curve" smooth="yes"/>
      <point x="380" y="86"/>
      <point x="443" y="138"/>
    </contour>
  </outline>
</glyph>
<glyph name="uni0444" format="2">
  <advance width="618"/>
  <unicode hex="0444"/>
  <outline>
    <contour>
      <point x="256" y="560" type="line"/>
      <point x="362" y="560" type="line"/>
      <point x="362" y="-100" type="line"/>
      <point x="256" y="-100" type="line"/>
    </contour>
    <contour>
      <point x="34" y="230" type="curve" smooth="yes"/>
      <point x="34" y="371"/>
      <point x="140" y="470"/>
      <point x="309" y="470" type="curve" smooth="yes"/>
      <point x="478" y="470"/>
      <point x="585" y="371"/>
      <point x="585" y="230" type="curve" smooth="yes"/>
      <point x="585" y="89"/>
      <point x="478" y="-10"/>
      <point x="309" y="-10" type="curve" smooth="yes"/>
      <point x="140" y="-10"/>
      <point x="34" y="89"/>
    </contour>
    <contour>
      <point x="137" y="230" type="curve" smooth="yes"/>
      <point x="137" y="144"/>
      <point x="197" y="85"/>
      <point x="309" y="85" type="curve" smooth="yes"/>
      <point x="421" y="85"/>
      <point x="481" y="144"/>
      <point x="481" y="230" type="curve" smooth="yes"/>
      <point x="481" y="316"/>
      <point x="421" y="375"/>
      <point x="309" y="375" type="curve" smooth="yes"/>
      <point x="197" y="375"/>
      <point x="137" y="316"/>
    </contour>
  </outline>
</glyph>
<glyph name="uni0446" format="2">
  <advance width="587"/>
  <unicode hex="0446"/>
  <outline>
    <contour>
      <point x="479" y="95" type="line"/>
      <point x="559" y="95" type="line"/>
      <point x="559" y="-95" type="line"/>
      <point x="460" y="-95" type="line"/>
      <point x="460" y="0" type="line"/>
      <point x="69" y="0" type="line"/>
      <point x="69" y="460" type="line"/>
      <point x="178" y="460" type="line"/>
      <point x="178" y="95" type="line"/>
      <point x="370" y="95" type="line"/>
      <point x="370" y="460" type="line"/>
      <point x="479" y="460" type="line"/>
    </contour>
  </outline>
</glyph>
<glyph name="uni0447" format="2">
  <advance width="509"/>
  <unicode hex="0447"/>
  <outline>
    <contour>
      <point x="230" y="130" type="line"/>
      <point x="247" y="225" type="line"/>
      <point x="387" y="225" type="line"/>
      <point x="387" y="130" type="line"/>
    </contour>
    <contour>
      <point x="330" y="460" type="line"/>
      <point x="439" y="460" type="line"/>
      <point x="439" y="0" type="line"/>
      <point x="330" y="0" type="line"/>
    </contour>
    <contour>
      <point x="159" y="460" type="line"/>
      <point x="159" y="323" type="line" smooth="yes"/>
      <point x="159" y="253"/>
      <point x="181" y="225"/>
      <point x="247" y="225" type="curve"/>
      <point x="230" y="130" type="line"/>
      <point x="91" y="130"/>
      <point x="50" y="193"/>
      <point x="50" y="328" type="curve" smooth="yes"/>
      <point x="50" y="460" type="line"/>
    </contour>
  </outline>
</glyph>
<glyph name="uni044A" format="2">
  <advance width="591"/>
  <unicode hex="044A"/>
  <outline>
    <contour>
      <point x="232" y="213" type="line"/>
      <point x="232" y="294" type="line"/>
      <point x="375" y="294" type="line" smooth="yes"/>
      <point x="470" y="294"/>
      <point x="543" y="250"/>
      <point x="543" y="151" type="curve" smooth="yes"/>
      <point x="543" y="52"/>
      <point x="470" y="0"/>
      <point x="375" y="0" type="curve" smooth="yes"/>
      <point x="232" y="0" type="line"/>
      <point x="232" y="89" type="line"/>
      <point x="364" y="89" type="line" smooth="yes"/>
      <point x="412" y="89"/>
      <point x="438" y="113"/>
      <point x="438" y="151" type="curve" smooth="yes"/>
      <point x="438" y="189"/>
      <point x="412" y="213"/>
      <point x="364" y="213" type="curve" smooth="yes"/>
    </contour>
    <contour>
      <point x="160" y="365" type="line"/>
      <point x="5" y="365" type="line"/>
      <point x="5" y="460" type="line"/>
      <point x="264" y="460" type="line"/>
      <point x="264" y="0" type="line"/>
      <point x="160" y="0" type="line"/>
    </contour>
  </outline>
</glyph>
<glyph name="uni044B" format="2">
  <advance width="692"/>
  <unicode hex="044B"/>
  <outline>
    <contour>
      <point x="515" y="460" type="line"/>
      <point x="624" y="460" type="line"/>
      <point x="624" y="0" type="line"/>
      <point x="515" y="0" type="line"/>
    </contour>
    <contour>
      <point x="69" y="460" type="line"/>
      <point x="178" y="460" type="line"/>
      <point x="178" y="0" type="line"/>
      <point x="69" y="0" type="line"/>
    </contour>
    <contour>
      <point x="145" y="213" type="line"/>
      <point x="145" y="294" type="line"/>
      <point x="288" y="294" type="line" smooth="yes"/>
      <point x="383" y="294"/>
      <point x="456" y="250"/>
      <point x="456" y="151" type="curve" smooth="yes"/>
      <point x="456" y="52"/>
      <point x="383" y="0"/>
      <point x="288" y="0" type="curve" smooth="yes"/>
      <point x="145" y="0" type="line"/>
      <point x="145" y="89" type="line"/>
      <point x="277" y="89" type="line" smooth="yes"/>
      <point x="325" y="89"/>
      <point x="351" y="113"/>
      <point x="351" y="151" type="curve" smooth="yes"/>
      <point x="351" y="189"/>
      <point x="325" y="213"/>
      <point x="277" y="213" type="curve" smooth="yes"/>
    </contour>
  </outline>
</glyph>
<glyph name="uni045E" format="2">
  <advance width="440"/>
  <unicode hex="045E"/>
  <outline>
    <contour>
      <point x="477" y="460" type="line"/>
      <point x="177" y="-220" type="line"/>
      <point x="61" y="-220" type="line"/>
      <point x="182" y="54" type="line"/>
      <point x="-3" y="460" type="line"/>
      <point x="120" y="460" type="line"/>
      <point x="267" y="97" type="line"/>
      <point x="216" y="99" type="line"/>
      <point x="360" y="460" type="line"/>
    </contour>
    <contour>
      <point x="76" y="673" type="curve"/>
      <point x="158" y="673" type="line"/>
      <point x="158" y="644"/>
      <point x="179" y="604"/>
      <point x="236" y="604" type="curve" smooth="yes"/>
      <point x="293" y="604"/>
      <point x="315" y="644"/>
      <point x="315" y="673" type="curve"/>
      <point x="397" y="673" type="line"/>
      <point x="397" y="599"/>
      <point x="341" y="530"/>
      <point x="236" y="530" type="curve" smooth="yes"/>
      <point x="131" y="530"/>
      <point x="76" y="599"/>
    </contour>
  </outline>
</glyph>
<glyph name="uni1E9E" format="2">
  <advance width="786"/>
  <unicode hex="1E9E"/>
  <outline>
    <contour>
      <point x="496" y="-12" type="curve" smooth="yes"/>
      <point x="341" y="-12"/>
      <point x="259" y="91"/>
      <point x="259" y="200" type="curve"/>
      <point x="370" y="200" type="line"/>
      <point x="370" y="136"/>
      <point x="422" y="90"/>
      <point x="496" y="90" type="curve" smooth="yes"/>
      <point x="571" y="90"/>
      <point x="614" y="132"/>
      <point x="614" y="200" type="curve" smooth="yes"/>
      <point x="614" y="278"/>
      <point x="548" y="317"/>
      <point x="458" y="317" type="curve"/>
      <point x="458" y="380" type="line"/>
      <point x="610" y="380"/>
      <point x="734" y="324"/>
      <point x="734" y="185" type="curve" smooth="yes"/>
      <point x="734" y="66"/>
      <point x="634" y="-12"/>
    </contour>
    <contour>
      <point x="458" y="345" type="curve"/>
      <point x="458" y="406" type="line"/>
      <point x="543" y="406"/>
      <point x="592" y="452"/>
      <point x="592" y="513" type="curve" smooth="yes"/>
      <point x="592" y="571"/>
      <point x="533" y="612"/>
      <point x="433" y="612" type="curve" smooth="yes"/>
      <point x="308" y="612"/>
      <point x="199" y="545"/>
      <point x="199" y="366" type="curve" smooth="yes"/>
      <point x="199" y="0" type="line"/>
      <point x="80" y="0" type="line"/>
      <point x="80" y="376" type="line" smooth="yes"/>
      <point x="80" y="600"/>
      <point x="229" y="710"/>
      <point x="429" y="710" type="curve" smooth="yes"/>
      <point x="597" y="710"/>
      <point x="714" y="643"/>
      <point x="714" y="529" type="curve" smooth="yes"/>
      <point x="714" y="420"/>
      <point x="610" y="345"/>
    </contour>
  </outline>
</glyph>
<glyph name="endash" format="2">
  <advance width="757"/>
  <unicode hex="2013"/>
  <outline>
    <contour>
      <point x="70" y="189" type="line"/>
      <point x="70" y="286" type="line"/>
      <point x="685" y="286" type="line"/>
      <point x="685" y="189" type="line"/>
    </contour>
  </outline>
</glyph>
<glyph name="emdash" format="2">
  <advance width="909"/>
  <unicode hex="2014"/>
  <outline>
    <contour>
      <point x="70" y="189" type="line"/>
      <point x="70" y="286" type="line"/>
      <point x="839" y="286" type="line"/>
      <point x="839" y="189" type="line"/>
    </contour>
  </outline>
</glyph>
<glyph name="quoteleft" format="2">
  <advance width="297"/>
  <unicode hex="2018"/>
  <outline>
    <contour>
      <point x="190" y="460" type="line"/>
      <point x="70" y="460" type="line"/>
      <point x="171" y="700" type="line"/>
      <point x="248" y="700" type="line"/>
    </contour>
  </outline>
</glyph>
<glyph name="quoteright" format="2">
  <advance width="297"/>
  <unicode hex="2019"/>
  <outline>
    <contour>
      <point x="108" y="700" type="line"/>
      <point x="228" y="700" type="line"/>
      <point x="126" y="460" type="line"/>
      <point x="50" y="460" type="line"/>
    </contour>
  </outline>
</glyph>
<glyph name="quotedblleft" format="2">
  <advance width="509"/>
  <unicode hex="201C"/>
  <outline>
    <contour>
      <point x="190" y="460" type="line"/>
      <point x="70" y="460" type="line"/>
      <point x="171" y="700" type="line"/>
      <point x="248" y="700" type="line"/>
    </contour>
    <contour>
      <point x="403" y="460" type="line"/>
      <point x="283" y="460" type="line"/>
      <point x="384" y="700" type="line"/>
      <point x="460" y="700" type="line"/>
    </contour>
  </outline>
</glyph>
<glyph name="quotedblright" format="2">
  <advance width="509"/>
  <unicode hex="201D"/>
  <outline>
    <contour>
      <point x="108" y="700" type="line"/>
      <point x="228" y="700" type="line"/>
      <point x="126" y="460" type="line"/>
      <point x="50" y="460" type="line"/>
    </contour>
    <contour>
      <point x="320" y="700" type="line"/>
      <point x="440" y="700" type="line"/>
      <point x="339" y="460" type="line"/>
      <point x="263" y="460" type="line"/>
    </contour>
  </outline>
</glyph>
<glyph name="daggerdbl" format="2">
  <advance width="594"/>
  <unicode hex="2021"/>
  <outline>
    <contour>
      <point x="90" y="135" type="line"/>
      <point x="505" y="135" type="line"/>
      <point x="505" y="40" type="line"/>
      <point x="90" y="40" type="line"/>
    </contour>
    <contour>
      <point x="90" y="540" type="line"/>
      <point x="505" y="540" type="line"/>
      <point x="505" y="445" type="line"/>
      <point x="90" y="445" type="line"/>
    </contour>
    <contour>
      <point x="245" y="700" type="line"/>
      <point x="350" y="700" type="line"/>
      <point x="350" y="-150" type="line"/>
      <point x="245" y="-150" type="line"/>
    </contour>
  </outline>
</glyph>
<glyph name="bullet" format="2">
  <advance width="300"/>
  <unicode hex="2022"/>
  <outline>
    <contour>
      <point x="84" y="426" type="curve" smooth="yes"/>
      <point x="84" y="464"/>
      <point x="115" y="496"/>
      <point x="155" y="496" type="curve" smooth="yes"/>
      <point x="195" y="496"/>
      <point x="225" y="464"/>
      <point x="225" y="426" type="curve" smooth="yes"/>
      <point x="225" y="388"/>
      <point x="195" y="357"/>
      <point x="155" y="357" type="curve" smooth="yes"/>
      <point x="115" y="357"/>
      <point x="84" y="388"/>
    </contour>
  </outline>
</glyph>
<glyph name="uni2031" format="2">
  <advance width="1638"/>
  <unicode hex="2031"/>
  <outline>
    <contour>
      <point x="1268" y="156" type="curve" smooth="yes"/>
      <point x="1268" y="250"/>
      <point x="1339" y="327"/>
      <point x="1439" y="327" type="curve" smooth="yes"/>
      <point x="1539" y="327"/>
      <point x="1609" y="250"/>
      <point x="1609" y="156" type="curve" smooth="yes"/>
      <point x="1609" y="62"/>
      <point x="1539" y="-13"/>
      <point x="1439" y="-13" type="curve" smooth="yes"/>
      <point x="1339" y="-13"/>
      <point x="1268" y="62"/>
    </contour>
    <contour>
      <point x="1360" y="156" type="curve" smooth="yes"/>
      <point x="1360" y="111"/>
      <point x="1391" y="73"/>
      <point x="1439" y="73" type="curve" smooth="yes"/>
      <point x="1487" y="73"/>
      <point x="1516" y="111"/>
      <point x="1516" y="156" type="curve" smooth="yes"/>
      <point x="1516" y="201"/>
      <point x="1487" y="240"/>
      <point x="1439" y="240" type="curve" smooth="yes"/>
      <point x="1391" y="240"/>
      <point x="1360" y="201"/>
    </contour>
    <contour>
      <point x="858" y="156" type="curve" smooth="yes"/>
      <point x="858" y="250"/>
      <point x="928" y="327"/>
      <point x="1028" y="327" type="curve" smooth="yes"/>
      <point x="1128" y="327"/>
      <point x="1199" y="250"/>
      <point x="1199" y="156" type="curve" smooth="yes"/>
      <point x="1199" y="62"/>
      <point x="1128" y="-13"/>
      <point x="1028" y="-13" type="curve" smooth="yes"/>
      <point x="928" y="-13"/>
      <point x="858" y="62"/>
    </contour>
    <contour>
      <point x="950" y="156" type="curve" smooth="yes"/>
      <point x="950" y="111"/>
      <point x="980" y="73"/>
      <point x="1028" y="73" type="curve" smooth="yes"/>
      <point x="1076" y="73"/>
      <point x="1106" y="111"/>
      <point x="1106" y="156" type="curve" smooth="yes"/>
      <point x="1106" y="201"/>
      <point x="1076" y="240"/>
      <point x="1028" y="240" type="curve" smooth="yes"/>
      <point x="980" y="240"/>
      <point x="950" y="201"/>
    </contour>
    <contour>
      <point x="30" y="544" type="curve" smooth="yes"/>
      <point x="30" y="638"/>
      <point x="101" y="713"/>
      <point x="201" y="713" type="curve" smooth="yes"/>
      <point x="301" y="713"/>
      <point x="371" y="638"/>
      <point x="371" y="544" type="curve" smooth="yes"/>
      <point x="371" y="450"/>
      <point x="301" y="374"/>
      <point x="201" y="374" type="curve" smooth="yes"/>
      <point x="101" y="374"/>
      <point x="30" y="450"/>
    </contour>
    <contour>
      <point x="123" y="544" type="curve" smooth="yes"/>
      <point x="123" y="499"/>
      <point x="153" y="460"/>
      <point x="201" y="460" type="curve" smooth="yes"/>
      <point x="249" y="460"/>
      <point x="278" y="499"/>
      <point x="278" y="544" type="curve" smooth="yes"/>
      <point x="278" y="589"/>
      <point x="249" y="627"/>
      <point x="201" y="627" type="curve" smooth="yes"/>
      <point x="153" y="627"/>
      <point x="123" y="589"/>
    </contour>
    <contour>
      <point x="448" y="156" type="curve" smooth="yes"/>
      <point x="448" y="250"/>
      <point x="518" y="327"/>
      <point x="618" y="327" type="curve" smooth="yes"/>
      <point x="718" y="327"/>
      <point x="789" y="250"/>
      <point x="789" y="156" type="curve" smooth="yes"/>
      <point x="789" y="62"/>
      <point x="718" y="-13"/>
      <point x="618" y="-13" type="curve" smooth="yes"/>
      <point x="518" y="-13"/>
      <point x="448" y="62"/>
    </contour>
    <contour>
      <point x="541" y="156" type="curve" smooth="yes"/>
      <point x="541" y="111"/>
      <point x="570" y="73"/>
      <point x="618" y="73" type="curve" smooth="yes"/>
      <point x="666" y="73"/>
      <point x="696" y="111"/>
      <point x="696" y="156" type="curve" smooth="yes"/>
      <point x="696" y="201"/>
      <point x="666" y="240"/>
      <point x="618" y="240" type="curve" smooth="yes"/>
      <point x="570" y="240"/>
      <point x="541" y="201"/>
    </contour>
    <contour>
      <point x="598" y="700" type="line"/>
      <point x="706" y="700" type="line"/>
      <point x="220" y="0" type="line"/>
      <point x="113" y="0" type="line"/>
    </contour>
  </outline>
</glyph>
<glyph name="guilsinglright" format="2">
  <advance width="350"/>
  <unicode hex="203A"/>
  <outline>
    <contour>
      <point x="212" y="251" type="line"/>
      <point x="62" y="445" type="line"/>
      <point x="130" y="498" type="line"/>
      <point x="315" y="255" type="line"/>
      <point x="130" y="12" type="line"/>
      <point x="62" y="65" type="line"/>
    </contour>
  </outline>
</glyph>
<glyph name="uni203D" format="2">
  <advance width="584"/>
  <unicode hex="203D"/>
  <outline>
    <contour>
      <point x="424" y="492" type="curve" smooth="yes"/>
      <point x="424" y="573"/>
      <point x="369" y="618"/>
      <point x="282" y="618" type="curve" smooth="yes"/>
      <point x="217" y="618"/>
      <point x="166" y="588"/>
      <point x="135" y="533" type="curve"/>
      <point x="55" y="591" type="line"/>
      <point x="101" y="661"/>
      <point x="173" y="713"/>
      <point x="294" y="713" type="curve" smooth="yes"/>
      <point x="421" y="713"/>
      <point x="528" y="627"/>
      <point x="528" y="500" type="curve" smooth="yes"/>
      <point x="528" y="368"/>
      <point x="397" y="285"/>
      <point x="282" y="285" type="curve"/>
      <point x="245" y="346" type="line"/>
      <point x="350" y="346"/>
      <point x="424" y="416"/>
    </contour>
    <contour>
      <point x="206" y="508" type="line"/>
      <point x="324" y="508" type="line"/>
      <point x="301" y="183" type="line"/>
      <point x="229" y="183" type="line"/>
    </contour>
    <contour>
      <point x="196" y="49" type="curve" smooth="yes"/>
      <point x="196" y="87"/>
      <point x="227" y="116"/>
      <point x="267" y="116" type="curve" smooth="yes"/>
      <point x="307" y="116"/>
      <point x="339" y="87"/>
      <point x="339" y="49" type="curve" smooth="yes"/>
      <point x="339" y="11"/>
      <point x="307" y="-18"/>
      <point x="267" y="-18" type="curve" smooth="yes"/>
      <point x="227" y="-18"/>
      <point x="196" y="11"/>
    </contour>
  </outline>
</glyph>
<glyph name="uni2074" format="2">
  <advance width="402"/>
  <unicode hex="2074"/>
  <outline>
    <contour>
      <point x="24" y="361" type="line"/>
      <point x="83" y="417" type="line"/>
      <point x="266" y="417" type="line" smooth="yes"/>
      <point x="276" y="422" type="line" smooth="yes"/>
      <point x="371" y="422" type="line"/>
      <point x="371" y="361" type="line"/>
    </contour>
    <contour>
      <point x="98" y="372" type="line"/>
      <point x="24" y="361" type="line"/>
      <point x="262" y="700" type="line"/>
      <point x="305" y="700" type="line"/>
      <point x="305" y="280" type="line"/>
      <point x="232" y="280" type="line"/>
      <point x="232" y="383" type="line" smooth="yes"/>
      <point x="236" y="389" type="line" smooth="yes"/>
      <point x="236" y="574" type="line"/>
    </contour>
  </outline>
</glyph>
<glyph name="uni2077" format="2">
  <advance width="363"/>
  <unicode hex="2077"/>
  <outline>
    <contour>
      <point x="27" y="633" type="line"/>
      <point x="27" y="700" type="line"/>
      <point x="341" y="700" type="line"/>
      <point x="139" y="280" type="line"/>
      <point x="64" y="280" type="line"/>
      <point x="235" y="633" type="line"/>
    </contour>
  </outline>
</glyph>
<glyph name="uni2078" format="2">
  <advance width="337"/>
  <unicode hex="2078"/>
  <outline>
    <contour>
      <point x="42" y="599" type="curve" smooth="yes"/>
      <point x="42" y="663"/>
      <point x="98" y="708"/>
      <point x="169" y="708" type="curve" smooth="yes"/>
      <point x="240" y="708"/>
      <point x="295" y="663"/>
      <point x="295" y="599" type="curve" smooth="yes"/>
      <point x="295" y="529"/>
      <point x="238" y="490"/>
      <point x="169" y="490" type="curve" smooth="yes"/>
      <point x="100" y="490"/>
      <point x="42" y="529"/>
    </contour>
    <contour>
      <point x="110" y="591" type="curve" smooth="yes"/>
      <point x="110" y="556"/>
      <point x="136" y="532"/>
      <point x="169" y="532" type="curve" smooth="yes"/>
      <point x="202" y="532"/>
      <point x="227" y="556"/>
      <point x="227" y="591" type="curve" smooth="yes"/>
      <point x="227" y="626"/>
      <point x="203" y="651"/>
      <point x="169" y="651" type="curve" smooth="yes"/>
      <point x="135" y="651"/>
      <point x="110" y="626"/>
    </contour>
    <contour>
      <point x="27" y="394" type="curve" smooth="yes"/>
      <point x="27" y="476"/>
      <point x="100" y="516"/>
      <point x="169" y="516" type="curve" smooth="yes"/>
      <point x="238" y="516"/>
      <point x="310" y="476"/>
      <point x="310" y="394" type="curve" smooth="yes"/>
      <point x="310" y="324"/>
      <point x="247" y="272"/>
      <point x="169" y="272" type="curve" smooth="yes"/>
      <point x="91" y="272"/>
      <point x="27" y="324"/>
    </contour>
    <contour>
      <point x="97" y="403" type="curve" smooth="yes"/>
      <point x="97" y="357"/>
      <point x="132" y="332"/>
      <point x="169" y="332" type="curve" smooth="yes"/>
      <point x="206" y="332"/>
      <point x="240" y="357"/>
      <point x="240" y="403" type="curve" smooth="yes"/>
      <point x="240" y="443"/>
      <point x="206" y="474"/>
      <point x="169" y="474" type="curve" smooth="yes"/>
      <point x="132" y="474"/>
      <point x="97" y="443"/>
    </contour>
  </outline>
</glyph>
<glyph name="uni2079" format="2">
  <advance width="359"/>
  <unicode hex="2079"/>
  <outline>
    <contour>
      <point x="273" y="561" type="curve" smooth="yes"/>
      <point x="273" y="613"/>
      <point x="236" y="647"/>
      <point x="188" y="647" type="curve" smooth="yes"/>
      <point x="140" y="647"/>
      <point x="104" y="613"/>
      <point x="104" y="561" type="curve" smooth="yes"/>
      <point x="104" y="509"/>
      <point x="140" y="473"/>
      <point x="188" y="473" type="curve" smooth="yes"/>
      <point x="236" y="473"/>
      <point x="273" y="509"/>
    </contour>
    <contour>
      <point x="174" y="283" type="line"/>
      <point x="83" y="283" type="line"/>
      <point x="217" y="447" type="line"/>
      <point x="227" y="449" type="line"/>
      <point x="209" y="428"/>
      <point x="189" y="424"/>
      <point x="161" y="424" type="curve" smooth="yes"/>
      <point x="95" y="424"/>
      <point x="34" y="481"/>
      <point x="34" y="561" type="curve" smooth="yes"/>
      <point x="34" y="654"/>
      <point x="102" y="710"/>
      <point x="188" y="710" type="curve" smooth="yes"/>
      <point x="274" y="710"/>
      <point x="343" y="654"/>
      <point x="343" y="561" type="curve" smooth="yes"/>
      <point x="343" y="522"/>
      <point x="328" y="488"/>
      <point x="307" y="461" type="curve" smooth="yes"/>
    </contour>
  </outline>
</glyph>
<glyph name="uni2080" format="2">
  <advance width="378"/>
  <unicode hex="2080"/>
  <outline>
    <contour>
      <point x="96" y="210" type="curve" smooth="yes"/>
      <point x="96" y="120"/>
      <point x="132" y="57"/>
      <point x="189" y="57" type="curve" smooth="yes"/>
      <point x="246" y="57"/>
      <point x="283" y="120"/>
      <point x="283" y="210" type="curve" smooth="yes"/>
      <point x="283" y="300"/>
      <point x="246" y="363"/>
      <point x="189" y="363" type="curve" smooth="yes"/>
      <point x="132" y="363"/>
      <point x="96" y="300"/>
    </contour>
    <contour>
      <point x="27" y="210" type="curve" smooth="yes"/>
      <point x="27" y="340"/>
      <point x="92" y="427"/>
      <point x="189" y="427" type="curve" smooth="yes"/>
      <point x="287" y="427"/>
      <point x="353" y="340"/>
      <point x="353" y="210" type="curve" smooth="yes"/>
      <point x="353" y="80"/>
      <point x="287" y="-7"/>
      <point x="189" y="-7" type="curve" smooth="yes"/>
      <point x="92" y="-7"/>
      <point x="27" y="80"/>
    </contour>
  </outline>
</glyph>
<glyph name="uni2085" format="1">
  <advance width="372"/>
  <unicode hex="2085"/>
  <outline>
    <contour>
      <point x="341" y="134" type="curve" smooth="yes"/>
      <point x="341" y="38"/>
      <point x="266" y="-9"/>
      <point x="185" y="-9" type="curve" smooth="yes"/>
      <point x="108" y="-9"/>
      <point x="61" y="26"/>
      <point x="29" y="66" type="curve"/>
      <point x="70" y="118" type="line"/>
      <point x="95" y="85"/>
      <point x="136" y="57"/>
      <point x="176" y="57" type="curve" smooth="yes"/>
      <point x="232" y="57"/>
      <point x="265" y="88"/>
      <point x="265" y="139" type="curve" smooth="yes"/>
      <point x="265" y="190"/>
      <point x="225" y="220"/>
      <point x="176" y="220" type="curve" smooth="yes"/>
      <point x="139" y="220"/>
      <point x="108" y="212"/>
      <point x="65" y="186" type="curve"/>
      <point x="111" y="231" type="line"/>
      <point x="141" y="263"/>
      <point x="177" y="275"/>
      <point x="215" y="275" type="curve" smooth="yes"/>
      <point x="285" y="275"/>
      <point x="341" y="218"/>
    </contour>
    <contour>
      <point x="174" y="356" type="line"/>
      <point x="142" y="239" type="line"/>
      <point x="65" y="186" type="line"/>
      <point x="121" y="418" type="line"/>
      <point x="337" y="418" type="line"/>
      <point x="337" y="356" type="line"/>
    </contour>
  </outline>
</glyph>
<glyph name="uni2086" format="1">
  <advance width="365"/>
  <unicode hex="2086"/>
  <outline>
    <contour>
      <point x="101" y="140" type="curve" smooth="yes"/>
      <point x="101" y="88"/>
      <point x="138" y="53"/>
      <point x="186" y="53" type="curve" smooth="yes"/>
      <point x="234" y="53"/>
      <point x="270" y="88"/>
      <point x="270" y="140" type="curve" smooth="yes"/>
      <point x="270" y="192"/>
      <point x="234" y="228"/>
      <point x="186" y="228" type="curve" smooth="yes"/>
      <point x="138" y="228"/>
      <point x="101" y="192"/>
    </contour>
    <contour>
      <point x="200" y="417" type="line"/>
      <point x="290" y="417" type="line"/>
      <point x="157" y="253" type="line"/>
      <point x="147" y="251" type="line"/>
      <point x="165" y="272"/>
      <point x="185" y="276"/>
      <point x="213" y="276" type="curve" smooth="yes"/>
      <point x="279" y="276"/>
      <point x="340" y="220"/>
      <point x="340" y="140" type="curve" smooth="yes"/>
      <point x="340" y="47"/>
      <point x="272" y="-10"/>
      <point x="186" y="-10" type="curve" smooth="yes"/>
      <point x="100" y="-10"/>
      <point x="31" y="47"/>
      <point x="31" y="140" type="curve" smooth="yes"/>
      <point x="31" y="178"/>
      <point x="47" y="212"/>
      <point x="67" y="239" type="curve" smooth="yes"/>
    </contour>
  </outline>
</glyph>
